<svg width="871" height="365" viewBox="0 0 871 365" fill="none" xmlns="http://www.w3.org/2000/svg">
<mask id="mask0_204_3" style="mask-type:alpha" maskUnits="userSpaceOnUse" x="0" y="0" width="871" height="365">
<rect width="871" height="365" fill="#D9D9D9"/>
</mask>
<g mask="url(#mask0_204_3)">
<mask id="path-2-outside-1_204_3" maskUnits="userSpaceOnUse" x="11" y="31" width="840" height="305" fill="black">
<rect fill="white" x="11" y="31" width="840" height="305"/>
<path d="M120.878 78.8182H90.8352C90.6222 76.3324 90.054 74.0774 89.1307 72.0533C88.2429 70.0291 87 68.2891 85.402 66.8331C83.8395 65.3416 81.9396 64.2053 79.7024 63.424C77.4652 62.6072 74.9261 62.1989 72.0852 62.1989C67.1136 62.1989 62.9055 63.4062 59.4609 65.821C56.0518 68.2358 53.4595 71.6981 51.6839 76.2081C49.9439 80.718 49.0739 86.1335 49.0739 92.4545C49.0739 99.1307 49.9616 104.724 51.7372 109.234C53.5483 113.708 56.1584 117.082 59.5675 119.354C62.9766 121.592 67.0781 122.71 71.8722 122.71C74.6065 122.71 77.0568 122.373 79.223 121.698C81.3892 120.988 83.2713 119.976 84.8693 118.662C86.4673 117.348 87.7635 115.768 88.7578 113.921C89.7876 112.039 90.4801 109.926 90.8352 107.582L120.878 107.795C120.523 112.412 119.227 117.117 116.989 121.911C114.752 126.67 111.574 131.073 107.455 135.121C103.371 139.134 98.3104 142.366 92.2734 144.816C86.2365 147.266 79.223 148.491 71.233 148.491C61.2188 148.491 52.2344 146.343 44.2798 142.046C36.3608 137.749 30.093 131.428 25.4766 123.083C20.8956 114.738 18.6051 104.528 18.6051 92.4545C18.6051 80.3097 20.9489 70.0824 25.6364 61.7727C30.3239 53.4276 36.6449 47.1243 44.5994 42.8629C52.554 38.566 61.4318 36.4176 71.233 36.4176C78.1222 36.4176 84.4609 37.3587 90.2493 39.2408C96.0376 41.1229 101.116 43.875 105.484 47.4972C109.852 51.0838 113.367 55.505 116.031 60.7607C118.694 66.0163 120.31 72.0355 120.878 78.8182ZM141.814 147V37.9091H188.903C196.999 37.9091 204.084 39.3828 210.156 42.3303C216.229 45.2777 220.952 49.5213 224.325 55.0611C227.699 60.6009 229.385 67.2415 229.385 74.983C229.385 82.7955 227.645 89.3828 224.165 94.745C220.721 100.107 215.873 104.156 209.623 106.89C203.409 109.624 196.147 110.991 187.837 110.991H159.712V87.9801H181.871C185.351 87.9801 188.317 87.554 190.767 86.7017C193.253 85.8139 195.153 84.4112 196.466 82.4936C197.816 80.576 198.491 78.0724 198.491 74.983C198.491 71.858 197.816 69.3189 196.466 67.3658C195.153 65.3771 193.253 63.9212 190.767 62.9979C188.317 62.0391 185.351 61.5597 181.871 61.5597H171.431V147H141.814ZM205.735 96.929L233.008 147H200.834L174.201 96.929H205.735ZM249.51 147V37.9091H328.132V61.7727H279.126V80.5227H324.084V104.386H279.126V123.136H327.919V147H249.51ZM378.658 147H346.698L382.707 37.9091H423.19L459.198 147H427.238L403.374 67.9517H402.522L378.658 147ZM372.692 103.96H432.778V126.119H372.692V103.96ZM460.453 61.7727V37.9091H555.268V61.7727H522.455V147H493.265V61.7727H460.453ZM573.914 147V37.9091H652.536V61.7727H603.531V80.5227H648.488V104.386H603.531V123.136H652.323V147H573.914ZM16.0483 243.773V219.909H110.864V243.773H78.0511V329H48.8608V243.773H16.0483ZM129.51 329V219.909H159.126V262.523H198.331V219.909H227.947V329H198.331V286.386H159.126V329H129.51ZM249.51 329V219.909H328.132V243.773H279.126V262.523H324.084V286.386H279.126V305.136H327.919V329H249.51Z"/>
<path d="M387.703 329V219.909H435.004C443.314 219.909 450.292 221.028 455.938 223.265C461.62 225.502 465.899 228.663 468.776 232.746C471.688 236.83 473.143 241.642 473.143 247.182C473.143 251.195 472.256 254.852 470.48 258.155C468.74 261.457 466.29 264.227 463.129 266.464C459.969 268.666 456.276 270.193 452.05 271.045V272.111C456.737 272.288 460.999 273.478 464.834 275.68C468.669 277.846 471.723 280.847 473.996 284.682C476.268 288.482 477.405 292.956 477.405 298.105C477.405 304.071 475.842 309.38 472.717 314.032C469.628 318.684 465.224 322.342 459.507 325.005C453.79 327.668 446.972 329 439.053 329H387.703ZM417.32 305.349H431.169C436.141 305.349 439.869 304.426 442.355 302.58C444.841 300.697 446.084 297.928 446.084 294.27C446.084 291.713 445.498 289.547 444.326 287.771C443.154 285.996 441.485 284.646 439.319 283.723C437.188 282.8 434.614 282.338 431.595 282.338H417.32V305.349ZM417.32 264.014H429.464C432.057 264.014 434.347 263.606 436.336 262.789C438.325 261.972 439.869 260.8 440.97 259.273C442.107 257.711 442.675 255.811 442.675 253.574C442.675 250.2 441.467 247.626 439.053 245.85C436.638 244.039 433.584 243.134 429.891 243.134H417.32V264.014ZM495.398 329V219.909H574.021V243.773H525.015V262.523H569.972V286.386H525.015V305.136H573.808V329H495.398ZM624.547 329H592.587L628.595 219.909H669.078L705.087 329H673.127L649.263 249.952H648.411L624.547 329ZM618.581 285.96H678.666V308.119H618.581V285.96ZM706.341 243.773V219.909H801.157V243.773H768.344V329H739.154V243.773H706.341ZM831.082 330.705C826.963 330.705 823.429 329.266 820.482 326.39C817.57 323.478 816.132 319.945 816.167 315.79C816.132 311.741 817.57 308.279 820.482 305.403C823.429 302.526 826.963 301.088 831.082 301.088C834.988 301.088 838.433 302.526 841.416 305.403C844.434 308.279 845.961 311.741 845.997 315.79C845.961 318.56 845.233 321.081 843.813 323.354C842.428 325.591 840.617 327.384 838.38 328.734C836.142 330.048 833.71 330.705 831.082 330.705Z"/>
</mask>
<path d="M387.703 329V219.909H435.004C443.314 219.909 450.292 221.028 455.938 223.265C461.62 225.502 465.899 228.663 468.776 232.746C471.688 236.83 473.143 241.642 473.143 247.182C473.143 251.195 472.256 254.852 470.48 258.155C468.74 261.457 466.29 264.227 463.129 266.464C459.969 268.666 456.276 270.193 452.05 271.045V272.111C456.737 272.288 460.999 273.478 464.834 275.68C468.669 277.846 471.723 280.847 473.996 284.682C476.268 288.482 477.405 292.956 477.405 298.105C477.405 304.071 475.842 309.38 472.717 314.032C469.628 318.684 465.224 322.342 459.507 325.005C453.79 327.668 446.972 329 439.053 329H387.703ZM417.32 305.349H431.169C436.141 305.349 439.869 304.426 442.355 302.58C444.841 300.697 446.084 297.928 446.084 294.27C446.084 291.713 445.498 289.547 444.326 287.771C443.154 285.996 441.485 284.646 439.319 283.723C437.188 282.8 434.614 282.338 431.595 282.338H417.32V305.349ZM417.32 264.014H429.464C432.057 264.014 434.347 263.606 436.336 262.789C438.325 261.972 439.869 260.8 440.97 259.273C442.107 257.711 442.675 255.811 442.675 253.574C442.675 250.2 441.467 247.626 439.053 245.85C436.638 244.039 433.584 243.134 429.891 243.134H417.32V264.014ZM495.398 329V219.909H574.021V243.773H525.015V262.523H569.972V286.386H525.015V305.136H573.808V329H495.398ZM624.547 329H592.587L628.595 219.909H669.078L705.087 329H673.127L649.263 249.952H648.411L624.547 329ZM618.581 285.96H678.666V308.119H618.581V285.96ZM706.341 243.773V219.909H801.157V243.773H768.344V329H739.154V243.773H706.341ZM831.082 330.705C826.963 330.705 823.429 329.266 820.482 326.39C817.57 323.478 816.132 319.945 816.167 315.79C816.132 311.741 817.57 308.279 820.482 305.403C823.429 302.526 826.963 301.088 831.082 301.088C834.988 301.088 838.433 302.526 841.416 305.403C844.434 308.279 845.961 311.741 845.997 315.79C845.961 318.56 845.233 321.081 843.813 323.354C842.428 325.591 840.617 327.384 838.38 328.734C836.142 330.048 833.71 330.705 831.082 330.705Z" fill="white"/>
<path d="M120.878 78.8182V83.8182H126.314L125.86 78.4008L120.878 78.8182ZM90.8352 78.8182L85.8535 79.2452L86.2455 83.8182H90.8352V78.8182ZM89.1307 72.0533L84.5517 74.0616L84.5664 74.095L84.5816 74.1283L89.1307 72.0533ZM85.402 66.8331L81.9496 70.4499L81.9916 70.49L82.0345 70.5291L85.402 66.8331ZM79.7024 63.424L77.9877 68.1208L78.0208 68.1329L78.054 68.1445L79.7024 63.424ZM59.4609 65.821L56.5908 61.7268L56.5808 61.7338L56.5709 61.7409L59.4609 65.821ZM51.6839 76.2081L47.0315 74.3764L47.0253 74.3923L47.0191 74.4083L51.6839 76.2081ZM51.7372 109.234L47.0848 111.065L47.0935 111.088L47.1025 111.11L51.7372 109.234ZM59.5675 119.354L56.794 123.515L56.809 123.525L56.8242 123.535L59.5675 119.354ZM79.223 121.698L80.7099 126.472L80.7454 126.461L80.7808 126.449L79.223 121.698ZM84.8693 118.662L88.0448 122.524L88.0449 122.524L84.8693 118.662ZM88.7578 113.921L84.3715 111.521L84.3634 111.536L84.3555 111.551L88.7578 113.921ZM90.8352 107.582L90.8707 102.583L86.5404 102.552L85.8916 106.833L90.8352 107.582ZM120.878 107.795L125.863 108.179L126.274 102.834L120.913 102.796L120.878 107.795ZM116.989 121.911L121.514 124.039L121.517 124.032L121.52 124.026L116.989 121.911ZM107.455 135.121L110.959 138.688L110.959 138.688L107.455 135.121ZM44.2798 142.046L41.8952 146.441L41.9035 146.445L44.2798 142.046ZM25.4766 123.083L21.0935 125.489L21.0974 125.496L21.1014 125.503L25.4766 123.083ZM25.6364 61.7727L29.9913 64.2293L29.9957 64.2214L25.6364 61.7727ZM44.5994 42.8629L46.9605 47.2703L46.9682 47.2662L46.9758 47.2621L44.5994 42.8629ZM90.2493 39.2408L91.7954 34.4858V34.4858L90.2493 39.2408ZM105.484 47.4972L102.292 51.3459L102.301 51.3537L102.311 51.3613L105.484 47.4972ZM116.031 60.7607L111.571 63.0208V63.0208L116.031 60.7607ZM120.878 73.8182H90.8352V83.8182H120.878V73.8182ZM95.817 78.3912C95.5609 75.4039 94.8675 72.5821 93.6798 69.9782L84.5816 74.1283C85.2404 75.5727 85.6834 77.2608 85.8535 79.2452L95.817 78.3912ZM93.7096 70.045C92.5471 67.3944 90.8968 65.0754 88.7694 63.1371L82.0345 70.5291C83.1032 71.5028 83.9387 72.6638 84.5517 74.0616L93.7096 70.045ZM88.8544 63.2163C86.7279 61.1865 84.1952 59.6968 81.3508 58.7035L78.054 68.1445C79.6841 68.7137 80.9511 69.4968 81.9496 70.4499L88.8544 63.2163ZM81.4171 58.7272C78.5359 57.6754 75.4011 57.1989 72.0852 57.1989V67.1989C74.4511 67.1989 76.3945 67.5391 77.9877 68.1208L81.4171 58.7272ZM72.0852 57.1989C66.2781 57.1989 61.0206 58.6214 56.5908 61.7268L62.3311 69.9152C64.7905 68.1911 67.9492 67.1989 72.0852 67.1989V57.1989ZM56.5709 61.7409C52.2473 64.8034 49.105 69.1099 47.0315 74.3764L56.3364 78.0398C57.8141 74.2864 59.8564 71.6682 62.351 69.9011L56.5709 61.7409ZM47.0191 74.4083C45.001 79.639 44.0739 85.6976 44.0739 92.4545H54.0739C54.0739 86.5695 54.8868 81.7971 56.3488 78.0079L47.0191 74.4083ZM44.0739 92.4545C44.0739 99.5371 45.0106 105.797 47.0848 111.065L56.3896 107.402C54.9126 103.65 54.0739 98.7243 54.0739 92.4545H44.0739ZM47.1025 111.11C49.2218 116.345 52.4088 120.591 56.794 123.515L62.341 115.194C59.908 113.572 57.8748 111.071 56.372 107.358L47.1025 111.11ZM56.8242 123.535C61.1829 126.395 66.278 127.71 71.8722 127.71V117.71C67.8783 117.71 64.7702 116.788 62.3108 115.174L56.8242 123.535ZM71.8722 127.71C75.0109 127.71 77.9754 127.324 80.7099 126.472L77.7361 116.924C76.1382 117.422 74.2022 117.71 71.8722 117.71V127.71ZM80.7808 126.449C83.4766 125.565 85.9209 124.27 88.0448 122.524L81.6938 114.8C80.6217 115.681 79.3018 116.41 77.6653 116.947L80.7808 126.449ZM88.0449 122.524C90.1519 120.792 91.8621 118.702 93.1602 116.292L84.3555 111.551C83.6649 112.833 82.7828 113.904 81.6938 114.8L88.0449 122.524ZM93.1441 116.321C94.4829 113.875 95.3452 111.193 95.7788 108.331L85.8916 106.833C85.6151 108.659 85.0924 110.204 84.3715 111.521L93.1441 116.321ZM90.7998 112.582L120.842 112.795L120.913 102.796L90.8707 102.583L90.7998 112.582ZM115.893 107.412C115.59 111.35 114.477 115.471 112.458 119.797L121.52 124.026C123.976 118.763 125.456 113.474 125.863 108.179L115.893 107.412ZM112.464 119.784C110.503 123.956 107.688 127.882 103.95 131.555L110.959 138.688C115.46 134.265 119.001 129.384 121.514 124.039L112.464 119.784ZM103.95 131.555C100.393 135.051 95.9072 137.945 90.393 140.183L94.1539 149.449C100.714 146.787 106.349 143.218 110.959 138.688L103.95 131.555ZM90.393 140.183C85.0719 142.343 78.72 143.491 71.233 143.491V153.491C79.726 153.491 87.4011 152.19 94.1539 149.449L90.393 140.183ZM71.233 143.491C61.9574 143.491 53.8046 141.508 46.6562 137.647L41.9035 146.445C50.6642 151.178 60.4801 153.491 71.233 153.491V143.491ZM46.6644 137.651C39.6336 133.837 34.0349 128.225 29.8517 120.663L21.1014 125.503C26.1512 134.632 33.088 141.662 41.8952 146.441L46.6644 137.651ZM29.8596 120.677C25.7779 113.241 23.6051 103.908 23.6051 92.4545H13.6051C13.6051 105.149 16.0133 116.235 21.0935 125.489L29.8596 120.677ZM23.6051 92.4545C23.6051 80.9401 25.827 71.6114 29.9913 64.2293L21.2815 59.3161C16.0707 68.5533 13.6051 79.6792 13.6051 92.4545H23.6051ZM29.9957 64.2214C34.2467 56.6533 39.8967 51.0545 46.9605 47.2703L42.2383 38.4555C33.3931 43.194 26.401 50.2018 21.277 59.3241L29.9957 64.2214ZM46.9758 47.2621C54.1399 43.3922 62.19 41.4176 71.233 41.4176V31.4176C60.6737 31.4176 50.9681 33.7399 42.2231 38.4637L46.9758 47.2621ZM71.233 41.4176C77.6653 41.4176 83.4751 42.2958 88.7032 43.9957L91.7954 34.4858C85.4468 32.4215 78.579 31.4176 71.233 31.4176V41.4176ZM88.7032 43.9957C93.9347 45.6968 98.4449 48.1556 102.292 51.3459L108.675 43.6484C103.787 39.5944 98.1406 36.549 91.7954 34.4858L88.7032 43.9957ZM102.311 51.3613C106.12 54.4896 109.207 58.3563 111.571 63.0208L120.491 58.5005C117.528 52.6536 113.583 47.6781 108.657 43.633L102.311 51.3613ZM111.571 63.0208C113.901 67.6196 115.373 72.9965 115.895 79.2356L125.86 78.4008C125.247 71.0745 123.487 64.4131 120.491 58.5005L111.571 63.0208ZM141.814 147H136.814V152H141.814V147ZM141.814 37.9091V32.9091H136.814V37.9091H141.814ZM224.325 55.0611L228.596 52.4605L224.325 55.0611ZM224.165 94.745L219.971 92.023L219.965 92.0328L219.959 92.0426L224.165 94.745ZM209.623 106.89L207.619 102.309L207.61 102.313L209.623 106.89ZM159.712 110.991H154.712V115.991H159.712V110.991ZM159.712 87.9801V82.9801H154.712V87.9801H159.712ZM190.767 86.7017L192.409 91.4242L192.429 91.4174L192.449 91.4104L190.767 86.7017ZM196.466 82.4936L192.377 79.6161L192.359 79.6417L192.342 79.6674L196.466 82.4936ZM196.466 67.3658L192.295 70.1221L192.323 70.1653L192.353 70.2079L196.466 67.3658ZM190.767 62.9979L188.945 67.6541L188.985 67.6699L189.026 67.685L190.767 62.9979ZM171.431 61.5597V56.5597H166.431V61.5597H171.431ZM171.431 147V152H176.431V147H171.431ZM205.735 96.929L210.126 94.5373L208.705 91.929H205.735V96.929ZM233.008 147V152H241.425L237.399 144.608L233.008 147ZM200.834 147L196.42 149.348L197.831 152H200.834V147ZM174.201 96.929V91.929H165.878L169.786 99.277L174.201 96.929ZM146.814 147V37.9091H136.814V147H146.814ZM141.814 42.9091H188.903V32.9091H141.814V42.9091ZM188.903 42.9091C196.392 42.9091 202.703 44.2707 207.973 46.8284L212.339 37.8321C205.464 34.495 197.606 32.9091 188.903 32.9091V42.9091ZM207.973 46.8284C213.219 49.3747 217.201 52.9761 220.055 57.6617L228.596 52.4605C224.702 46.0666 219.238 41.1807 212.339 37.8321L207.973 46.8284ZM220.055 57.6617C222.866 62.278 224.385 67.98 224.385 74.9829H234.385C234.385 66.503 232.531 58.9236 228.596 52.4605L220.055 57.6617ZM224.385 74.9829C224.385 82.0453 222.819 87.6351 219.971 92.023L228.359 97.467C232.472 91.1305 234.385 83.5456 234.385 74.9829H224.385ZM219.959 92.0426C217.085 96.516 213.033 99.9408 207.619 102.309L211.628 111.471C218.714 108.37 224.357 103.699 228.372 97.4474L219.959 92.0426ZM207.61 102.313C202.155 104.713 195.605 105.991 187.837 105.991V115.991C196.689 115.991 204.663 114.535 211.637 111.466L207.61 102.313ZM187.837 105.991H159.712V115.991H187.837V105.991ZM164.712 110.991V87.9801H154.712V110.991H164.712ZM159.712 92.9801H181.871V82.9801H159.712V92.9801ZM181.871 92.9801C185.732 92.9801 189.285 92.5109 192.409 91.4242L189.124 81.9792C187.348 82.5971 184.971 82.9801 181.871 82.9801V92.9801ZM192.449 91.4104C195.787 90.2182 198.603 88.2218 200.591 85.3198L192.342 79.6674C191.702 80.6006 190.719 81.4096 189.085 81.993L192.449 91.4104ZM200.555 85.3711C202.66 82.3802 203.491 78.7787 203.491 74.9829H193.491C193.491 77.3662 192.972 78.7718 192.377 79.6161L200.555 85.3711ZM203.491 74.9829C203.491 71.16 202.664 67.5399 200.58 64.5236L192.353 70.2079C192.968 71.0978 193.491 72.5559 193.491 74.9829H203.491ZM200.638 64.6095C198.674 61.6366 195.871 59.5599 192.508 58.3107L189.026 67.685C190.635 68.2825 191.631 69.1177 192.295 70.1221L200.638 64.6095ZM192.589 58.3416C189.404 57.0954 185.785 56.5597 181.871 56.5597V66.5597C184.918 66.5597 187.229 66.9827 188.945 67.6541L192.589 58.3416ZM181.871 56.5597H171.431V66.5597H181.871V56.5597ZM166.431 61.5597V147H176.431V61.5597H166.431ZM171.431 142H141.814V152H171.431V142ZM201.344 99.3206L228.617 149.392L237.399 144.608L210.126 94.5373L201.344 99.3206ZM233.008 142H200.834V152H233.008V142ZM205.249 144.652L178.615 94.5809L169.786 99.277L196.42 149.348L205.249 144.652ZM174.201 101.929H205.735V91.929H174.201V101.929ZM249.51 147H244.51V152H249.51V147ZM249.51 37.9091V32.9091H244.51V37.9091H249.51ZM328.132 37.9091H333.132V32.9091H328.132V37.9091ZM328.132 61.7727V66.7727H333.132V61.7727H328.132ZM279.126 61.7727V56.7727H274.126V61.7727H279.126ZM279.126 80.5227H274.126V85.5227H279.126V80.5227ZM324.084 80.5227H329.084V75.5227H324.084V80.5227ZM324.084 104.386V109.386H329.084V104.386H324.084ZM279.126 104.386V99.3864H274.126V104.386H279.126ZM279.126 123.136H274.126V128.136H279.126V123.136ZM327.919 123.136H332.919V118.136H327.919V123.136ZM327.919 147V152H332.919V147H327.919ZM254.51 147V37.9091H244.51V147H254.51ZM249.51 42.9091H328.132V32.9091H249.51V42.9091ZM323.132 37.9091V61.7727H333.132V37.9091H323.132ZM328.132 56.7727H279.126V66.7727H328.132V56.7727ZM274.126 61.7727V80.5227H284.126V61.7727H274.126ZM279.126 85.5227H324.084V75.5227H279.126V85.5227ZM319.084 80.5227V104.386H329.084V80.5227H319.084ZM324.084 99.3864H279.126V109.386H324.084V99.3864ZM274.126 104.386V123.136H284.126V104.386H274.126ZM279.126 128.136H327.919V118.136H279.126V128.136ZM322.919 123.136V147H332.919V123.136H322.919ZM327.919 142H249.51V152H327.919V142ZM378.658 147V152H382.372L383.445 148.445L378.658 147ZM346.698 147L341.95 145.433L339.782 152H346.698V147ZM382.707 37.9091V32.9091H379.092L377.959 36.3419L382.707 37.9091ZM423.19 37.9091L427.938 36.3419L426.805 32.9091H423.19V37.9091ZM459.198 147V152H466.114L463.946 145.433L459.198 147ZM427.238 147L422.451 148.445L423.525 152H427.238V147ZM403.374 67.9517L408.161 66.5067L407.088 62.9517H403.374V67.9517ZM402.522 67.9517V62.9517H398.809L397.735 66.5067L402.522 67.9517ZM372.692 103.96V98.9602H367.692V103.96H372.692ZM432.778 103.96H437.778V98.9602H432.778V103.96ZM432.778 126.119V131.119H437.778V126.119H432.778ZM372.692 126.119H367.692V131.119H372.692V126.119ZM378.658 142H346.698V152H378.658V142ZM351.446 148.567L387.455 39.4763L377.959 36.3419L341.95 145.433L351.446 148.567ZM382.707 42.9091H423.19V32.9091H382.707V42.9091ZM418.442 39.4763L454.45 148.567L463.946 145.433L427.938 36.3419L418.442 39.4763ZM459.198 142H427.238V152H459.198V142ZM432.025 145.555L408.161 66.5067L398.588 69.3967L422.451 148.445L432.025 145.555ZM403.374 62.9517H402.522V72.9517H403.374V62.9517ZM397.735 66.5067L373.872 145.555L383.445 148.445L407.309 69.3967L397.735 66.5067ZM372.692 108.96H432.778V98.9602H372.692V108.96ZM427.778 103.96V126.119H437.778V103.96H427.778ZM432.778 121.119H372.692V131.119H432.778V121.119ZM377.692 126.119V103.96H367.692V126.119H377.692ZM460.453 61.7727H455.453V66.7727H460.453V61.7727ZM460.453 37.9091V32.9091H455.453V37.9091H460.453ZM555.268 37.9091H560.268V32.9091H555.268V37.9091ZM555.268 61.7727V66.7727H560.268V61.7727H555.268ZM522.455 61.7727V56.7727H517.455V61.7727H522.455ZM522.455 147V152H527.455V147H522.455ZM493.265 147H488.265V152H493.265V147ZM493.265 61.7727H498.265V56.7727H493.265V61.7727ZM465.453 61.7727V37.9091H455.453V61.7727H465.453ZM460.453 42.9091H555.268V32.9091H460.453V42.9091ZM550.268 37.9091V61.7727H560.268V37.9091H550.268ZM555.268 56.7727H522.455V66.7727H555.268V56.7727ZM517.455 61.7727V147H527.455V61.7727H517.455ZM522.455 142H493.265V152H522.455V142ZM498.265 147V61.7727H488.265V147H498.265ZM493.265 56.7727H460.453V66.7727H493.265V56.7727ZM573.914 147H568.914V152H573.914V147ZM573.914 37.9091V32.9091H568.914V37.9091H573.914ZM652.536 37.9091H657.536V32.9091H652.536V37.9091ZM652.536 61.7727V66.7727H657.536V61.7727H652.536ZM603.531 61.7727V56.7727H598.531V61.7727H603.531ZM603.531 80.5227H598.531V85.5227H603.531V80.5227ZM648.488 80.5227H653.488V75.5227H648.488V80.5227ZM648.488 104.386V109.386H653.488V104.386H648.488ZM603.531 104.386V99.3864H598.531V104.386H603.531ZM603.531 123.136H598.531V128.136H603.531V123.136ZM652.323 123.136H657.323V118.136H652.323V123.136ZM652.323 147V152H657.323V147H652.323ZM578.914 147V37.9091H568.914V147H578.914ZM573.914 42.9091H652.536V32.9091H573.914V42.9091ZM647.536 37.9091V61.7727H657.536V37.9091H647.536ZM652.536 56.7727H603.531V66.7727H652.536V56.7727ZM598.531 61.7727V80.5227H608.531V61.7727H598.531ZM603.531 85.5227H648.488V75.5227H603.531V85.5227ZM643.488 80.5227V104.386H653.488V80.5227H643.488ZM648.488 99.3864H603.531V109.386H648.488V99.3864ZM598.531 104.386V123.136H608.531V104.386H598.531ZM603.531 128.136H652.323V118.136H603.531V128.136ZM647.323 123.136V147H657.323V123.136H647.323ZM652.323 142H573.914V152H652.323V142ZM16.0483 243.773H11.0483V248.773H16.0483V243.773ZM16.0483 219.909V214.909H11.0483V219.909H16.0483ZM110.864 219.909H115.864V214.909H110.864V219.909ZM110.864 243.773V248.773H115.864V243.773H110.864ZM78.0511 243.773V238.773H73.0511V243.773H78.0511ZM78.0511 329V334H83.0511V329H78.0511ZM48.8608 329H43.8608V334H48.8608V329ZM48.8608 243.773H53.8608V238.773H48.8608V243.773ZM21.0483 243.773V219.909H11.0483V243.773H21.0483ZM16.0483 224.909H110.864V214.909H16.0483V224.909ZM105.864 219.909V243.773H115.864V219.909H105.864ZM110.864 238.773H78.0511V248.773H110.864V238.773ZM73.0511 243.773V329H83.0511V243.773H73.0511ZM78.0511 324H48.8608V334H78.0511V324ZM53.8608 329V243.773H43.8608V329H53.8608ZM48.8608 238.773H16.0483V248.773H48.8608V238.773ZM129.51 329H124.51V334H129.51V329ZM129.51 219.909V214.909H124.51V219.909H129.51ZM159.126 219.909H164.126V214.909H159.126V219.909ZM159.126 262.523H154.126V267.523H159.126V262.523ZM198.331 262.523V267.523H203.331V262.523H198.331ZM198.331 219.909V214.909H193.331V219.909H198.331ZM227.947 219.909H232.947V214.909H227.947V219.909ZM227.947 329V334H232.947V329H227.947ZM198.331 329H193.331V334H198.331V329ZM198.331 286.386H203.331V281.386H198.331V286.386ZM159.126 286.386V281.386H154.126V286.386H159.126ZM159.126 329V334H164.126V329H159.126ZM134.51 329V219.909H124.51V329H134.51ZM129.51 224.909H159.126V214.909H129.51V224.909ZM154.126 219.909V262.523H164.126V219.909H154.126ZM159.126 267.523H198.331V257.523H159.126V267.523ZM203.331 262.523V219.909H193.331V262.523H203.331ZM198.331 224.909H227.947V214.909H198.331V224.909ZM222.947 219.909V329H232.947V219.909H222.947ZM227.947 324H198.331V334H227.947V324ZM203.331 329V286.386H193.331V329H203.331ZM198.331 281.386H159.126V291.386H198.331V281.386ZM154.126 286.386V329H164.126V286.386H154.126ZM159.126 324H129.51V334H159.126V324ZM249.51 329H244.51V334H249.51V329ZM249.51 219.909V214.909H244.51V219.909H249.51ZM328.132 219.909H333.132V214.909H328.132V219.909ZM328.132 243.773V248.773H333.132V243.773H328.132ZM279.126 243.773V238.773H274.126V243.773H279.126ZM279.126 262.523H274.126V267.523H279.126V262.523ZM324.084 262.523H329.084V257.523H324.084V262.523ZM324.084 286.386V291.386H329.084V286.386H324.084ZM279.126 286.386V281.386H274.126V286.386H279.126ZM279.126 305.136H274.126V310.136H279.126V305.136ZM327.919 305.136H332.919V300.136H327.919V305.136ZM327.919 329V334H332.919V329H327.919ZM254.51 329V219.909H244.51V329H254.51ZM249.51 224.909H328.132V214.909H249.51V224.909ZM323.132 219.909V243.773H333.132V219.909H323.132ZM328.132 238.773H279.126V248.773H328.132V238.773ZM274.126 243.773V262.523H284.126V243.773H274.126ZM279.126 267.523H324.084V257.523H279.126V267.523ZM319.084 262.523V286.386H329.084V262.523H319.084ZM324.084 281.386H279.126V291.386H324.084V281.386ZM274.126 286.386V305.136H284.126V286.386H274.126ZM279.126 310.136H327.919V300.136H279.126V310.136ZM322.919 305.136V329H332.919V305.136H322.919ZM327.919 324H249.51V334H327.919V324ZM387.703 329H382.703V334H387.703V329ZM387.703 219.909V214.909H382.703V219.909H387.703ZM455.938 223.265L454.096 227.913L454.106 227.917L455.938 223.265ZM468.776 232.746L464.688 235.626L464.696 235.637L464.705 235.649L468.776 232.746ZM470.48 258.155L466.076 255.787L466.066 255.806L466.057 255.824L470.48 258.155ZM463.129 266.464L465.987 270.567L466.003 270.556L466.018 270.546L463.129 266.464ZM452.05 271.045L451.061 266.144L447.05 266.953V271.045H452.05ZM452.05 272.111H447.05V276.925L451.86 277.107L452.05 272.111ZM464.834 275.68L462.344 280.016L462.36 280.025L462.375 280.033L464.834 275.68ZM473.996 284.682L469.694 287.231L469.699 287.24L469.705 287.248L473.996 284.682ZM472.717 314.032L468.567 311.244L468.56 311.255L468.552 311.266L472.717 314.032ZM459.507 325.005L457.396 320.473L459.507 325.005ZM417.32 305.349H412.32V310.349H417.32V305.349ZM442.355 302.58L445.337 306.593L445.355 306.58L445.373 306.566L442.355 302.58ZM439.319 283.723L437.331 288.311L437.345 288.317L437.358 288.323L439.319 283.723ZM417.32 282.338V277.338H412.32V282.338H417.32ZM417.32 264.014H412.32V269.014H417.32V264.014ZM436.336 262.789L438.236 267.414L436.336 262.789ZM440.97 259.273L436.926 256.333L436.92 256.341L436.914 256.349L440.97 259.273ZM439.053 245.85L436.053 249.85L436.072 249.864L436.091 249.878L439.053 245.85ZM417.32 243.134V238.134H412.32V243.134H417.32ZM392.703 329V219.909H382.703V329H392.703ZM387.703 224.909H435.004V214.909H387.703V224.909ZM435.004 224.909C442.9 224.909 449.209 225.977 454.096 227.913L457.78 218.617C451.375 216.079 443.728 214.909 435.004 214.909V224.909ZM454.106 227.917C459.083 229.877 462.488 232.503 464.688 235.626L472.863 229.867C469.31 224.823 464.157 221.127 457.77 218.613L454.106 227.917ZM464.705 235.649C466.949 238.797 468.143 242.569 468.143 247.182H478.143C478.143 240.715 476.426 234.863 472.847 229.844L464.705 235.649ZM468.143 247.182C468.143 250.428 467.433 253.263 466.076 255.787L474.884 260.522C477.078 256.441 478.143 251.961 478.143 247.182H468.143ZM466.057 255.824C464.697 258.404 462.784 260.583 460.24 262.383L466.018 270.546C469.796 267.871 472.783 264.51 474.904 260.486L466.057 255.824ZM460.271 262.362C457.736 264.128 454.696 265.411 451.061 266.144L453.038 275.947C457.855 274.975 462.201 273.204 465.987 270.567L460.271 262.362ZM447.05 271.045V272.111H457.05V271.045H447.05ZM451.86 277.107C455.79 277.256 459.254 278.242 462.344 280.016L467.323 271.343C462.743 268.714 457.685 267.321 452.239 267.114L451.86 277.107ZM462.375 280.033C465.439 281.764 467.862 284.138 469.694 287.231L478.297 282.133C475.584 277.555 471.899 273.928 467.293 271.326L462.375 280.033ZM469.705 287.248C471.442 290.154 472.405 293.71 472.405 298.105H482.405C482.405 292.201 481.095 286.81 478.287 282.115L469.705 287.248ZM472.405 298.105C472.405 303.145 471.102 307.47 468.567 311.244L476.868 316.82C480.583 311.289 482.405 304.997 482.405 298.105H472.405ZM468.552 311.266C466.035 315.056 462.39 318.146 457.396 320.473L461.618 329.537C468.059 326.537 473.22 322.312 476.882 316.798L468.552 311.266ZM457.396 320.473C452.486 322.76 446.423 324 439.053 324V334C447.52 334 455.093 332.577 461.618 329.537L457.396 320.473ZM439.053 324H387.703V334H439.053V324ZM417.32 310.349H431.169V300.349H417.32V310.349ZM431.169 310.349C436.614 310.349 441.607 309.364 445.337 306.593L439.374 298.566C438.132 299.488 435.667 300.349 431.169 300.349V310.349ZM445.373 306.566C449.333 303.568 451.084 299.187 451.084 294.27H441.084C441.084 296.668 440.349 297.827 439.337 298.593L445.373 306.566ZM451.084 294.27C451.084 290.934 450.311 287.762 448.499 285.017L440.153 290.526C440.685 291.331 441.084 292.492 441.084 294.27H451.084ZM448.499 285.017C446.73 282.336 444.248 280.389 441.279 279.123L437.358 288.323C438.722 288.904 439.579 289.655 440.153 290.526L448.499 285.017ZM441.307 279.135C438.391 277.872 435.102 277.338 431.595 277.338V287.338C434.126 287.338 435.986 287.728 437.331 288.311L441.307 279.135ZM431.595 277.338H417.32V287.338H431.595V277.338ZM412.32 282.338V305.349H422.32V282.338H412.32ZM417.32 269.014H429.464V259.014H417.32V269.014ZM429.464 269.014C432.577 269.014 435.534 268.524 438.236 267.414L434.436 258.164C433.161 258.688 431.536 259.014 429.464 259.014V269.014ZM438.236 267.414C440.962 266.294 443.305 264.585 445.026 262.197L436.914 256.349C436.434 257.016 435.687 257.65 434.436 258.164L438.236 267.414ZM445.014 262.214C446.866 259.667 447.675 256.695 447.675 253.574H437.675C437.675 254.927 437.347 255.755 436.926 256.333L445.014 262.214ZM447.675 253.574C447.675 248.84 445.885 244.668 442.014 241.822L436.091 249.878C437.05 250.583 437.675 251.561 437.675 253.574H447.675ZM442.053 241.85C438.593 239.256 434.418 238.134 429.891 238.134V248.134C432.749 248.134 434.682 248.822 436.053 249.85L442.053 241.85ZM429.891 238.134H417.32V248.134H429.891V238.134ZM412.32 243.134V264.014H422.32V243.134H412.32ZM495.398 329H490.398V334H495.398V329ZM495.398 219.909V214.909H490.398V219.909H495.398ZM574.021 219.909H579.021V214.909H574.021V219.909ZM574.021 243.773V248.773H579.021V243.773H574.021ZM525.015 243.773V238.773H520.015V243.773H525.015ZM525.015 262.523H520.015V267.523H525.015V262.523ZM569.972 262.523H574.972V257.523H569.972V262.523ZM569.972 286.386V291.386H574.972V286.386H569.972ZM525.015 286.386V281.386H520.015V286.386H525.015ZM525.015 305.136H520.015V310.136H525.015V305.136ZM573.808 305.136H578.808V300.136H573.808V305.136ZM573.808 329V334H578.808V329H573.808ZM500.398 329V219.909H490.398V329H500.398ZM495.398 224.909H574.021V214.909H495.398V224.909ZM569.021 219.909V243.773H579.021V219.909H569.021ZM574.021 238.773H525.015V248.773H574.021V238.773ZM520.015 243.773V262.523H530.015V243.773H520.015ZM525.015 267.523H569.972V257.523H525.015V267.523ZM564.972 262.523V286.386H574.972V262.523H564.972ZM569.972 281.386H525.015V291.386H569.972V281.386ZM520.015 286.386V305.136H530.015V286.386H520.015ZM525.015 310.136H573.808V300.136H525.015V310.136ZM568.808 305.136V329H578.808V305.136H568.808ZM573.808 324H495.398V334H573.808V324ZM624.547 329V334H628.26L629.334 330.445L624.547 329ZM592.587 329L587.839 327.433L585.671 334H592.587V329ZM628.595 219.909V214.909H624.98L623.847 218.342L628.595 219.909ZM669.078 219.909L673.826 218.342L672.693 214.909H669.078V219.909ZM705.087 329V334H712.003L709.835 327.433L705.087 329ZM673.127 329L668.34 330.445L669.413 334H673.127V329ZM649.263 249.952L654.05 248.507L652.976 244.952H649.263V249.952ZM648.411 249.952V244.952H644.697L643.624 248.507L648.411 249.952ZM618.581 285.96V280.96H613.581V285.96H618.581ZM678.666 285.96H683.666V280.96H678.666V285.96ZM678.666 308.119V313.119H683.666V308.119H678.666ZM618.581 308.119H613.581V313.119H618.581V308.119ZM624.547 324H592.587V334H624.547V324ZM597.335 330.567L633.343 221.476L623.847 218.342L587.839 327.433L597.335 330.567ZM628.595 224.909H669.078V214.909H628.595V224.909ZM664.33 221.476L700.339 330.567L709.835 327.433L673.826 218.342L664.33 221.476ZM705.087 324H673.127V334H705.087V324ZM677.913 327.555L654.05 248.507L644.476 251.397L668.34 330.445L677.913 327.555ZM649.263 244.952H648.411V254.952H649.263V244.952ZM643.624 248.507L619.76 327.555L629.334 330.445L653.197 251.397L643.624 248.507ZM618.581 290.96H678.666V280.96H618.581V290.96ZM673.666 285.96V308.119H683.666V285.96H673.666ZM678.666 303.119H618.581V313.119H678.666V303.119ZM623.581 308.119V285.96H613.581V308.119H623.581ZM706.341 243.773H701.341V248.773H706.341V243.773ZM706.341 219.909V214.909H701.341V219.909H706.341ZM801.157 219.909H806.157V214.909H801.157V219.909ZM801.157 243.773V248.773H806.157V243.773H801.157ZM768.344 243.773V238.773H763.344V243.773H768.344ZM768.344 329V334H773.344V329H768.344ZM739.154 329H734.154V334H739.154V329ZM739.154 243.773H744.154V238.773H739.154V243.773ZM711.341 243.773V219.909H701.341V243.773H711.341ZM706.341 224.909H801.157V214.909H706.341V224.909ZM796.157 219.909V243.773H806.157V219.909H796.157ZM801.157 238.773H768.344V248.773H801.157V238.773ZM763.344 243.773V329H773.344V243.773H763.344ZM768.344 324H739.154V334H768.344V324ZM744.154 329V243.773H734.154V329H744.154ZM739.154 238.773H706.341V248.773H739.154V238.773ZM820.482 326.39L816.946 329.925L816.968 329.947L816.99 329.968L820.482 326.39ZM816.167 315.79L821.167 315.833L821.167 315.789L821.167 315.746L816.167 315.79ZM820.482 305.403L816.99 301.824L816.979 301.835L816.968 301.846L820.482 305.403ZM841.416 305.403L837.945 309.002L837.956 309.012L837.966 309.022L841.416 305.403ZM845.997 315.79L850.996 315.854L850.997 315.8L850.997 315.746L845.997 315.79ZM843.813 323.354L839.573 320.704L839.567 320.713L839.562 320.722L843.813 323.354ZM838.38 328.734L840.912 333.045L840.937 333.03L840.962 333.015L838.38 328.734ZM831.082 325.705C828.267 325.705 825.987 324.776 823.974 322.812L816.99 329.968C820.871 333.756 825.658 335.705 831.082 335.705V325.705ZM824.017 322.854C822.063 320.9 821.143 318.66 821.167 315.833L811.167 315.747C811.121 321.229 813.077 326.056 816.946 329.925L824.017 322.854ZM821.167 315.746C821.144 313.066 822.034 310.898 823.996 308.96L816.968 301.846C813.106 305.66 811.12 310.417 811.167 315.834L821.167 315.746ZM823.974 308.981C825.987 307.016 828.267 306.088 831.082 306.088V296.088C825.658 296.088 820.871 298.036 816.99 301.824L823.974 308.981ZM831.082 306.088C833.609 306.088 835.832 306.964 837.945 309.002L844.887 301.803C841.034 298.089 836.367 296.088 831.082 296.088V306.088ZM837.966 309.022C840.039 310.997 840.974 313.183 840.997 315.834L850.997 315.746C850.949 310.3 848.83 305.561 844.865 301.783L837.966 309.022ZM840.997 315.726C840.973 317.613 840.491 319.234 839.573 320.704L848.053 326.004C849.975 322.928 850.95 319.507 850.996 315.854L840.997 315.726ZM839.562 320.722C838.591 322.29 837.35 323.516 835.797 324.452L840.962 333.015C843.884 331.253 846.265 328.892 848.064 325.985L839.562 320.722ZM835.848 324.422C834.388 325.279 832.832 325.705 831.082 325.705V335.705C834.588 335.705 837.897 334.816 840.912 333.045L835.848 324.422Z" fill="white" mask="url(#path-2-outside-1_204_3)"/>
</g>
</svg>
