<svg width="583" height="49" viewBox="0 0 583 49" fill="none" xmlns="http://www.w3.org/2000/svg">
<mask id="mask0_460_11" style="mask-type:alpha" maskUnits="userSpaceOnUse" x="0" y="0" width="583" height="49">
<rect width="583" height="49" fill="#ED6C6C"/>
</mask>
<g mask="url(#mask0_460_11)">
<mask id="path-2-outside-1_460_11" maskUnits="userSpaceOnUse" x="4" y="3" width="573" height="45" fill="black">
<rect fill="white" x="4" y="3" width="573" height="45"/>
<path d="M18.7981 45H7.50551L20.2285 6.45454H34.5325L47.2555 45H35.9629L27.5311 17.0696H27.2299L18.7981 45ZM16.6902 29.7926H37.9203V37.6222H16.6902V29.7926ZM81.6575 45H66.8266V6.45454H81.507C85.4719 6.45454 88.8973 7.22621 91.7832 8.76953C94.6817 10.3003 96.9151 12.5086 98.4835 15.3945C100.064 18.2679 100.855 21.7121 100.855 25.7273C100.855 29.7424 100.071 33.1929 98.5023 36.0788C96.9339 38.9522 94.713 41.1605 91.8397 42.7038C88.9664 44.2346 85.5723 45 81.6575 45ZM77.291 36.1165H81.2811C83.1883 36.1165 84.8132 35.8091 86.1557 35.1942C87.5109 34.5794 88.5397 33.5192 89.2424 32.0135C89.9576 30.5078 90.3152 28.4124 90.3152 25.7273C90.3152 23.0421 89.9513 20.9467 89.2236 19.441C88.5084 17.9354 87.4544 16.8751 86.0616 16.2603C84.6814 15.6455 82.9875 15.3381 80.98 15.3381H77.291V36.1165ZM108.347 45V6.45454H136.127V14.8864H118.811V21.5114H134.696V29.9432H118.811V36.5682H136.051V45H108.347ZM143.966 45V6.45454H154.431V36.5682H170.015V45H143.966ZM187.359 6.45454V45H176.895V6.45454H187.359ZM220 19.1776C219.837 18.5125 219.58 17.9291 219.229 17.4272C218.878 16.9128 218.438 16.4799 217.911 16.1286C217.397 15.7647 216.795 15.4949 216.105 15.3192C215.427 15.131 214.68 15.0369 213.865 15.0369C212.108 15.0369 210.609 15.4573 209.367 16.2979C208.137 17.1386 207.196 18.3494 206.543 19.9304C205.904 21.5114 205.584 23.4186 205.584 25.652C205.584 27.9105 205.891 29.8428 206.506 31.4489C207.121 33.0549 208.037 34.2846 209.254 35.1378C210.471 35.991 211.983 36.4176 213.79 36.4176C215.383 36.4176 216.707 36.1855 217.761 35.7212C218.827 35.257 219.624 34.5982 220.151 33.745C220.678 32.8918 220.942 31.888 220.942 30.7337L222.748 30.9219H213.94V23.4688H231.03V28.8139C231.03 32.3272 230.283 35.3323 228.79 37.8292C227.309 40.3136 225.264 42.2208 222.654 43.5508C220.057 44.8683 217.077 45.527 213.714 45.527C209.963 45.527 206.669 44.7302 203.833 43.1367C200.998 41.5432 198.783 39.2721 197.189 36.3235C195.608 33.3749 194.818 29.8679 194.818 25.8026C194.818 22.6155 195.301 19.7924 196.267 17.3331C197.246 14.8738 198.601 12.7972 200.333 11.1033C202.064 9.3969 204.065 8.11079 206.336 7.24503C208.608 6.36671 211.042 5.92756 213.639 5.92756C215.923 5.92756 218.043 6.25379 220 6.90625C221.97 7.54616 223.708 8.46212 225.214 9.65412C226.732 10.8336 227.956 12.2326 228.884 13.8512C229.813 15.4698 230.377 17.2453 230.578 19.1776H220ZM238.559 45V6.45454H249.023V21.5114H262.876V6.45454H273.34V45H262.876V29.9432H249.023V45H238.559ZM279.905 14.8864V6.45454H313.406V14.8864H301.813V45H291.499V14.8864H279.905ZM332.149 14.8864V6.45454H365.651V14.8864H354.057V45H343.743V14.8864H332.149ZM407.768 25.7273C407.768 30.0185 406.934 33.6384 405.265 36.587C403.596 39.5231 401.344 41.7502 398.508 43.2685C395.673 44.7741 392.511 45.527 389.023 45.527C385.509 45.527 382.335 44.7679 379.499 43.2496C376.676 41.7189 374.43 39.4854 372.761 36.5494C371.105 33.6007 370.277 29.9934 370.277 25.7273C370.277 21.4361 371.105 17.8224 372.761 14.8864C374.43 11.9377 376.676 9.71058 379.499 8.2049C382.335 6.68667 385.509 5.92756 389.023 5.92756C392.511 5.92756 395.673 6.68667 398.508 8.2049C401.344 9.71058 403.596 11.9377 405.265 14.8864C406.934 17.8224 407.768 21.4361 407.768 25.7273ZM397.003 25.7273C397.003 23.4186 396.695 21.4737 396.081 19.8928C395.478 18.2992 394.581 17.0947 393.389 16.2791C392.21 15.451 390.754 15.0369 389.023 15.0369C387.291 15.0369 385.829 15.451 384.637 16.2791C383.458 17.0947 382.561 18.2992 381.946 19.8928C381.344 21.4737 381.043 23.4186 381.043 25.7273C381.043 28.036 381.344 29.9871 381.946 31.5806C382.561 33.1616 383.458 34.3661 384.637 35.1942C385.829 36.0098 387.291 36.4176 389.023 36.4176C390.754 36.4176 392.21 36.0098 393.389 35.1942C394.581 34.3661 395.478 33.1616 396.081 31.5806C396.695 29.9871 397.003 28.036 397.003 25.7273Z"/>
<path d="M428.469 45V6.45454H456.249V14.8864H438.933V21.5114H454.818V29.9432H438.933V36.5682H456.173V45H428.469ZM462.508 6.45454H474.177L481.705 22.1136H482.006L489.535 6.45454H501.204L487.05 32.8793V45H476.661V32.8793L462.508 6.45454ZM507.265 45V6.45454H535.045V14.8864H517.729V21.5114H533.614V29.9432H517.729V36.5682H534.969V45H507.265ZM563.663 18.5C563.563 17.2453 563.092 16.2666 562.251 15.5639C561.423 14.8613 560.162 14.5099 558.468 14.5099C557.389 14.5099 556.505 14.6417 555.815 14.9052C555.137 15.1561 554.635 15.5012 554.309 15.9403C553.983 16.3795 553.813 16.8814 553.801 17.446C553.776 17.9103 553.857 18.3306 554.045 18.707C554.246 19.0709 554.56 19.4034 554.986 19.7045C555.413 19.9931 555.959 20.2566 556.624 20.495C557.289 20.7334 558.079 20.9467 558.995 21.1349L562.157 21.8125C564.29 22.2642 566.116 22.8602 567.634 23.6005C569.152 24.3408 570.395 25.2128 571.361 26.2166C572.327 27.2079 573.036 28.3246 573.488 29.5668C573.952 30.8089 574.19 32.1641 574.203 33.6321C574.19 36.1667 573.557 38.3123 572.302 40.0689C571.047 41.8255 569.253 43.1618 566.919 44.0778C564.598 44.9937 561.806 45.4517 558.544 45.4517C555.194 45.4517 552.27 44.9561 549.773 43.9648C547.289 42.9736 545.356 41.4491 543.976 39.3913C542.609 37.321 541.918 34.6735 541.906 31.4489H551.843C551.906 32.6283 552.201 33.6196 552.728 34.4226C553.255 35.2256 553.995 35.8342 554.949 36.2482C555.915 36.6623 557.063 36.8693 558.393 36.8693C559.51 36.8693 560.445 36.7313 561.197 36.4553C561.95 36.1792 562.521 35.7965 562.91 35.3072C563.299 34.8178 563.5 34.2595 563.512 33.6321C563.5 33.0424 563.305 32.5279 562.929 32.0888C562.565 31.6371 561.963 31.2356 561.122 30.8842C560.281 30.5204 559.146 30.1816 557.716 29.8679L553.876 29.0398C550.463 28.2995 547.772 27.0636 545.802 25.332C543.844 23.5879 542.872 21.2102 542.885 18.1989C542.872 15.7521 543.524 13.6128 544.842 11.7809C546.172 9.93643 548.01 8.49976 550.357 7.47088C552.715 6.442 555.419 5.92756 558.468 5.92756C561.58 5.92756 564.272 6.44827 566.543 7.4897C568.814 8.53113 570.564 9.99917 571.794 11.8938C573.036 13.7759 573.663 15.978 573.676 18.5H563.663Z"/>
</mask>
<path d="M428.469 45V6.45454H456.249V14.8864H438.933V21.5114H454.818V29.9432H438.933V36.5682H456.173V45H428.469ZM462.508 6.45454H474.177L481.705 22.1136H482.006L489.535 6.45454H501.204L487.05 32.8793V45H476.661V32.8793L462.508 6.45454ZM507.265 45V6.45454H535.045V14.8864H517.729V21.5114H533.614V29.9432H517.729V36.5682H534.969V45H507.265ZM563.663 18.5C563.563 17.2453 563.092 16.2666 562.251 15.5639C561.423 14.8613 560.162 14.5099 558.468 14.5099C557.389 14.5099 556.505 14.6417 555.815 14.9052C555.137 15.1561 554.635 15.5012 554.309 15.9403C553.983 16.3795 553.813 16.8814 553.801 17.446C553.776 17.9103 553.857 18.3306 554.045 18.707C554.246 19.0709 554.56 19.4034 554.986 19.7045C555.413 19.9931 555.959 20.2566 556.624 20.495C557.289 20.7334 558.079 20.9467 558.995 21.1349L562.157 21.8125C564.29 22.2642 566.116 22.8602 567.634 23.6005C569.152 24.3408 570.395 25.2128 571.361 26.2166C572.327 27.2079 573.036 28.3246 573.488 29.5668C573.952 30.8089 574.19 32.1641 574.203 33.6321C574.19 36.1667 573.557 38.3123 572.302 40.0689C571.047 41.8255 569.253 43.1618 566.919 44.0778C564.598 44.9937 561.806 45.4517 558.544 45.4517C555.194 45.4517 552.27 44.9561 549.773 43.9648C547.289 42.9736 545.356 41.4491 543.976 39.3913C542.609 37.321 541.918 34.6735 541.906 31.4489H551.843C551.906 32.6283 552.201 33.6196 552.728 34.4226C553.255 35.2256 553.995 35.8342 554.949 36.2482C555.915 36.6623 557.063 36.8693 558.393 36.8693C559.51 36.8693 560.445 36.7313 561.197 36.4553C561.95 36.1792 562.521 35.7965 562.91 35.3072C563.299 34.8178 563.5 34.2595 563.512 33.6321C563.5 33.0424 563.305 32.5279 562.929 32.0888C562.565 31.6371 561.963 31.2356 561.122 30.8842C560.281 30.5204 559.146 30.1816 557.716 29.8679L553.876 29.0398C550.463 28.2995 547.772 27.0636 545.802 25.332C543.844 23.5879 542.872 21.2102 542.885 18.1989C542.872 15.7521 543.524 13.6128 544.842 11.7809C546.172 9.93643 548.01 8.49976 550.357 7.47088C552.715 6.442 555.419 5.92756 558.468 5.92756C561.58 5.92756 564.272 6.44827 566.543 7.4897C568.814 8.53113 570.564 9.99917 571.794 11.8938C573.036 13.7759 573.663 15.978 573.676 18.5H563.663Z" fill="white"/>
<path d="M18.7981 45V47H20.2835L20.7128 45.578L18.7981 45ZM7.50551 45L5.60629 44.3731L4.73921 47H7.50551V45ZM20.2285 6.45454V4.45454H18.7825L18.3293 5.82766L20.2285 6.45454ZM34.5325 6.45454L36.4317 5.82766L35.9785 4.45454H34.5325V6.45454ZM47.2555 45V47H50.0218L49.1547 44.3731L47.2555 45ZM35.9629 45L34.0482 45.578L34.4775 47H35.9629V45ZM27.5311 17.0696L29.4457 16.4916L29.0164 15.0696H27.5311V17.0696ZM27.2299 17.0696V15.0696H25.7446L25.3153 16.4916L27.2299 17.0696ZM16.6902 29.7926V27.7926H14.6902V29.7926H16.6902ZM37.9203 29.7926H39.9203V27.7926H37.9203V29.7926ZM37.9203 37.6222V39.6222H39.9203V37.6222H37.9203ZM16.6902 37.6222H14.6902V39.6222H16.6902V37.6222ZM18.7981 43H7.50551V47H18.7981V43ZM9.40472 45.6269L22.1277 7.08143L18.3293 5.82766L5.60629 44.3731L9.40472 45.6269ZM20.2285 8.45454H34.5325V4.45454H20.2285V8.45454ZM32.6333 7.08143L45.3563 45.6269L49.1547 44.3731L36.4317 5.82766L32.6333 7.08143ZM47.2555 43H35.9629V47H47.2555V43ZM37.8775 44.422L29.4457 16.4916L25.6164 17.6476L34.0482 45.578L37.8775 44.422ZM27.5311 15.0696H27.2299V19.0696H27.5311V15.0696ZM25.3153 16.4916L16.8835 44.422L20.7128 45.578L29.1446 17.6476L25.3153 16.4916ZM16.6902 31.7926H37.9203V27.7926H16.6902V31.7926ZM35.9203 29.7926V37.6222H39.9203V29.7926H35.9203ZM37.9203 35.6222H16.6902V39.6222H37.9203V35.6222ZM18.6902 37.6222V29.7926H14.6902V37.6222H18.6902ZM66.8266 45H64.8266V47H66.8266V45ZM66.8266 6.45454V4.45454H64.8266V6.45454H66.8266ZM91.7832 8.76953L90.8401 10.5332L90.8492 10.538L91.7832 8.76953ZM98.4835 15.3945L96.7263 16.3496L96.7312 16.3587L98.4835 15.3945ZM98.5023 36.0788L100.258 37.0371L100.26 37.0339L98.5023 36.0788ZM91.8397 42.7038L92.7801 44.469L92.7861 44.4658L91.8397 42.7038ZM77.291 36.1165H75.291V38.1165H77.291V36.1165ZM86.1557 35.1942L85.3294 33.3729L85.323 33.3759L86.1557 35.1942ZM89.2424 32.0135L87.4358 31.1554L87.43 31.1677L89.2424 32.0135ZM89.2236 19.441L87.417 20.2992L87.4229 20.3114L89.2236 19.441ZM86.0616 16.2603L85.2478 18.0872L85.254 18.09L86.0616 16.2603ZM77.291 15.3381V13.3381H75.291V15.3381H77.291ZM81.6575 43H66.8266V47H81.6575V43ZM68.8266 45V6.45454H64.8266V45H68.8266ZM66.8266 8.45454H81.507V4.45454H66.8266V8.45454ZM81.507 8.45454C85.2119 8.45454 88.2997 9.1746 90.8401 10.5332L92.7264 7.00589C89.495 5.27781 85.7319 4.45454 81.507 4.45454V8.45454ZM90.8492 10.538C93.3983 11.8843 95.3457 13.8093 96.7263 16.3496L100.241 14.4395C98.4845 11.208 95.965 8.7163 92.7173 7.00103L90.8492 10.538ZM96.7312 16.3587C98.1171 18.8773 98.8549 21.9743 98.8549 25.7273H102.855C102.855 21.4499 102.012 17.6584 100.236 14.4304L96.7312 16.3587ZM98.8549 25.7273C98.8549 29.4823 98.1225 32.5894 96.7451 35.1238L100.26 37.0339C102.019 33.7965 102.855 30.0026 102.855 25.7273H98.8549ZM96.7468 35.1206C95.3637 37.6545 93.4233 39.583 90.8933 40.9419L92.7861 44.4658C96.0027 42.738 98.5042 40.2498 100.258 37.0371L96.7468 35.1206ZM90.8993 40.9387C88.3685 42.287 85.3103 43 81.6575 43V47C85.8343 47 89.5641 46.1823 92.7801 44.469L90.8993 40.9387ZM77.291 38.1165H81.2811V34.1165H77.291V38.1165ZM81.2811 38.1165C83.3952 38.1165 85.3201 37.7766 86.9885 37.0126L85.323 33.3759C84.3062 33.8415 82.9814 34.1165 81.2811 34.1165V38.1165ZM86.9821 37.0156C88.823 36.1803 90.1755 34.7434 91.0547 32.8593L87.43 31.1677C86.904 32.2949 86.1987 32.9785 85.3294 33.3729L86.9821 37.0156ZM91.049 32.8716C91.9461 30.9829 92.3152 28.5484 92.3152 25.7273H88.3152C88.3152 28.2764 87.9691 30.0327 87.4358 31.1554L91.049 32.8716ZM92.3152 25.7273C92.3152 22.903 91.9391 20.4635 91.0243 18.5707L87.4229 20.3114C87.9635 21.43 88.3152 23.1813 88.3152 25.7273H92.3152ZM91.0301 18.5829C90.1302 16.6884 88.7435 15.258 86.8693 14.4306L85.254 18.09C86.1652 18.4922 86.8865 19.1824 87.417 20.2992L91.0301 18.5829ZM86.8755 14.4334C85.1697 13.6735 83.1804 13.3381 80.98 13.3381V17.3381C82.7947 17.3381 84.1932 17.6174 85.2478 18.0872L86.8755 14.4334ZM80.98 13.3381H77.291V17.3381H80.98V13.3381ZM75.291 15.3381V36.1165H79.291V15.3381H75.291ZM108.347 45H106.347V47H108.347V45ZM108.347 6.45454V4.45454H106.347V6.45454H108.347ZM136.126 6.45454H138.126V4.45454H136.126V6.45454ZM136.126 14.8864V16.8864H138.126V14.8864H136.126ZM118.811 14.8864V12.8864H116.811V14.8864H118.811ZM118.811 21.5114H116.811V23.5114H118.811V21.5114ZM134.696 21.5114H136.696V19.5114H134.696V21.5114ZM134.696 29.9432V31.9432H136.696V29.9432H134.696ZM118.811 29.9432V27.9432H116.811V29.9432H118.811ZM118.811 36.5682H116.811V38.5682H118.811V36.5682ZM136.051 36.5682H138.051V34.5682H136.051V36.5682ZM136.051 45V47H138.051V45H136.051ZM110.347 45V6.45454H106.347V45H110.347ZM108.347 8.45454H136.126V4.45454H108.347V8.45454ZM134.126 6.45454V14.8864H138.126V6.45454H134.126ZM136.126 12.8864H118.811V16.8864H136.126V12.8864ZM116.811 14.8864V21.5114H120.811V14.8864H116.811ZM118.811 23.5114H134.696V19.5114H118.811V23.5114ZM132.696 21.5114V29.9432H136.696V21.5114H132.696ZM134.696 27.9432H118.811V31.9432H134.696V27.9432ZM116.811 29.9432V36.5682H120.811V29.9432H116.811ZM118.811 38.5682H136.051V34.5682H118.811V38.5682ZM134.051 36.5682V45H138.051V36.5682H134.051ZM136.051 43H108.347V47H136.051V43ZM143.966 45H141.966V47H143.966V45ZM143.966 6.45454V4.45454H141.966V6.45454H143.966ZM154.431 6.45454H156.431V4.45454H154.431V6.45454ZM154.431 36.5682H152.431V38.5682H154.431V36.5682ZM170.015 36.5682H172.015V34.5682H170.015V36.5682ZM170.015 45V47H172.015V45H170.015ZM145.966 45V6.45454H141.966V45H145.966ZM143.966 8.45454H154.431V4.45454H143.966V8.45454ZM152.431 6.45454V36.5682H156.431V6.45454H152.431ZM154.431 38.5682H170.015V34.5682H154.431V38.5682ZM168.015 36.5682V45H172.015V36.5682H168.015ZM170.015 43H143.966V47H170.015V43ZM187.359 6.45454H189.359V4.45454H187.359V6.45454ZM187.359 45V47H189.359V45H187.359ZM176.895 45H174.895V47H176.895V45ZM176.895 6.45454V4.45454H174.895V6.45454H176.895ZM185.359 6.45454V45H189.359V6.45454H185.359ZM187.359 43H176.895V47H187.359V43ZM178.895 45V6.45454H174.895V45H178.895ZM176.895 8.45454H187.359V4.45454H176.895V8.45454ZM220 19.1776L218.058 19.654L218.432 21.1776H220V19.1776ZM219.229 17.4272L217.577 18.5551L217.584 18.5647L217.59 18.5741L219.229 17.4272ZM217.911 16.1286L216.756 17.7614L216.779 17.7773L216.802 17.7927L217.911 16.1286ZM216.105 15.3192L215.569 17.2463L215.59 17.2521L215.611 17.2574L216.105 15.3192ZM209.367 16.2979L208.246 14.6416L208.238 14.6469L209.367 16.2979ZM206.543 19.9304L204.695 19.1674L204.69 19.18L206.543 19.9304ZM206.506 31.4489L204.638 32.1639L206.506 31.4489ZM209.254 35.1378L208.106 36.7755L209.254 35.1378ZM217.761 35.7212L216.963 33.8874L216.955 33.8909L217.761 35.7212ZM220.151 33.745L218.449 32.694L220.151 33.745ZM220.942 30.7337L221.149 28.7444L218.942 28.5145V30.7337H220.942ZM222.748 30.9219V32.9219L222.956 28.9326L222.748 30.9219ZM213.94 30.9219H211.94V32.9219H213.94V30.9219ZM213.94 23.4688V21.4688H211.94V23.4688H213.94ZM231.03 23.4688H233.03V21.4688H231.03V23.4688ZM228.79 37.8292L227.073 36.8027L227.072 36.8053L228.79 37.8292ZM222.654 43.5508L223.559 45.3344L223.562 45.3327L222.654 43.5508ZM203.833 43.1367L202.853 44.8803L203.833 43.1367ZM197.189 36.3235L195.427 37.2686L195.43 37.2744L197.189 36.3235ZM196.267 17.3331L194.409 16.5936L194.406 16.6018L196.267 17.3331ZM200.333 11.1033L201.731 12.533L201.736 12.5278L200.333 11.1033ZM206.336 7.24503L207.049 9.11386L207.058 9.11039L206.336 7.24503ZM220 6.90625L219.368 8.80362L219.375 8.80604L219.383 8.80841L220 6.90625ZM225.214 9.65412L223.973 11.2222L223.98 11.2279L223.987 11.2335L225.214 9.65412ZM228.884 13.8512L230.619 12.856L228.884 13.8512ZM230.578 19.1776V21.1776H232.796L232.567 18.9709L230.578 19.1776ZM221.943 18.7011C221.728 17.8239 221.376 17.0074 220.867 16.2803L217.59 18.5741C217.784 18.8508 217.947 19.2012 218.058 19.654L221.943 18.7011ZM220.88 16.2993C220.382 15.5694 219.758 14.9556 219.021 14.4645L216.802 17.7927C217.119 18.0041 217.373 18.2561 217.577 18.5551L220.88 16.2993ZM219.066 14.4957C218.328 13.9732 217.495 13.6093 216.598 13.3811L215.611 17.2574C216.095 17.3805 216.466 17.5561 216.756 17.7614L219.066 14.4957ZM216.64 13.3922C215.763 13.1486 214.833 13.0369 213.865 13.0369V17.0369C214.528 17.0369 215.091 17.1135 215.569 17.2463L216.64 13.3922ZM213.865 13.0369C211.779 13.0369 209.872 13.5407 208.246 14.6416L210.488 17.9543C211.345 17.3738 212.438 17.0369 213.865 17.0369V13.0369ZM208.238 14.6469C206.641 15.7384 205.473 17.2814 204.695 19.1674L208.392 20.6934C208.919 19.4174 209.633 18.5388 210.495 17.949L208.238 14.6469ZM204.69 19.18C203.928 21.0607 203.584 23.237 203.584 25.652H207.584C207.584 23.6001 207.879 21.9621 208.397 20.6808L204.69 19.18ZM203.584 25.652C203.584 28.0825 203.913 30.2705 204.638 32.1639L208.374 30.7338C207.869 29.4151 207.584 27.7386 207.584 25.652H203.584ZM204.638 32.1639C205.372 34.0823 206.513 35.659 208.106 36.7755L210.402 33.5001C209.56 32.9101 208.869 32.0276 208.374 30.7338L204.638 32.1639ZM208.106 36.7755C209.726 37.9114 211.662 38.4176 213.79 38.4176V34.4176C212.304 34.4176 211.216 34.0706 210.402 33.5001L208.106 36.7755ZM213.79 38.4176C215.561 38.4176 217.181 38.1619 218.567 37.5515L216.955 33.8909C216.232 34.2091 215.205 34.4176 213.79 34.4176V38.4176ZM218.559 37.555C219.938 36.9548 221.079 36.0492 221.853 34.796L218.449 32.694C218.17 33.1473 217.717 33.5591 216.963 33.8874L218.559 37.555ZM221.853 34.796C222.603 33.5816 222.942 32.202 222.942 30.7337H218.942C218.942 31.574 218.753 32.202 218.449 32.694L221.853 34.796ZM220.734 32.7229L222.541 32.9111L222.956 28.9326L221.149 28.7444L220.734 32.7229ZM222.748 28.9219H213.94V32.9219H222.748V28.9219ZM215.94 30.9219V23.4688H211.94V30.9219H215.94ZM213.94 25.4688H231.03V21.4688H213.94V25.4688ZM229.03 23.4688V28.8139H233.03V23.4688H229.03ZM229.03 28.8139C229.03 32.0409 228.346 34.6748 227.073 36.8027L230.506 38.8556C232.22 35.9897 233.03 32.6135 233.03 28.8139H229.03ZM227.072 36.8053C225.787 38.9613 224.025 40.6077 221.746 41.7688L223.562 45.3327C226.504 43.8338 228.832 41.6658 230.508 38.8531L227.072 36.8053ZM221.75 41.7671C219.473 42.9219 216.811 43.527 213.714 43.527V47.527C217.343 47.527 220.641 46.8147 223.559 45.3344L221.75 41.7671ZM213.714 43.527C210.253 43.527 207.306 42.7943 204.813 41.3932L202.853 44.8803C206.032 46.6662 209.673 47.527 213.714 47.527V43.527ZM204.813 41.3932C202.317 39.9907 200.368 37.9993 198.949 35.3726L195.43 37.2744C197.197 40.545 199.678 43.0957 202.853 44.8803L204.813 41.3932ZM198.952 35.3784C197.557 32.7767 196.818 29.6084 196.818 25.8026H192.818C192.818 30.1274 193.66 33.9731 195.427 37.2686L198.952 35.3784ZM196.818 25.8026C196.818 22.8155 197.271 20.2481 198.129 18.0644L194.406 16.6018C193.331 19.3366 192.818 22.4155 192.818 25.8026H196.818ZM198.125 18.0726C199.01 15.8487 200.217 14.014 201.731 12.533L198.934 9.67367C196.985 11.5805 195.481 13.899 194.409 16.5936L198.125 18.0726ZM201.736 12.5278C203.271 11.0157 205.037 9.88094 207.049 9.11384L205.624 5.37621C203.094 6.34065 200.857 7.77807 198.929 9.67884L201.736 12.5278ZM207.058 9.11039C209.084 8.32686 211.272 7.92756 213.639 7.92756V3.92756C210.812 3.92756 208.131 4.40657 205.615 5.37967L207.058 9.11039ZM213.639 7.92756C215.73 7.92756 217.635 8.22598 219.368 8.80362L220.633 5.00888C218.451 4.28159 216.115 3.92756 213.639 3.92756V7.92756ZM219.383 8.80841C221.144 9.38069 222.667 10.1889 223.973 11.2222L226.455 8.08603C224.749 6.73531 222.797 5.71164 220.618 5.00409L219.383 8.80841ZM223.987 11.2335C225.306 12.2581 226.354 13.4606 227.149 14.8464L230.619 12.856C229.557 11.0046 228.158 9.40903 226.441 8.07471L223.987 11.2335ZM227.149 14.8464C227.933 16.2128 228.415 17.718 228.589 19.3842L232.567 18.9709C232.339 16.7725 231.692 14.7268 230.619 12.856L227.149 14.8464ZM230.578 17.1776H220V21.1776H230.578V17.1776ZM238.559 45H236.559V47H238.559V45ZM238.559 6.45454V4.45454H236.559V6.45454H238.559ZM249.023 6.45454H251.023V4.45454H249.023V6.45454ZM249.023 21.5114H247.023V23.5114H249.023V21.5114ZM262.876 21.5114V23.5114H264.876V21.5114H262.876ZM262.876 6.45454V4.45454H260.876V6.45454H262.876ZM273.34 6.45454H275.34V4.45454H273.34V6.45454ZM273.34 45V47H275.34V45H273.34ZM262.876 45H260.876V47H262.876V45ZM262.876 29.9432H264.876V27.9432H262.876V29.9432ZM249.023 29.9432V27.9432H247.023V29.9432H249.023ZM249.023 45V47H251.023V45H249.023ZM240.559 45V6.45454H236.559V45H240.559ZM238.559 8.45454H249.023V4.45454H238.559V8.45454ZM247.023 6.45454V21.5114H251.023V6.45454H247.023ZM249.023 23.5114H262.876V19.5114H249.023V23.5114ZM264.876 21.5114V6.45454H260.876V21.5114H264.876ZM262.876 8.45454H273.34V4.45454H262.876V8.45454ZM271.34 6.45454V45H275.34V6.45454H271.34ZM273.34 43H262.876V47H273.34V43ZM264.876 45V29.9432H260.876V45H264.876ZM262.876 27.9432H249.023V31.9432H262.876V27.9432ZM247.023 29.9432V45H251.023V29.9432H247.023ZM249.023 43H238.559V47H249.023V43ZM279.905 14.8864H277.905V16.8864H279.905V14.8864ZM279.905 6.45454V4.45454H277.905V6.45454H279.905ZM313.406 6.45454H315.406V4.45454H313.406V6.45454ZM313.406 14.8864V16.8864H315.406V14.8864H313.406ZM301.813 14.8864V12.8864H299.813V14.8864H301.813ZM301.813 45V47H303.813V45H301.813ZM291.499 45H289.499V47H291.499V45ZM291.499 14.8864H293.499V12.8864H291.499V14.8864ZM281.905 14.8864V6.45454H277.905V14.8864H281.905ZM279.905 8.45454H313.406V4.45454H279.905V8.45454ZM311.406 6.45454V14.8864H315.406V6.45454H311.406ZM313.406 12.8864H301.813V16.8864H313.406V12.8864ZM299.813 14.8864V45H303.813V14.8864H299.813ZM301.813 43H291.499V47H301.813V43ZM293.499 45V14.8864H289.499V45H293.499ZM291.499 12.8864H279.905V16.8864H291.499V12.8864ZM332.149 14.8864H330.149V16.8864H332.149V14.8864ZM332.149 6.45454V4.45454H330.149V6.45454H332.149ZM365.651 6.45454H367.651V4.45454H365.651V6.45454ZM365.651 14.8864V16.8864H367.651V14.8864H365.651ZM354.057 14.8864V12.8864H352.057V14.8864H354.057ZM354.057 45V47H356.057V45H354.057ZM343.743 45H341.743V47H343.743V45ZM343.743 14.8864H345.743V12.8864H343.743V14.8864ZM334.149 14.8864V6.45454H330.149V14.8864H334.149ZM332.149 8.45454H365.651V4.45454H332.149V8.45454ZM363.651 6.45454V14.8864H367.651V6.45454H363.651ZM365.651 12.8864H354.057V16.8864H365.651V12.8864ZM352.057 14.8864V45H356.057V14.8864H352.057ZM354.057 43H343.743V47H354.057V43ZM345.743 45V14.8864H341.743V45H345.743ZM343.743 12.8864H332.149V16.8864H343.743V12.8864ZM405.265 36.587L407.004 37.5753L407.006 37.5721L405.265 36.587ZM398.508 43.2685L399.446 45.0349L399.452 45.0317L398.508 43.2685ZM379.499 43.2496L378.546 45.0078L378.555 45.0128L379.499 43.2496ZM372.761 36.5494L371.018 37.5288L371.023 37.5376L372.761 36.5494ZM372.761 14.8864L371.021 13.9013L371.019 13.9037L372.761 14.8864ZM379.499 8.2049L380.44 9.96961L380.443 9.96809L379.499 8.2049ZM398.508 8.2049L397.564 9.9681L397.571 9.97133L398.508 8.2049ZM405.265 14.8864L403.525 15.8715L403.526 15.8746L405.265 14.8864ZM396.081 19.8928L394.21 20.5998L394.213 20.6088L394.217 20.6177L396.081 19.8928ZM393.389 16.2791L392.24 17.9159L392.25 17.9229L392.26 17.9297L393.389 16.2791ZM384.637 16.2791L385.775 17.9241L385.779 17.9216L384.637 16.2791ZM381.946 19.8928L380.08 19.1728L380.077 19.1808L381.946 19.8928ZM381.946 31.5806L380.075 32.2877L380.078 32.2966L380.082 32.3055L381.946 31.5806ZM384.637 35.1942L383.488 36.8311L383.498 36.838L383.508 36.8449L384.637 35.1942ZM393.389 35.1942L394.527 36.8393L394.53 36.8368L393.389 35.1942ZM396.081 31.5806L394.215 30.8607L394.212 30.8686L396.081 31.5806ZM405.768 25.7273C405.768 29.7636 404.984 33.0237 403.525 35.6019L407.006 37.5721C408.884 34.2531 409.768 30.2733 409.768 25.7273H405.768ZM403.526 35.5987C402.034 38.2239 400.05 40.1743 397.564 41.5053L399.452 45.0317C402.638 43.3262 405.158 40.8223 407.004 37.5753L403.526 35.5987ZM397.571 41.502C395.048 42.8413 392.213 43.527 389.023 43.527V47.527C392.809 47.527 396.297 46.707 399.446 45.0349L397.571 41.502ZM389.023 43.527C385.808 43.527 382.962 42.8352 380.443 41.4865L378.555 45.0128C381.708 46.7006 385.211 47.527 389.023 47.527V43.527ZM380.453 41.4915C377.975 40.1483 375.994 38.1897 374.5 35.5611L371.023 37.5376C372.866 40.7811 375.377 43.2895 378.546 45.0078L380.453 41.4915ZM374.505 35.5699C373.055 32.9888 372.277 29.7385 372.277 25.7273H368.277C368.277 30.2483 369.155 34.2126 371.018 37.5288L374.505 35.5699ZM372.277 25.7273C372.277 21.6883 373.056 18.4341 374.503 15.869L371.019 13.9037C369.154 17.2108 368.277 21.1839 368.277 25.7273H372.277ZM374.502 15.8715C375.995 13.2329 377.972 11.2859 380.44 9.96961L378.558 6.44019C375.38 8.1353 372.865 10.6425 371.021 13.9013L374.502 15.8715ZM380.443 9.96809C382.962 8.61936 385.808 7.92756 389.023 7.92756V3.92756C385.211 3.92756 381.708 4.75398 378.555 6.44171L380.443 9.96809ZM389.023 7.92756C392.21 7.92756 395.043 8.61825 397.564 9.96809L399.452 6.44171C396.302 4.7551 392.812 3.92756 389.023 3.92756V7.92756ZM397.571 9.97133C400.051 11.2883 402.033 13.2352 403.525 15.8715L407.006 13.9013C405.16 10.6403 402.638 8.13291 399.446 6.43847L397.571 9.97133ZM403.526 15.8746C404.984 18.4385 405.768 21.6905 405.768 25.7273H409.768C409.768 21.1816 408.884 17.2064 407.004 13.8981L403.526 15.8746ZM399.003 25.7273C399.003 23.2543 398.675 21.0469 397.945 19.1679L394.217 20.6177C394.715 21.9005 395.003 23.5828 395.003 25.7273H399.003ZM397.951 19.1857C397.231 17.2796 396.106 15.7145 394.518 14.6285L392.26 17.9297C393.057 18.4749 393.726 19.3188 394.21 20.5998L397.951 19.1857ZM394.538 14.6423C392.959 13.5335 391.081 13.0369 389.023 13.0369V17.0369C390.427 17.0369 391.46 17.3685 392.24 17.9159L394.538 14.6423ZM389.023 13.0369C386.964 13.0369 385.084 13.5337 383.496 14.6366L385.779 17.9216C386.575 17.3683 387.619 17.0369 389.023 17.0369V13.0369ZM383.5 14.6341C381.931 15.7187 380.811 17.2778 380.08 19.1728L383.812 20.6127C384.31 19.3207 384.984 18.4707 385.775 17.9241L383.5 14.6341ZM380.077 19.1808C379.363 21.0555 379.043 23.2581 379.043 25.7273H383.043C383.043 23.579 383.325 21.892 383.815 20.6047L380.077 19.1808ZM379.043 25.7273C379.043 28.1973 379.363 30.4036 380.075 32.2877L383.817 30.8735C383.324 29.5705 383.043 27.8747 383.043 25.7273H379.043ZM380.082 32.3055C380.814 34.1878 381.932 35.7384 383.488 36.8311L385.787 33.5574C384.984 32.9939 384.308 32.1353 383.81 30.8557L380.082 32.3055ZM383.508 36.8449C385.094 37.9301 386.97 38.4176 389.023 38.4176V34.4176C387.613 34.4176 386.565 34.0895 385.767 33.5436L383.508 36.8449ZM389.023 38.4176C391.075 38.4176 392.949 37.9304 394.527 36.8393L392.252 33.5492C391.471 34.0893 390.434 34.4176 389.023 34.4176V38.4176ZM394.53 36.8368C396.105 35.7426 397.228 34.186 397.95 32.2926L394.212 30.8686C393.728 32.1372 393.057 32.9896 392.248 33.5517L394.53 36.8368ZM397.946 32.3005C398.675 30.4122 399.003 28.201 399.003 25.7273H395.003C395.003 27.871 394.716 29.562 394.215 30.8607L397.946 32.3005ZM428.469 45H426.469V47H428.469V45ZM428.469 6.45454V4.45454H426.469V6.45454H428.469ZM456.249 6.45454H458.249V4.45454H456.249V6.45454ZM456.249 14.8864V16.8864H458.249V14.8864H456.249ZM438.933 14.8864V12.8864H436.933V14.8864H438.933ZM438.933 21.5114H436.933V23.5114H438.933V21.5114ZM454.818 21.5114H456.818V19.5114H454.818V21.5114ZM454.818 29.9432V31.9432H456.818V29.9432H454.818ZM438.933 29.9432V27.9432H436.933V29.9432H438.933ZM438.933 36.5682H436.933V38.5682H438.933V36.5682ZM456.173 36.5682H458.173V34.5682H456.173V36.5682ZM456.173 45V47H458.173V45H456.173ZM430.469 45V6.45454H426.469V45H430.469ZM428.469 8.45454H456.249V4.45454H428.469V8.45454ZM454.249 6.45454V14.8864H458.249V6.45454H454.249ZM456.249 12.8864H438.933V16.8864H456.249V12.8864ZM436.933 14.8864V21.5114H440.933V14.8864H436.933ZM438.933 23.5114H454.818V19.5114H438.933V23.5114ZM452.818 21.5114V29.9432H456.818V21.5114H452.818ZM454.818 27.9432H438.933V31.9432H454.818V27.9432ZM436.933 29.9432V36.5682H440.933V29.9432H436.933ZM438.933 38.5682H456.173V34.5682H438.933V38.5682ZM454.173 36.5682V45H458.173V36.5682H454.173ZM456.173 43H428.469V47H456.173V43ZM462.508 6.45454V4.45454H459.167L460.745 7.39885L462.508 6.45454ZM474.177 6.45454L475.979 5.58796L475.434 4.45454H474.177V6.45454ZM481.705 22.1136L479.902 22.9802L480.447 24.1136H481.705V22.1136ZM482.006 22.1136V24.1136H483.264L483.809 22.9802L482.006 22.1136ZM489.535 6.45454V4.45454H488.277L487.732 5.58796L489.535 6.45454ZM501.204 6.45454L502.967 7.39885L504.544 4.45454H501.204V6.45454ZM487.05 32.8793L485.287 31.935L485.05 32.3774V32.8793H487.05ZM487.05 45V47H489.05V45H487.05ZM476.661 45H474.661V47H476.661V45ZM476.661 32.8793H478.661V32.3774L478.424 31.935L476.661 32.8793ZM462.508 8.45454H474.177V4.45454H462.508V8.45454ZM472.374 7.32113L479.902 22.9802L483.508 21.247L475.979 5.58796L472.374 7.32113ZM481.705 24.1136H482.006V20.1136H481.705V24.1136ZM483.809 22.9802L491.337 7.32113L487.732 5.58796L480.204 21.247L483.809 22.9802ZM489.535 8.45454H501.204V4.45454H489.535V8.45454ZM499.441 5.51024L485.287 31.935L488.813 33.8236L502.967 7.39885L499.441 5.51024ZM485.05 32.8793V45H489.05V32.8793H485.05ZM487.05 43H476.661V47H487.05V43ZM478.661 45V32.8793H474.661V45H478.661ZM478.424 31.935L464.271 5.51024L460.745 7.39885L474.898 33.8236L478.424 31.935ZM507.265 45H505.265V47H507.265V45ZM507.265 6.45454V4.45454H505.265V6.45454H507.265ZM535.045 6.45454H537.045V4.45454H535.045V6.45454ZM535.045 14.8864V16.8864H537.045V14.8864H535.045ZM517.729 14.8864V12.8864H515.729V14.8864H517.729ZM517.729 21.5114H515.729V23.5114H517.729V21.5114ZM533.614 21.5114H535.614V19.5114H533.614V21.5114ZM533.614 29.9432V31.9432H535.614V29.9432H533.614ZM517.729 29.9432V27.9432H515.729V29.9432H517.729ZM517.729 36.5682H515.729V38.5682H517.729V36.5682ZM534.969 36.5682H536.969V34.5682H534.969V36.5682ZM534.969 45V47H536.969V45H534.969ZM509.265 45V6.45454H505.265V45H509.265ZM507.265 8.45454H535.045V4.45454H507.265V8.45454ZM533.045 6.45454V14.8864H537.045V6.45454H533.045ZM535.045 12.8864H517.729V16.8864H535.045V12.8864ZM515.729 14.8864V21.5114H519.729V14.8864H515.729ZM517.729 23.5114H533.614V19.5114H517.729V23.5114ZM531.614 21.5114V29.9432H535.614V21.5114H531.614ZM533.614 27.9432H517.729V31.9432H533.614V27.9432ZM515.729 29.9432V36.5682H519.729V29.9432H515.729ZM517.729 38.5682H534.969V34.5682H517.729V38.5682ZM532.969 36.5682V45H536.969V36.5682H532.969ZM534.969 43H507.265V47H534.969V43ZM563.663 18.5L561.669 18.6595L561.817 20.5H563.663V18.5ZM562.251 15.5639L560.957 17.0889L560.963 17.0937L560.969 17.0985L562.251 15.5639ZM555.815 14.9052L556.509 16.7807L556.519 16.7772L556.528 16.7736L555.815 14.9052ZM554.309 15.9403L552.703 14.7477L554.309 15.9403ZM553.801 17.446L555.798 17.554L555.8 17.5222L555.8 17.4905L553.801 17.446ZM554.045 18.707L552.257 19.6015L552.275 19.6377L552.294 19.6732L554.045 18.707ZM554.987 19.7045L553.833 21.3385L553.849 21.35L553.866 21.3611L554.987 19.7045ZM556.624 20.495L555.949 22.3777L556.624 20.495ZM558.995 21.1349L559.414 19.1793L559.406 19.1776L559.398 19.1759L558.995 21.1349ZM562.157 21.8125L561.738 23.7681L561.743 23.7691L562.157 21.8125ZM567.634 23.6005L566.758 25.3982L567.634 23.6005ZM571.361 26.2166L569.92 27.6036L569.929 27.6126L571.361 26.2166ZM573.488 29.5668L571.608 30.2502L571.611 30.2586L571.614 30.2669L573.488 29.5668ZM574.203 33.6321L576.203 33.642L576.203 33.6285L576.203 33.615L574.203 33.6321ZM572.302 40.0689L573.929 41.2314L572.302 40.0689ZM566.919 44.0778L566.188 42.216L566.185 42.2174L566.919 44.0778ZM549.773 43.9648L549.032 45.8224L549.035 45.8237L549.773 43.9648ZM543.976 39.3913L542.307 40.4938L542.315 40.5054L543.976 39.3913ZM541.906 31.4489V29.4489H539.898L539.906 31.4566L541.906 31.4489ZM551.843 31.4489L553.841 31.3426L553.74 29.4489H551.843V31.4489ZM552.728 34.4226L551.056 35.5199L552.728 34.4226ZM554.949 36.2482L554.152 38.0828L554.161 38.0865L554.949 36.2482ZM561.197 36.4553L561.886 38.333L561.197 36.4553ZM562.91 35.3072L564.476 36.5517V36.5517L562.91 35.3072ZM563.512 33.6321L565.512 33.6721L565.513 33.6308L565.512 33.5896L563.512 33.6321ZM562.929 32.0888L561.371 33.3434L561.391 33.3672L561.41 33.3904L562.929 32.0888ZM561.122 30.8842L560.328 32.7197L560.339 32.7247L560.351 32.7296L561.122 30.8842ZM557.716 29.8679L558.144 27.9143L558.137 27.9129L557.716 29.8679ZM553.876 29.0398L553.452 30.9943L553.454 30.9948L553.876 29.0398ZM545.802 25.332L544.471 26.8253L544.481 26.8342L545.802 25.332ZM542.885 18.1989L544.885 18.2072V18.1979V18.1886L542.885 18.1989ZM544.842 11.7809L543.22 10.6111L543.218 10.6132L544.842 11.7809ZM550.357 7.47088L549.557 5.63767L549.553 5.63924L550.357 7.47088ZM566.543 7.4897L565.709 9.30767L566.543 7.4897ZM571.794 11.8938L570.116 12.9826L570.12 12.9891L570.124 12.9955L571.794 11.8938ZM573.676 18.5V20.5H575.686L575.676 18.49L573.676 18.5ZM565.657 18.3405C565.52 16.6372 564.849 15.1284 563.534 14.0294L560.969 17.0985C561.335 17.4048 561.605 17.8533 561.669 18.6595L565.657 18.3405ZM563.545 14.0389C562.201 12.8986 560.384 12.5099 558.468 12.5099V16.5099C559.94 16.5099 560.645 16.8239 560.957 17.0889L563.545 14.0389ZM558.468 12.5099C557.248 12.5099 556.098 12.656 555.101 13.0367L556.528 16.7736C556.911 16.6274 557.531 16.5099 558.468 16.5099V12.5099ZM555.12 13.0297C554.193 13.3729 553.324 13.9123 552.703 14.7477L555.914 17.133C555.946 17.0901 556.081 16.9394 556.509 16.7807L555.12 13.0297ZM552.703 14.7477C552.122 15.5308 551.823 16.4369 551.801 17.4016L555.8 17.4905C555.804 17.3258 555.844 17.2282 555.914 17.133L552.703 14.7477ZM551.804 17.3381C551.762 18.1117 551.897 18.8829 552.257 19.6015L555.834 17.8126C555.817 17.7783 555.789 17.7089 555.798 17.554L551.804 17.3381ZM552.294 19.6732C552.674 20.361 553.221 20.9064 553.833 21.3385L556.14 18.0706C555.899 17.9004 555.819 17.7808 555.797 17.7409L552.294 19.6732ZM553.866 21.3611C554.471 21.7708 555.18 22.1022 555.949 22.3777L557.299 18.6123C556.737 18.4111 556.355 18.2155 556.107 18.048L553.866 21.3611ZM555.949 22.3777C556.726 22.6563 557.612 22.8925 558.593 23.094L559.398 19.1759C558.547 19.001 557.852 18.8106 557.299 18.6123L555.949 22.3777ZM558.576 23.0905L561.738 23.7681L562.576 19.8569L559.414 19.1793L558.576 23.0905ZM561.743 23.7691C563.76 24.1962 565.422 24.7468 566.758 25.3982L568.511 21.8028C566.81 20.9736 564.821 20.3322 562.572 19.8559L561.743 23.7691ZM566.758 25.3982C568.109 26.0569 569.147 26.8003 569.92 27.6036L572.802 24.8297C571.643 23.6254 570.196 22.6247 568.511 21.8028L566.758 25.3982ZM569.929 27.6126C570.706 28.4105 571.258 29.2872 571.608 30.2502L575.367 28.8833C574.814 27.362 573.948 26.0052 572.793 24.8207L569.929 27.6126ZM571.614 30.2669C571.988 31.2684 572.192 32.3896 572.203 33.6492L576.203 33.615C576.188 31.9385 575.915 30.3495 575.361 28.8666L571.614 30.2669ZM572.203 33.6222C572.192 35.8173 571.649 37.5418 570.674 38.9064L573.929 41.2314C575.464 39.0827 576.189 36.516 576.203 33.642L572.203 33.6222ZM570.674 38.9064C569.679 40.2999 568.221 41.4181 566.188 42.216L567.65 45.9395C570.284 44.9055 572.415 43.3512 573.929 41.2314L570.674 38.9064ZM566.185 42.2174C564.157 43.0175 561.628 43.4517 558.544 43.4517V47.4517C561.984 47.4517 565.038 46.9699 567.653 45.9382L566.185 42.2174ZM558.544 43.4517C555.386 43.4517 552.723 42.9841 550.511 42.106L549.035 45.8237C551.817 46.9281 555.001 47.4517 558.544 47.4517V43.4517ZM550.514 42.1072C548.373 41.253 546.775 39.9732 545.637 38.2773L542.315 40.5054C543.938 42.925 546.204 44.6942 549.032 45.8224L550.514 42.1072ZM545.645 38.2889C544.548 36.6278 543.917 34.3916 543.906 31.4411L539.906 31.4566C539.919 34.9555 540.669 38.0142 542.307 40.4937L545.645 38.2889ZM541.906 33.4489H551.843V29.4489H541.906V33.4489ZM549.846 31.5551C549.923 33.0072 550.295 34.3602 551.056 35.5199L554.4 33.3253C554.107 32.879 553.889 32.2495 553.841 31.3426L549.846 31.5551ZM551.056 35.5199C551.814 36.6756 552.872 37.5268 554.152 38.0827L555.745 34.4137C555.119 34.1415 554.696 33.7756 554.4 33.3253L551.056 35.5199ZM554.161 38.0865C555.433 38.6315 556.862 38.8693 558.393 38.8693V34.8693C557.265 34.8693 556.397 34.693 555.737 34.4099L554.161 38.0865ZM558.393 38.8693C559.659 38.8693 560.845 38.7148 561.886 38.333L560.509 34.5775C560.045 34.7477 559.36 34.8693 558.393 34.8693V38.8693ZM561.886 38.333C562.888 37.9657 563.802 37.3994 564.476 36.5517L561.344 34.0627C561.24 34.1936 561.013 34.3927 560.509 34.5775L561.886 38.333ZM564.476 36.5517C565.139 35.7178 565.491 34.7358 565.512 33.6721L561.513 33.5921C561.509 33.7831 561.46 33.9179 561.344 34.0627L564.476 36.5517ZM565.512 33.5896C565.49 32.5471 565.132 31.5852 564.448 30.7872L561.41 33.3904C561.479 33.4706 561.51 33.5376 561.513 33.6746L565.512 33.5896ZM564.487 30.8341C563.827 30.016 562.883 29.4523 561.893 29.0389L560.351 32.7296C561.043 33.0188 561.303 33.2581 561.371 33.3434L564.487 30.8341ZM561.917 29.0488C560.91 28.6129 559.635 28.2413 558.144 27.9143L557.287 31.8215C558.657 32.1219 559.653 32.4278 560.328 32.7197L561.917 29.0488ZM558.137 27.9129L554.298 27.0847L553.454 30.9948L557.294 31.8229L558.137 27.9129ZM554.3 27.0852C551.113 26.394 548.766 25.2746 547.122 23.8298L544.481 26.8342C546.778 28.8526 549.813 30.205 553.452 30.9943L554.3 27.0852ZM547.132 23.8388C545.669 22.5347 544.874 20.7396 544.885 18.2072L540.885 18.1905C540.87 21.6809 542.02 24.6412 544.471 26.8253L547.132 23.8388ZM544.885 18.1886C544.874 16.1268 545.416 14.4081 546.466 12.9486L543.218 10.6132C541.633 12.8175 540.87 15.3775 540.885 18.2091L544.885 18.1886ZM546.464 12.9507C547.56 11.4314 549.098 10.2065 551.16 9.30252L549.553 5.63924C546.922 6.79304 544.784 8.44148 543.22 10.6111L546.464 12.9507ZM551.156 9.30409C553.221 8.40361 555.644 7.92756 558.468 7.92756V3.92756C555.194 3.92756 552.21 4.48038 549.557 5.63767L551.156 9.30409ZM558.468 7.92756C561.361 7.92756 563.755 8.41185 565.709 9.30767L567.376 5.67173C564.788 4.48469 561.799 3.92756 558.468 3.92756V7.92756ZM565.709 9.30767C567.673 10.2084 569.114 11.4394 570.116 12.9826L573.471 10.805C572.014 8.55897 569.954 6.8539 567.376 5.67173L565.709 9.30767ZM570.124 12.9955C571.128 14.516 571.665 16.3287 571.676 18.51L575.676 18.49C575.661 15.6273 574.944 13.0359 573.463 10.7921L570.124 12.9955ZM573.676 16.5H563.663V20.5H573.676V16.5Z" fill="white" mask="url(#path-2-outside-1_460_11)"/>
</g>
</svg>
