<svg width="568" height="41" viewBox="0 0 568 41" fill="none" xmlns="http://www.w3.org/2000/svg">
<mask id="path-1-outside-1_69_1869" maskUnits="userSpaceOnUse" x="-3" y="-2" width="573" height="45" fill="black">
<rect fill="white" x="-3" y="-2" width="573" height="45"/>
<path d="M11.7981 40H0.50551L13.2285 1.45454H27.5325L40.2555 40H28.9629L20.5311 12.0696H20.2299L11.7981 40ZM9.69017 24.7926H30.9203V32.6222H9.69017V24.7926ZM74.6575 40H59.8266V1.45454H74.507C78.4719 1.45454 81.8973 2.22621 84.7832 3.76953C87.6817 5.30031 89.9151 7.50864 91.4835 10.3945C93.0645 13.2679 93.855 16.7121 93.855 20.7273C93.855 24.7424 93.0708 28.1929 91.5023 31.0788C89.9339 33.9522 87.713 36.1605 84.8397 37.7038C81.9664 39.2346 78.5723 40 74.6575 40ZM70.291 31.1165H74.2811C76.1883 31.1165 77.8132 30.8091 79.1557 30.1942C80.5109 29.5794 81.5397 28.5192 82.2424 27.0135C82.9576 25.5078 83.3152 23.4124 83.3152 20.7273C83.3152 18.0421 82.9513 15.9467 82.2236 14.441C81.5084 12.9354 80.4544 11.8751 79.0616 11.2603C77.6814 10.6455 75.9875 10.3381 73.98 10.3381H70.291V31.1165ZM101.347 40V1.45454H129.127V9.88636H111.811V16.5114H127.696V24.9432H111.811V31.5682H129.051V40H101.347ZM136.966 40V1.45454H147.431V31.5682H163.015V40H136.966ZM180.359 1.45454V40H169.895V1.45454H180.359ZM213 14.1776C212.837 13.5125 212.58 12.9291 212.229 12.4272C211.878 11.9128 211.438 11.4799 210.911 11.1286C210.397 10.7647 209.795 10.4949 209.105 10.3192C208.427 10.131 207.68 10.0369 206.865 10.0369C205.108 10.0369 203.609 10.4573 202.367 11.2979C201.137 12.1386 200.196 13.3494 199.543 14.9304C198.904 16.5114 198.584 18.4186 198.584 20.652C198.584 22.9105 198.891 24.8428 199.506 26.4489C200.121 28.0549 201.037 29.2846 202.254 30.1378C203.471 30.991 204.983 31.4176 206.79 31.4176C208.383 31.4176 209.707 31.1855 210.761 30.7212C211.827 30.257 212.624 29.5982 213.151 28.745C213.678 27.8918 213.942 26.888 213.942 25.7337L215.748 25.9219H206.94V18.4688H224.03V23.8139C224.03 27.3272 223.283 30.3323 221.79 32.8292C220.309 35.3136 218.264 37.2208 215.654 38.5508C213.057 39.8683 210.077 40.527 206.714 40.527C202.963 40.527 199.669 39.7302 196.833 38.1367C193.998 36.5432 191.783 34.2721 190.189 31.3235C188.608 28.3749 187.818 24.8679 187.818 20.8026C187.818 17.6155 188.301 14.7924 189.267 12.3331C190.246 9.87382 191.601 7.79723 193.333 6.10334C195.064 4.3969 197.065 3.11079 199.336 2.24503C201.608 1.36671 204.042 0.927555 206.639 0.927555C208.923 0.927555 211.043 1.25379 213 1.90625C214.97 2.54616 216.708 3.46212 218.214 4.65412C219.732 5.83357 220.956 7.2326 221.884 8.85121C222.813 10.4698 223.377 12.2453 223.578 14.1776H213ZM231.559 40V1.45454H242.023V16.5114H255.876V1.45454H266.34V40H255.876V24.9432H242.023V40H231.559ZM272.905 9.88636V1.45454H306.406V9.88636H294.813V40H284.499V9.88636H272.905ZM325.149 9.88636V1.45454H358.651V9.88636H347.057V40H336.743V9.88636H325.149ZM400.768 20.7273C400.768 25.0185 399.934 28.6384 398.265 31.587C396.596 34.5231 394.344 36.7502 391.508 38.2685C388.673 39.7741 385.511 40.527 382.023 40.527C378.509 40.527 375.335 39.7679 372.499 38.2496C369.676 36.7189 367.43 34.4854 365.761 31.5494C364.105 28.6007 363.277 24.9934 363.277 20.7273C363.277 16.4361 364.105 12.8224 365.761 9.88636C367.43 6.93774 369.676 4.71058 372.499 3.2049C375.335 1.68667 378.509 0.927555 382.023 0.927555C385.511 0.927555 388.673 1.68667 391.508 3.2049C394.344 4.71058 396.596 6.93774 398.265 9.88636C399.934 12.8224 400.768 16.4361 400.768 20.7273ZM390.003 20.7273C390.003 18.4186 389.695 16.4737 389.081 14.8928C388.478 13.2992 387.581 12.0947 386.389 11.2791C385.21 10.451 383.754 10.0369 382.023 10.0369C380.291 10.0369 378.829 10.451 377.637 11.2791C376.458 12.0947 375.561 13.2992 374.946 14.8928C374.344 16.4737 374.043 18.4186 374.043 20.7273C374.043 23.036 374.344 24.9871 374.946 26.5806C375.561 28.1616 376.458 29.3661 377.637 30.1942C378.829 31.0098 380.291 31.4176 382.023 31.4176C383.754 31.4176 385.21 31.0098 386.389 30.1942C387.581 29.3661 388.478 28.1616 389.081 26.5806C389.695 24.9871 390.003 23.036 390.003 20.7273Z"/>
<path d="M421.469 40V1.45454H449.249V9.88636H431.933V16.5114H447.818V24.9432H431.933V31.5682H449.173V40H421.469ZM455.508 1.45454H467.177L474.705 17.1136H475.006L482.535 1.45454H494.204L480.05 27.8793V40H469.661V27.8793L455.508 1.45454ZM500.265 40V1.45454H528.045V9.88636H510.729V16.5114H526.614V24.9432H510.729V31.5682H527.969V40H500.265ZM556.663 13.5C556.563 12.2453 556.092 11.2666 555.251 10.5639C554.423 9.86127 553.162 9.50994 551.468 9.50994C550.389 9.50994 549.505 9.64169 548.815 9.90518C548.137 10.1561 547.635 10.5012 547.309 10.9403C546.983 11.3795 546.813 11.8814 546.801 12.446C546.776 12.9103 546.857 13.3306 547.045 13.707C547.246 14.0709 547.56 14.4034 547.986 14.7045C548.413 14.9931 548.959 15.2566 549.624 15.495C550.289 15.7334 551.079 15.9467 551.995 16.1349L555.157 16.8125C557.29 17.2642 559.116 17.8602 560.634 18.6005C562.152 19.3408 563.395 20.2128 564.361 21.2166C565.327 22.2079 566.036 23.3246 566.488 24.5668C566.952 25.8089 567.19 27.1641 567.203 28.6321C567.19 31.1667 566.557 33.3123 565.302 35.0689C564.047 36.8255 562.253 38.1618 559.919 39.0778C557.598 39.9937 554.806 40.4517 551.544 40.4517C548.194 40.4517 545.27 39.9561 542.773 38.9648C540.289 37.9736 538.356 36.4491 536.976 34.3913C535.609 32.321 534.918 29.6735 534.906 26.4489H544.843C544.906 27.6283 545.201 28.6196 545.728 29.4226C546.255 30.2256 546.995 30.8342 547.949 31.2482C548.915 31.6623 550.063 31.8693 551.393 31.8693C552.51 31.8693 553.445 31.7313 554.197 31.4553C554.95 31.1792 555.521 30.7965 555.91 30.3072C556.299 29.8178 556.5 29.2595 556.512 28.6321C556.5 28.0424 556.305 27.5279 555.929 27.0888C555.565 26.6371 554.963 26.2356 554.122 25.8842C553.281 25.5204 552.146 25.1816 550.716 24.8679L546.876 24.0398C543.463 23.2995 540.772 22.0636 538.802 20.332C536.844 18.5879 535.872 16.2102 535.885 13.1989C535.872 10.7521 536.524 8.61281 537.842 6.7809C539.172 4.93643 541.01 3.49976 543.357 2.47088C545.715 1.442 548.419 0.927555 551.468 0.927555C554.58 0.927555 557.272 1.44827 559.543 2.4897C561.814 3.53113 563.564 4.99917 564.794 6.89382C566.036 8.77592 566.663 10.978 566.676 13.5H556.663Z"/>
</mask>
<path d="M421.469 40V1.45454H449.249V9.88636H431.933V16.5114H447.818V24.9432H431.933V31.5682H449.173V40H421.469ZM455.508 1.45454H467.177L474.705 17.1136H475.006L482.535 1.45454H494.204L480.05 27.8793V40H469.661V27.8793L455.508 1.45454ZM500.265 40V1.45454H528.045V9.88636H510.729V16.5114H526.614V24.9432H510.729V31.5682H527.969V40H500.265ZM556.663 13.5C556.563 12.2453 556.092 11.2666 555.251 10.5639C554.423 9.86127 553.162 9.50994 551.468 9.50994C550.389 9.50994 549.505 9.64169 548.815 9.90518C548.137 10.1561 547.635 10.5012 547.309 10.9403C546.983 11.3795 546.813 11.8814 546.801 12.446C546.776 12.9103 546.857 13.3306 547.045 13.707C547.246 14.0709 547.56 14.4034 547.986 14.7045C548.413 14.9931 548.959 15.2566 549.624 15.495C550.289 15.7334 551.079 15.9467 551.995 16.1349L555.157 16.8125C557.29 17.2642 559.116 17.8602 560.634 18.6005C562.152 19.3408 563.395 20.2128 564.361 21.2166C565.327 22.2079 566.036 23.3246 566.488 24.5668C566.952 25.8089 567.19 27.1641 567.203 28.6321C567.19 31.1667 566.557 33.3123 565.302 35.0689C564.047 36.8255 562.253 38.1618 559.919 39.0778C557.598 39.9937 554.806 40.4517 551.544 40.4517C548.194 40.4517 545.27 39.9561 542.773 38.9648C540.289 37.9736 538.356 36.4491 536.976 34.3913C535.609 32.321 534.918 29.6735 534.906 26.4489H544.843C544.906 27.6283 545.201 28.6196 545.728 29.4226C546.255 30.2256 546.995 30.8342 547.949 31.2482C548.915 31.6623 550.063 31.8693 551.393 31.8693C552.51 31.8693 553.445 31.7313 554.197 31.4553C554.95 31.1792 555.521 30.7965 555.91 30.3072C556.299 29.8178 556.5 29.2595 556.512 28.6321C556.5 28.0424 556.305 27.5279 555.929 27.0888C555.565 26.6371 554.963 26.2356 554.122 25.8842C553.281 25.5204 552.146 25.1816 550.716 24.8679L546.876 24.0398C543.463 23.2995 540.772 22.0636 538.802 20.332C536.844 18.5879 535.872 16.2102 535.885 13.1989C535.872 10.7521 536.524 8.61281 537.842 6.7809C539.172 4.93643 541.01 3.49976 543.357 2.47088C545.715 1.442 548.419 0.927555 551.468 0.927555C554.58 0.927555 557.272 1.44827 559.543 2.4897C561.814 3.53113 563.564 4.99917 564.794 6.89382C566.036 8.77592 566.663 10.978 566.676 13.5H556.663Z" fill="white"/>
<path d="M11.7981 40V42H13.2835L13.7128 40.578L11.7981 40ZM0.505508 40L-1.39371 39.3731L-2.26079 42H0.505508V40ZM13.2285 1.45454V-0.545456H11.7825L11.3293 0.827656L13.2285 1.45454ZM27.5325 1.45454L29.4317 0.827656L28.9785 -0.545456H27.5325V1.45454ZM40.2555 40V42H43.0218L42.1547 39.3731L40.2555 40ZM28.9629 40L27.0482 40.578L27.4775 42H28.9629V40ZM20.5311 12.0696L22.4457 11.4916L22.0164 10.0696H20.5311V12.0696ZM20.2299 12.0696V10.0696H18.7446L18.3153 11.4916L20.2299 12.0696ZM9.69017 24.7926V22.7926H7.69017V24.7926H9.69017ZM30.9203 24.7926H32.9203V22.7926H30.9203V24.7926ZM30.9203 32.6222V34.6222H32.9203V32.6222H30.9203ZM9.69017 32.6222H7.69017V34.6222H9.69017V32.6222ZM11.7981 38H0.505508V42H11.7981V38ZM2.40472 40.6269L15.1277 2.08143L11.3293 0.827656L-1.39371 39.3731L2.40472 40.6269ZM13.2285 3.45454H27.5325V-0.545456H13.2285V3.45454ZM25.6333 2.08143L38.3563 40.6269L42.1547 39.3731L29.4317 0.827656L25.6333 2.08143ZM40.2555 38H28.9629V42H40.2555V38ZM30.8775 39.422L22.4457 11.4916L18.6164 12.6476L27.0482 40.578L30.8775 39.422ZM20.5311 10.0696H20.2299V14.0696H20.5311V10.0696ZM18.3153 11.4916L9.88347 39.422L13.7128 40.578L22.1446 12.6476L18.3153 11.4916ZM9.69017 26.7926H30.9203V22.7926H9.69017V26.7926ZM28.9203 24.7926V32.6222H32.9203V24.7926H28.9203ZM30.9203 30.6222H9.69017V34.6222H30.9203V30.6222ZM11.6902 32.6222V24.7926H7.69017V32.6222H11.6902ZM59.8266 40H57.8266V42H59.8266V40ZM59.8266 1.45454V-0.545456H57.8266V1.45454H59.8266ZM84.7832 3.76953L83.8401 5.5332L83.8492 5.53804L84.7832 3.76953ZM91.4835 10.3945L89.7263 11.3496L89.7312 11.3587L91.4835 10.3945ZM91.5023 31.0788L93.2578 32.0371L93.2596 32.0339L91.5023 31.0788ZM84.8397 37.7038L85.7801 39.469L85.7861 39.4658L84.8397 37.7038ZM70.291 31.1165H68.291V33.1165H70.291V31.1165ZM79.1557 30.1942L78.3294 28.3729L78.323 28.3759L79.1557 30.1942ZM82.2424 27.0135L80.4358 26.1554L80.43 26.1677L82.2424 27.0135ZM82.2236 14.441L80.417 15.2992L80.4229 15.3114L82.2236 14.441ZM79.0616 11.2603L78.2478 13.0872L78.254 13.09L79.0616 11.2603ZM70.291 10.3381V8.33807H68.291V10.3381H70.291ZM74.6575 38H59.8266V42H74.6575V38ZM61.8266 40V1.45454H57.8266V40H61.8266ZM59.8266 3.45454H74.507V-0.545456H59.8266V3.45454ZM74.507 3.45454C78.2119 3.45454 81.2997 4.1746 83.8401 5.53317L85.7264 2.00589C82.495 0.277809 78.7319 -0.545456 74.507 -0.545456V3.45454ZM83.8492 5.53804C86.3983 6.88431 88.3457 8.80927 89.7263 11.3496L93.2408 9.4395C91.4845 6.208 88.965 3.7163 85.7173 2.00103L83.8492 5.53804ZM89.7312 11.3587C91.1171 13.8773 91.8549 16.9743 91.8549 20.7273H95.8549C95.8549 16.4499 95.0119 12.6584 93.2358 9.4304L89.7312 11.3587ZM91.8549 20.7273C91.8549 24.4823 91.1225 27.5894 89.7451 30.1238L93.2596 32.0339C95.019 28.7965 95.8549 25.0026 95.8549 20.7273H91.8549ZM89.7468 30.1206C88.3637 32.6545 86.4233 34.583 83.8933 35.9419L85.7861 39.4658C89.0027 37.738 91.5042 35.2498 93.2578 32.0371L89.7468 30.1206ZM83.8993 35.9387C81.3685 37.287 78.3103 38 74.6575 38V42C78.8343 42 82.5641 41.1823 85.7801 39.469L83.8993 35.9387ZM70.291 33.1165H74.2811V29.1165H70.291V33.1165ZM74.2811 33.1165C76.3952 33.1165 78.3201 32.7766 79.9885 32.0126L78.323 28.3759C77.3062 28.8415 75.9814 29.1165 74.2811 29.1165V33.1165ZM79.9821 32.0156C81.823 31.1803 83.1755 29.7434 84.0547 27.8593L80.43 26.1677C79.904 27.2949 79.1987 27.9785 78.3294 28.3729L79.9821 32.0156ZM84.049 27.8716C84.9461 25.9829 85.3152 23.5484 85.3152 20.7273H81.3152C81.3152 23.2764 80.9691 25.0327 80.4358 26.1554L84.049 27.8716ZM85.3152 20.7273C85.3152 17.903 84.9391 15.4635 84.0243 13.5707L80.4229 15.3114C80.9635 16.43 81.3152 18.1813 81.3152 20.7273H85.3152ZM84.0301 13.5829C83.1302 11.6884 81.7435 10.258 79.8693 9.43064L78.254 13.09C79.1652 13.4922 79.8865 14.1824 80.417 15.2992L84.0301 13.5829ZM79.8755 9.43336C78.1697 8.67351 76.1804 8.33807 73.98 8.33807V12.3381C75.7947 12.3381 77.1932 12.6174 78.2478 13.0872L79.8755 9.43336ZM73.98 8.33807H70.291V12.3381H73.98V8.33807ZM68.291 10.3381V31.1165H72.291V10.3381H68.291ZM101.347 40H99.3467V42H101.347V40ZM101.347 1.45454V-0.545456H99.3467V1.45454H101.347ZM129.126 1.45454H131.126V-0.545456H129.126V1.45454ZM129.126 9.88636V11.8864H131.126V9.88636H129.126ZM111.811 9.88636V7.88636H109.811V9.88636H111.811ZM111.811 16.5114H109.811V18.5114H111.811V16.5114ZM127.696 16.5114H129.696V14.5114H127.696V16.5114ZM127.696 24.9432V26.9432H129.696V24.9432H127.696ZM111.811 24.9432V22.9432H109.811V24.9432H111.811ZM111.811 31.5682H109.811V33.5682H111.811V31.5682ZM129.051 31.5682H131.051V29.5682H129.051V31.5682ZM129.051 40V42H131.051V40H129.051ZM103.347 40V1.45454H99.3467V40H103.347ZM101.347 3.45454H129.126V-0.545456H101.347V3.45454ZM127.126 1.45454V9.88636H131.126V1.45454H127.126ZM129.126 7.88636H111.811V11.8864H129.126V7.88636ZM109.811 9.88636V16.5114H113.811V9.88636H109.811ZM111.811 18.5114H127.696V14.5114H111.811V18.5114ZM125.696 16.5114V24.9432H129.696V16.5114H125.696ZM127.696 22.9432H111.811V26.9432H127.696V22.9432ZM109.811 24.9432V31.5682H113.811V24.9432H109.811ZM111.811 33.5682H129.051V29.5682H111.811V33.5682ZM127.051 31.5682V40H131.051V31.5682H127.051ZM129.051 38H101.347V42H129.051V38ZM136.966 40H134.966V42H136.966V40ZM136.966 1.45454V-0.545456H134.966V1.45454H136.966ZM147.431 1.45454H149.431V-0.545456H147.431V1.45454ZM147.431 31.5682H145.431V33.5682H147.431V31.5682ZM163.015 31.5682H165.015V29.5682H163.015V31.5682ZM163.015 40V42H165.015V40H163.015ZM138.966 40V1.45454H134.966V40H138.966ZM136.966 3.45454H147.431V-0.545456H136.966V3.45454ZM145.431 1.45454V31.5682H149.431V1.45454H145.431ZM147.431 33.5682H163.015V29.5682H147.431V33.5682ZM161.015 31.5682V40H165.015V31.5682H161.015ZM163.015 38H136.966V42H163.015V38ZM180.359 1.45454H182.359V-0.545456H180.359V1.45454ZM180.359 40V42H182.359V40H180.359ZM169.895 40H167.895V42H169.895V40ZM169.895 1.45454V-0.545456H167.895V1.45454H169.895ZM178.359 1.45454V40H182.359V1.45454H178.359ZM180.359 38H169.895V42H180.359V38ZM171.895 40V1.45454H167.895V40H171.895ZM169.895 3.45454H180.359V-0.545456H169.895V3.45454ZM213 14.1776L211.058 14.654L211.432 16.1776H213V14.1776ZM212.229 12.4272L210.577 13.5551L210.584 13.5647L210.59 13.5741L212.229 12.4272ZM210.911 11.1286L209.756 12.7614L209.779 12.7773L209.802 12.7927L210.911 11.1286ZM209.105 10.3192L208.569 12.2463L208.59 12.2521L208.611 12.2574L209.105 10.3192ZM202.367 11.2979L201.246 9.64158L201.238 9.64691L202.367 11.2979ZM199.543 14.9304L197.695 14.1674L197.69 14.18L199.543 14.9304ZM199.506 26.4489L197.638 27.1639L199.506 26.4489ZM202.254 30.1378L201.106 31.7755L202.254 30.1378ZM210.761 30.7212L209.963 28.8874L209.955 28.8909L210.761 30.7212ZM213.151 28.745L211.449 27.694L213.151 28.745ZM213.942 25.7337L214.149 23.7444L211.942 23.5145V25.7337H213.942ZM215.748 25.9219V27.9219L215.956 23.9326L215.748 25.9219ZM206.94 25.9219H204.94V27.9219H206.94V25.9219ZM206.94 18.4688V16.4688H204.94V18.4688H206.94ZM224.03 18.4688H226.03V16.4688H224.03V18.4688ZM221.79 32.8292L220.073 31.8027L220.072 31.8053L221.79 32.8292ZM215.654 38.5508L216.559 40.3344L216.562 40.3327L215.654 38.5508ZM196.833 38.1367L195.853 39.8803L196.833 38.1367ZM190.189 31.3235L188.427 32.2686L188.43 32.2744L190.189 31.3235ZM189.267 12.3331L187.409 11.5936L187.406 11.6018L189.267 12.3331ZM193.333 6.10334L194.731 7.53301L194.736 7.52784L193.333 6.10334ZM199.336 2.24503L200.049 4.11386L200.058 4.11039L199.336 2.24503ZM213 1.90625L212.368 3.80362L212.375 3.80604L212.383 3.80841L213 1.90625ZM218.214 4.65412L216.973 6.22221L216.98 6.2279L216.987 6.23352L218.214 4.65412ZM221.884 8.85121L223.619 7.85604L221.884 8.85121ZM223.578 14.1776V16.1776H225.796L225.567 13.9709L223.578 14.1776ZM214.943 13.7011C214.728 12.8239 214.376 12.0074 213.867 11.2803L210.59 13.5741C210.784 13.8508 210.947 14.2012 211.058 14.654L214.943 13.7011ZM213.88 11.2993C213.382 10.5694 212.758 9.95564 212.021 9.46445L209.802 12.7927C210.119 13.0041 210.373 13.2561 210.577 13.5551L213.88 11.2993ZM212.066 9.49572C211.328 8.97323 210.495 8.60933 209.598 8.38105L208.611 12.2574C209.095 12.3805 209.466 12.5561 209.756 12.7614L212.066 9.49572ZM209.64 8.39221C208.763 8.14858 207.833 8.03693 206.865 8.03693V12.0369C207.528 12.0369 208.091 12.1135 208.569 12.2463L209.64 8.39221ZM206.865 8.03693C204.779 8.03693 202.872 8.54069 201.246 9.6416L203.488 12.9543C204.345 12.3738 205.438 12.0369 206.865 12.0369V8.03693ZM201.238 9.64691C199.641 10.7384 198.473 12.2814 197.695 14.1674L201.392 15.6934C201.919 14.4174 202.633 13.5388 203.495 12.949L201.238 9.64691ZM197.69 14.18C196.928 16.0607 196.584 18.237 196.584 20.652H200.584C200.584 18.6001 200.879 16.9621 201.397 15.6808L197.69 14.18ZM196.584 20.652C196.584 23.0825 196.913 25.2705 197.638 27.1639L201.374 25.7338C200.869 24.4151 200.584 22.7386 200.584 20.652H196.584ZM197.638 27.1639C198.372 29.0823 199.513 30.659 201.106 31.7755L203.402 28.5001C202.56 27.9101 201.869 27.0276 201.374 25.7338L197.638 27.1639ZM201.106 31.7755C202.726 32.9114 204.662 33.4176 206.79 33.4176V29.4176C205.304 29.4176 204.216 29.0706 203.402 28.5001L201.106 31.7755ZM206.79 33.4176C208.561 33.4176 210.181 33.1619 211.567 32.5515L209.955 28.8909C209.232 29.2091 208.205 29.4176 206.79 29.4176V33.4176ZM211.559 32.555C212.938 31.9548 214.079 31.0492 214.853 29.796L211.449 27.694C211.17 28.1473 210.717 28.5591 209.963 28.8874L211.559 32.555ZM214.853 29.796C215.603 28.5816 215.942 27.202 215.942 25.7337H211.942C211.942 26.574 211.753 27.202 211.449 27.694L214.853 29.796ZM213.734 27.7229L215.541 27.9111L215.956 23.9326L214.149 23.7444L213.734 27.7229ZM215.748 23.9219H206.94V27.9219H215.748V23.9219ZM208.94 25.9219V18.4688H204.94V25.9219H208.94ZM206.94 20.4688H224.03V16.4688H206.94V20.4688ZM222.03 18.4688V23.8139H226.03V18.4688H222.03ZM222.03 23.8139C222.03 27.0409 221.346 29.6748 220.073 31.8027L223.506 33.8556C225.22 30.9897 226.03 27.6135 226.03 23.8139H222.03ZM220.072 31.8053C218.787 33.9613 217.025 35.6077 214.746 36.7688L216.562 40.3327C219.504 38.8338 221.832 36.6658 223.508 33.8531L220.072 31.8053ZM214.75 36.7671C212.473 37.9219 209.811 38.527 206.714 38.527V42.527C210.343 42.527 213.641 41.8147 216.559 40.3344L214.75 36.7671ZM206.714 38.527C203.253 38.527 200.306 37.7943 197.813 36.3932L195.853 39.8803C199.032 41.6662 202.673 42.527 206.714 42.527V38.527ZM197.813 36.3932C195.317 34.9907 193.368 32.9993 191.949 30.3726L188.43 32.2744C190.197 35.545 192.678 38.0957 195.853 39.8803L197.813 36.3932ZM191.952 30.3784C190.557 27.7767 189.818 24.6084 189.818 20.8026H185.818C185.818 25.1274 186.66 28.9731 188.427 32.2686L191.952 30.3784ZM189.818 20.8026C189.818 17.8155 190.271 15.2481 191.129 13.0644L187.406 11.6018C186.331 14.3366 185.818 17.4155 185.818 20.8026H189.818ZM191.125 13.0726C192.01 10.8487 193.217 9.01399 194.731 7.533L191.934 4.67367C189.985 6.58047 188.481 8.89897 187.409 11.5936L191.125 13.0726ZM194.736 7.52784C196.271 6.01572 198.037 4.88094 200.049 4.11384L198.624 0.376215C196.094 1.34065 193.857 2.77807 191.929 4.67884L194.736 7.52784ZM200.058 4.11039C202.084 3.32686 204.272 2.92756 206.639 2.92756V-1.07244C203.812 -1.07244 201.131 -0.593434 198.615 0.379666L200.058 4.11039ZM206.639 2.92756C208.73 2.92756 210.635 3.22598 212.368 3.80362L213.633 0.00888348C211.451 -0.718407 209.115 -1.07244 206.639 -1.07244V2.92756ZM212.383 3.80841C214.144 4.38069 215.667 5.18893 216.973 6.22221L219.455 3.08603C217.749 1.73531 215.797 0.711639 213.618 0.00409222L212.383 3.80841ZM216.987 6.23352C218.306 7.25811 219.354 8.46062 220.149 9.84638L223.619 7.85604C222.557 6.00458 221.158 4.40903 219.441 3.07471L216.987 6.23352ZM220.149 9.84638C220.933 11.2128 221.415 12.718 221.589 14.3842L225.567 13.9709C225.339 11.7725 224.692 9.72681 223.619 7.85604L220.149 9.84638ZM223.578 12.1776H213V16.1776H223.578V12.1776ZM231.559 40H229.559V42H231.559V40ZM231.559 1.45454V-0.545456H229.559V1.45454H231.559ZM242.023 1.45454H244.023V-0.545456H242.023V1.45454ZM242.023 16.5114H240.023V18.5114H242.023V16.5114ZM255.876 16.5114V18.5114H257.876V16.5114H255.876ZM255.876 1.45454V-0.545456H253.876V1.45454H255.876ZM266.34 1.45454H268.34V-0.545456H266.34V1.45454ZM266.34 40V42H268.34V40H266.34ZM255.876 40H253.876V42H255.876V40ZM255.876 24.9432H257.876V22.9432H255.876V24.9432ZM242.023 24.9432V22.9432H240.023V24.9432H242.023ZM242.023 40V42H244.023V40H242.023ZM233.559 40V1.45454H229.559V40H233.559ZM231.559 3.45454H242.023V-0.545456H231.559V3.45454ZM240.023 1.45454V16.5114H244.023V1.45454H240.023ZM242.023 18.5114H255.876V14.5114H242.023V18.5114ZM257.876 16.5114V1.45454H253.876V16.5114H257.876ZM255.876 3.45454H266.34V-0.545456H255.876V3.45454ZM264.34 1.45454V40H268.34V1.45454H264.34ZM266.34 38H255.876V42H266.34V38ZM257.876 40V24.9432H253.876V40H257.876ZM255.876 22.9432H242.023V26.9432H255.876V22.9432ZM240.023 24.9432V40H244.023V24.9432H240.023ZM242.023 38H231.559V42H242.023V38ZM272.905 9.88636H270.905V11.8864H272.905V9.88636ZM272.905 1.45454V-0.545456H270.905V1.45454H272.905ZM306.406 1.45454H308.406V-0.545456H306.406V1.45454ZM306.406 9.88636V11.8864H308.406V9.88636H306.406ZM294.813 9.88636V7.88636H292.813V9.88636H294.813ZM294.813 40V42H296.813V40H294.813ZM284.499 40H282.499V42H284.499V40ZM284.499 9.88636H286.499V7.88636H284.499V9.88636ZM274.905 9.88636V1.45454H270.905V9.88636H274.905ZM272.905 3.45454H306.406V-0.545456H272.905V3.45454ZM304.406 1.45454V9.88636H308.406V1.45454H304.406ZM306.406 7.88636H294.813V11.8864H306.406V7.88636ZM292.813 9.88636V40H296.813V9.88636H292.813ZM294.813 38H284.499V42H294.813V38ZM286.499 40V9.88636H282.499V40H286.499ZM284.499 7.88636H272.905V11.8864H284.499V7.88636ZM325.149 9.88636H323.149V11.8864H325.149V9.88636ZM325.149 1.45454V-0.545456H323.149V1.45454H325.149ZM358.651 1.45454H360.651V-0.545456H358.651V1.45454ZM358.651 9.88636V11.8864H360.651V9.88636H358.651ZM347.057 9.88636V7.88636H345.057V9.88636H347.057ZM347.057 40V42H349.057V40H347.057ZM336.743 40H334.743V42H336.743V40ZM336.743 9.88636H338.743V7.88636H336.743V9.88636ZM327.149 9.88636V1.45454H323.149V9.88636H327.149ZM325.149 3.45454H358.651V-0.545456H325.149V3.45454ZM356.651 1.45454V9.88636H360.651V1.45454H356.651ZM358.651 7.88636H347.057V11.8864H358.651V7.88636ZM345.057 9.88636V40H349.057V9.88636H345.057ZM347.057 38H336.743V42H347.057V38ZM338.743 40V9.88636H334.743V40H338.743ZM336.743 7.88636H325.149V11.8864H336.743V7.88636ZM398.265 31.587L400.004 32.5753L400.006 32.5721L398.265 31.587ZM391.508 38.2685L392.446 40.0349L392.452 40.0317L391.508 38.2685ZM372.499 38.2496L371.546 40.0078L371.555 40.0128L372.499 38.2496ZM365.761 31.5494L364.018 32.5288L364.023 32.5376L365.761 31.5494ZM365.761 9.88636L364.021 8.90127L364.019 8.90372L365.761 9.88636ZM372.499 3.2049L373.44 4.96961L373.443 4.96809L372.499 3.2049ZM391.508 3.2049L390.564 4.9681L390.571 4.97133L391.508 3.2049ZM398.265 9.88636L396.525 10.8715L396.526 10.8746L398.265 9.88636ZM389.081 14.8928L387.21 15.5998L387.213 15.6088L387.217 15.6177L389.081 14.8928ZM386.389 11.2791L385.24 12.9159L385.25 12.9229L385.26 12.9297L386.389 11.2791ZM377.637 11.2791L378.775 12.9241L378.779 12.9216L377.637 11.2791ZM374.946 14.8928L373.08 14.1728L373.077 14.1808L374.946 14.8928ZM374.946 26.5806L373.075 27.2877L373.078 27.2966L373.082 27.3055L374.946 26.5806ZM377.637 30.1942L376.488 31.8311L376.498 31.838L376.508 31.8449L377.637 30.1942ZM386.389 30.1942L387.527 31.8393L387.53 31.8368L386.389 30.1942ZM389.081 26.5806L387.215 25.8607L387.212 25.8686L389.081 26.5806ZM398.768 20.7273C398.768 24.7636 397.984 28.0237 396.525 30.6019L400.006 32.5721C401.884 29.2531 402.768 25.2733 402.768 20.7273H398.768ZM396.526 30.5987C395.034 33.2239 393.05 35.1743 390.564 36.5053L392.452 40.0317C395.638 38.3262 398.158 35.8223 400.004 32.5753L396.526 30.5987ZM390.571 36.502C388.048 37.8413 385.213 38.527 382.023 38.527V42.527C385.809 42.527 389.297 41.707 392.446 40.0349L390.571 36.502ZM382.023 38.527C378.808 38.527 375.962 37.8352 373.443 36.4865L371.555 40.0128C374.708 41.7006 378.211 42.527 382.023 42.527V38.527ZM373.453 36.4915C370.975 35.1483 368.994 33.1897 367.5 30.5611L364.023 32.5376C365.866 35.7811 368.377 38.2895 371.546 40.0078L373.453 36.4915ZM367.505 30.5699C366.055 27.9888 365.277 24.7385 365.277 20.7273H361.277C361.277 25.2483 362.155 29.2126 364.018 32.5288L367.505 30.5699ZM365.277 20.7273C365.277 16.6883 366.056 13.4341 367.503 10.869L364.019 8.90372C362.154 12.2108 361.277 16.1839 361.277 20.7273H365.277ZM367.502 10.8715C368.995 8.23293 370.972 6.28586 373.44 4.96961L371.558 1.44019C368.38 3.1353 365.865 5.64255 364.021 8.90127L367.502 10.8715ZM373.443 4.96809C375.962 3.61936 378.808 2.92756 382.023 2.92756V-1.07244C378.211 -1.07244 374.708 -0.24602 371.555 1.44171L373.443 4.96809ZM382.023 2.92756C385.21 2.92756 388.043 3.61825 390.564 4.96809L392.452 1.44171C389.302 -0.244905 385.812 -1.07244 382.023 -1.07244V2.92756ZM390.571 4.97133C393.051 6.28825 395.033 8.23519 396.525 10.8715L400.006 8.90127C398.16 5.64028 395.638 3.13291 392.446 1.43847L390.571 4.97133ZM396.526 10.8746C397.984 13.4385 398.768 16.6905 398.768 20.7273H402.768C402.768 16.1816 401.884 12.2064 400.004 8.89809L396.526 10.8746ZM392.003 20.7273C392.003 18.2543 391.675 16.0469 390.945 14.1679L387.217 15.6177C387.715 16.9005 388.003 18.5828 388.003 20.7273H392.003ZM390.951 14.1857C390.231 12.2796 389.106 10.7145 387.518 9.6285L385.26 12.9297C386.057 13.4749 386.726 14.3188 387.21 15.5998L390.951 14.1857ZM387.538 9.64229C385.959 8.53348 384.081 8.03693 382.023 8.03693V12.0369C383.427 12.0369 384.46 12.3685 385.24 12.9159L387.538 9.64229ZM382.023 8.03693C379.964 8.03693 378.084 8.53373 376.496 9.6366L378.779 12.9216C379.575 12.3683 380.619 12.0369 382.023 12.0369V8.03693ZM376.5 9.6341C374.931 10.7187 373.811 12.2778 373.08 14.1728L376.812 15.6127C377.31 14.3207 377.984 13.4707 378.775 12.9241L376.5 9.6341ZM373.077 14.1808C372.363 16.0555 372.043 18.2581 372.043 20.7273H376.043C376.043 18.579 376.325 16.892 376.815 15.6047L373.077 14.1808ZM372.043 20.7273C372.043 23.1973 372.363 25.4036 373.075 27.2877L376.817 25.8735C376.324 24.5705 376.043 22.8747 376.043 20.7273H372.043ZM373.082 27.3055C373.814 29.1878 374.932 30.7384 376.488 31.8311L378.787 28.5574C377.984 27.9939 377.308 27.1353 376.81 25.8557L373.082 27.3055ZM376.508 31.8449C378.094 32.9301 379.97 33.4176 382.023 33.4176V29.4176C380.613 29.4176 379.565 29.0895 378.767 28.5436L376.508 31.8449ZM382.023 33.4176C384.075 33.4176 385.949 32.9304 387.527 31.8393L385.252 28.5492C384.471 29.0893 383.434 29.4176 382.023 29.4176V33.4176ZM387.53 31.8368C389.105 30.7426 390.228 29.186 390.95 27.2926L387.212 25.8686C386.728 27.1372 386.057 27.9896 385.248 28.5517L387.53 31.8368ZM390.946 27.3005C391.675 25.4122 392.003 23.201 392.003 20.7273H388.003C388.003 22.871 387.716 24.562 387.215 25.8607L390.946 27.3005ZM421.469 40H419.469V42H421.469V40ZM421.469 1.45454V-0.545456H419.469V1.45454H421.469ZM449.249 1.45454H451.249V-0.545456H449.249V1.45454ZM449.249 9.88636V11.8864H451.249V9.88636H449.249ZM431.933 9.88636V7.88636H429.933V9.88636H431.933ZM431.933 16.5114H429.933V18.5114H431.933V16.5114ZM447.818 16.5114H449.818V14.5114H447.818V16.5114ZM447.818 24.9432V26.9432H449.818V24.9432H447.818ZM431.933 24.9432V22.9432H429.933V24.9432H431.933ZM431.933 31.5682H429.933V33.5682H431.933V31.5682ZM449.173 31.5682H451.173V29.5682H449.173V31.5682ZM449.173 40V42H451.173V40H449.173ZM423.469 40V1.45454H419.469V40H423.469ZM421.469 3.45454H449.249V-0.545456H421.469V3.45454ZM447.249 1.45454V9.88636H451.249V1.45454H447.249ZM449.249 7.88636H431.933V11.8864H449.249V7.88636ZM429.933 9.88636V16.5114H433.933V9.88636H429.933ZM431.933 18.5114H447.818V14.5114H431.933V18.5114ZM445.818 16.5114V24.9432H449.818V16.5114H445.818ZM447.818 22.9432H431.933V26.9432H447.818V22.9432ZM429.933 24.9432V31.5682H433.933V24.9432H429.933ZM431.933 33.5682H449.173V29.5682H431.933V33.5682ZM447.173 31.5682V40H451.173V31.5682H447.173ZM449.173 38H421.469V42H449.173V38ZM455.508 1.45454V-0.545456H452.167L453.745 2.39885L455.508 1.45454ZM467.177 1.45454L468.979 0.587955L468.434 -0.545456H467.177V1.45454ZM474.705 17.1136L472.902 17.9802L473.447 19.1136H474.705V17.1136ZM475.006 17.1136V19.1136H476.264L476.809 17.9802L475.006 17.1136ZM482.535 1.45454V-0.545456H481.277L480.732 0.587955L482.535 1.45454ZM494.204 1.45454L495.967 2.39885L497.544 -0.545456H494.204V1.45454ZM480.05 27.8793L478.287 26.935L478.05 27.3774V27.8793H480.05ZM480.05 40V42H482.05V40H480.05ZM469.661 40H467.661V42H469.661V40ZM469.661 27.8793H471.661V27.3774L471.424 26.935L469.661 27.8793ZM455.508 3.45454H467.177V-0.545456H455.508V3.45454ZM465.374 2.32113L472.902 17.9802L476.508 16.247L468.979 0.587955L465.374 2.32113ZM474.705 19.1136H475.006V15.1136H474.705V19.1136ZM476.809 17.9802L484.337 2.32113L480.732 0.587955L473.204 16.247L476.809 17.9802ZM482.535 3.45454H494.204V-0.545456H482.535V3.45454ZM492.441 0.510241L478.287 26.935L481.813 28.8236L495.967 2.39885L492.441 0.510241ZM478.05 27.8793V40H482.05V27.8793H478.05ZM480.05 38H469.661V42H480.05V38ZM471.661 40V27.8793H467.661V40H471.661ZM471.424 26.935L457.271 0.510241L453.745 2.39885L467.898 28.8236L471.424 26.935ZM500.265 40H498.265V42H500.265V40ZM500.265 1.45454V-0.545456H498.265V1.45454H500.265ZM528.045 1.45454H530.045V-0.545456H528.045V1.45454ZM528.045 9.88636V11.8864H530.045V9.88636H528.045ZM510.729 9.88636V7.88636H508.729V9.88636H510.729ZM510.729 16.5114H508.729V18.5114H510.729V16.5114ZM526.614 16.5114H528.614V14.5114H526.614V16.5114ZM526.614 24.9432V26.9432H528.614V24.9432H526.614ZM510.729 24.9432V22.9432H508.729V24.9432H510.729ZM510.729 31.5682H508.729V33.5682H510.729V31.5682ZM527.969 31.5682H529.969V29.5682H527.969V31.5682ZM527.969 40V42H529.969V40H527.969ZM502.265 40V1.45454H498.265V40H502.265ZM500.265 3.45454H528.045V-0.545456H500.265V3.45454ZM526.045 1.45454V9.88636H530.045V1.45454H526.045ZM528.045 7.88636H510.729V11.8864H528.045V7.88636ZM508.729 9.88636V16.5114H512.729V9.88636H508.729ZM510.729 18.5114H526.614V14.5114H510.729V18.5114ZM524.614 16.5114V24.9432H528.614V16.5114H524.614ZM526.614 22.9432H510.729V26.9432H526.614V22.9432ZM508.729 24.9432V31.5682H512.729V24.9432H508.729ZM510.729 33.5682H527.969V29.5682H510.729V33.5682ZM525.969 31.5682V40H529.969V31.5682H525.969ZM527.969 38H500.265V42H527.969V38ZM556.663 13.5L554.669 13.6595L554.817 15.5H556.663V13.5ZM555.251 10.5639L553.957 12.0889L553.963 12.0937L553.969 12.0985L555.251 10.5639ZM548.815 9.90518L549.509 11.7807L549.519 11.7772L549.528 11.7736L548.815 9.90518ZM547.309 10.9403L545.703 9.74769L547.309 10.9403ZM546.801 12.446L548.798 12.554L548.8 12.5222L548.8 12.4905L546.801 12.446ZM547.045 13.707L545.257 14.6015L545.275 14.6377L545.294 14.6732L547.045 13.707ZM547.987 14.7045L546.833 16.3385L546.849 16.35L546.866 16.3611L547.987 14.7045ZM549.624 15.495L548.949 17.3777L549.624 15.495ZM551.995 16.1349L552.414 14.1793L552.406 14.1776L552.398 14.1759L551.995 16.1349ZM555.157 16.8125L554.738 18.7681L554.743 18.7691L555.157 16.8125ZM560.634 18.6005L559.758 20.3982L560.634 18.6005ZM564.361 21.2166L562.92 22.6036L562.929 22.6126L564.361 21.2166ZM566.488 24.5668L564.608 25.2502L564.611 25.2586L564.614 25.2669L566.488 24.5668ZM567.203 28.6321L569.203 28.642L569.203 28.6285L569.203 28.615L567.203 28.6321ZM565.302 35.0689L566.929 36.2314L565.302 35.0689ZM559.919 39.0778L559.188 37.216L559.185 37.2174L559.919 39.0778ZM542.773 38.9648L542.032 40.8224L542.035 40.8237L542.773 38.9648ZM536.976 34.3913L535.307 35.4938L535.315 35.5054L536.976 34.3913ZM534.906 26.4489V24.4489H532.898L532.906 26.4566L534.906 26.4489ZM544.843 26.4489L546.841 26.3426L546.74 24.4489H544.843V26.4489ZM545.728 29.4226L544.056 30.5199L545.728 29.4226ZM547.949 31.2482L547.152 33.0828L547.161 33.0865L547.949 31.2482ZM554.197 31.4553L554.886 33.333L554.197 31.4553ZM555.91 30.3072L557.476 31.5517V31.5517L555.91 30.3072ZM556.512 28.6321L558.512 28.6721L558.513 28.6308L558.512 28.5896L556.512 28.6321ZM555.929 27.0888L554.371 28.3434L554.391 28.3672L554.41 28.3904L555.929 27.0888ZM554.122 25.8842L553.328 27.7197L553.339 27.7247L553.351 27.7296L554.122 25.8842ZM550.716 24.8679L551.144 22.9143L551.137 22.9129L550.716 24.8679ZM546.876 24.0398L546.452 25.9943L546.454 25.9948L546.876 24.0398ZM538.802 20.332L537.471 21.8253L537.481 21.8342L538.802 20.332ZM535.885 13.1989L537.885 13.2072V13.1979V13.1886L535.885 13.1989ZM537.842 6.7809L536.22 5.61112L536.218 5.61316L537.842 6.7809ZM543.357 2.47088L542.557 0.637667L542.553 0.639239L543.357 2.47088ZM559.543 2.4897L558.709 4.30767L559.543 2.4897ZM564.794 6.89382L563.116 7.98263L563.12 7.98908L563.124 7.99551L564.794 6.89382ZM566.676 13.5V15.5H568.686L568.676 13.49L566.676 13.5ZM558.657 13.3405C558.52 11.6372 557.849 10.1284 556.534 9.02936L553.969 12.0985C554.335 12.4048 554.605 12.8533 554.669 13.6595L558.657 13.3405ZM556.545 9.0389C555.201 7.89861 553.384 7.50994 551.468 7.50994V11.5099C552.94 11.5099 553.645 11.8239 553.957 12.0889L556.545 9.0389ZM551.468 7.50994C550.248 7.50994 549.098 7.65602 548.101 8.03675L549.528 11.7736C549.911 11.6274 550.531 11.5099 551.468 11.5099V7.50994ZM548.12 8.02969C547.193 8.37287 546.324 8.91227 545.703 9.74769L548.914 12.133C548.946 12.0901 549.081 11.9394 549.509 11.7807L548.12 8.02969ZM545.703 9.74769C545.122 10.5308 544.823 11.4369 544.801 12.4016L548.8 12.4905C548.804 12.3258 548.844 12.2282 548.914 12.133L545.703 9.74769ZM544.804 12.3381C544.762 13.1117 544.897 13.8829 545.257 14.6015L548.834 12.8126C548.817 12.7783 548.789 12.7089 548.798 12.554L544.804 12.3381ZM545.294 14.6732C545.674 15.361 546.221 15.9064 546.833 16.3385L549.14 13.0706C548.899 12.9004 548.819 12.7808 548.797 12.7409L545.294 14.6732ZM546.866 16.3611C547.471 16.7708 548.18 17.1022 548.949 17.3777L550.299 13.6123C549.737 13.4111 549.355 13.2155 549.107 13.048L546.866 16.3611ZM548.949 17.3777C549.726 17.6563 550.612 17.8925 551.593 18.094L552.398 14.1759C551.547 14.001 550.852 13.8106 550.299 13.6123L548.949 17.3777ZM551.576 18.0905L554.738 18.7681L555.576 14.8569L552.414 14.1793L551.576 18.0905ZM554.743 18.7691C556.76 19.1962 558.422 19.7468 559.758 20.3982L561.511 16.8028C559.81 15.9736 557.821 15.3322 555.572 14.8559L554.743 18.7691ZM559.758 20.3982C561.109 21.0569 562.147 21.8003 562.92 22.6036L565.802 19.8297C564.643 18.6254 563.196 17.6247 561.511 16.8028L559.758 20.3982ZM562.929 22.6126C563.706 23.4105 564.258 24.2872 564.608 25.2502L568.367 23.8833C567.814 22.362 566.948 21.0052 565.793 19.8207L562.929 22.6126ZM564.614 25.2669C564.988 26.2684 565.192 27.3896 565.203 28.6492L569.203 28.615C569.188 26.9385 568.915 25.3495 568.361 23.8666L564.614 25.2669ZM565.203 28.6222C565.192 30.8173 564.649 32.5418 563.674 33.9064L566.929 36.2314C568.464 34.0827 569.189 31.516 569.203 28.642L565.203 28.6222ZM563.674 33.9064C562.679 35.2999 561.221 36.4181 559.188 37.216L560.65 40.9395C563.284 39.9055 565.415 38.3512 566.929 36.2314L563.674 33.9064ZM559.185 37.2174C557.157 38.0175 554.628 38.4517 551.544 38.4517V42.4517C554.984 42.4517 558.038 41.9699 560.653 40.9382L559.185 37.2174ZM551.544 38.4517C548.386 38.4517 545.723 37.9841 543.511 37.106L542.035 40.8237C544.817 41.9281 548.001 42.4517 551.544 42.4517V38.4517ZM543.514 37.1072C541.373 36.253 539.775 34.9732 538.637 33.2773L535.315 35.5054C536.938 37.925 539.204 39.6942 542.032 40.8224L543.514 37.1072ZM538.645 33.2889C537.548 31.6278 536.917 29.3916 536.906 26.4411L532.906 26.4566C532.919 29.9555 533.669 33.0142 535.307 35.4937L538.645 33.2889ZM534.906 28.4489H544.843V24.4489H534.906V28.4489ZM542.846 26.5551C542.923 28.0072 543.295 29.3602 544.056 30.5199L547.4 28.3253C547.107 27.879 546.889 27.2495 546.841 26.3426L542.846 26.5551ZM544.056 30.5199C544.814 31.6756 545.872 32.5268 547.152 33.0827L548.745 29.4137C548.119 29.1415 547.696 28.7756 547.4 28.3253L544.056 30.5199ZM547.161 33.0865C548.433 33.6315 549.862 33.8693 551.393 33.8693V29.8693C550.265 29.8693 549.397 29.693 548.737 29.4099L547.161 33.0865ZM551.393 33.8693C552.659 33.8693 553.845 33.7148 554.886 33.333L553.509 29.5775C553.045 29.7477 552.36 29.8693 551.393 29.8693V33.8693ZM554.886 33.333C555.888 32.9657 556.802 32.3994 557.476 31.5517L554.344 29.0627C554.24 29.1936 554.013 29.3927 553.509 29.5775L554.886 33.333ZM557.476 31.5517C558.139 30.7178 558.491 29.7358 558.512 28.6721L554.513 28.5921C554.509 28.7831 554.46 28.9179 554.344 29.0627L557.476 31.5517ZM558.512 28.5896C558.49 27.5471 558.132 26.5852 557.448 25.7872L554.41 28.3904C554.479 28.4706 554.51 28.5376 554.513 28.6746L558.512 28.5896ZM557.487 25.8341C556.827 25.016 555.883 24.4523 554.893 24.0389L553.351 27.7296C554.043 28.0188 554.303 28.2581 554.371 28.3434L557.487 25.8341ZM554.917 24.0488C553.91 23.6129 552.635 23.2413 551.144 22.9143L550.287 26.8215C551.657 27.1219 552.653 27.4278 553.328 27.7197L554.917 24.0488ZM551.137 22.9129L547.298 22.0847L546.454 25.9948L550.294 26.8229L551.137 22.9129ZM547.3 22.0852C544.113 21.394 541.766 20.2746 540.122 18.8298L537.481 21.8342C539.778 23.8526 542.813 25.205 546.452 25.9943L547.3 22.0852ZM540.132 18.8388C538.669 17.5347 537.874 15.7396 537.885 13.2072L533.885 13.1905C533.87 16.6809 535.02 19.6412 537.471 21.8253L540.132 18.8388ZM537.885 13.1886C537.874 11.1268 538.416 9.40815 539.466 7.94863L536.218 5.61316C534.633 7.81746 533.87 10.3775 533.885 13.2091L537.885 13.1886ZM539.464 7.95067C540.56 6.43139 542.098 5.20648 544.16 4.30252L542.553 0.639239C539.922 1.79304 537.784 3.44148 536.22 5.61112L539.464 7.95067ZM544.156 4.30409C546.221 3.40361 548.644 2.92756 551.468 2.92756V-1.07244C548.194 -1.07244 545.21 -0.519619 542.557 0.637671L544.156 4.30409ZM551.468 2.92756C554.361 2.92756 556.755 3.41185 558.709 4.30767L560.376 0.671729C557.788 -0.515306 554.799 -1.07244 551.468 -1.07244V2.92756ZM558.709 4.30767C560.673 5.20836 562.114 6.43937 563.116 7.98263L566.471 5.80502C565.014 3.55897 562.954 1.8539 560.376 0.671729L558.709 4.30767ZM563.124 7.99551C564.128 9.51599 564.665 11.3287 564.676 13.51L568.676 13.49C568.661 10.6273 567.944 8.03585 566.463 5.79214L563.124 7.99551ZM566.676 11.5H556.663V15.5H566.676V11.5Z" fill="white" mask="url(#path-1-outside-1_69_1869)"/>
</svg>
