<svg width="130" height="41" viewBox="0 0 130 41" fill="none" xmlns="http://www.w3.org/2000/svg">
<mask id="mask0_218_6" style="mask-type:alpha" maskUnits="userSpaceOnUse" x="0" y="0" width="130" height="41">
<rect width="130" height="41" fill="#D9D9D9"/>
</mask>
<g mask="url(#mask0_218_6)">
<mask id="path-2-outside-1_218_6" maskUnits="userSpaceOnUse" x="3" y="3" width="122" height="35" fill="black">
<rect fill="white" x="3" y="3" width="122" height="35"/>
<path d="M17.0682 35H5.875V5.90909H16.9545C19.947 5.90909 22.5322 6.49148 24.7102 7.65625C26.8977 8.81155 28.5833 10.4782 29.767 12.6562C30.9602 14.8248 31.5568 17.4242 31.5568 20.4545C31.5568 23.4848 30.965 26.089 29.7812 28.267C28.5975 30.4356 26.9214 32.1023 24.7528 33.267C22.5843 34.4223 20.0227 35 17.0682 35ZM13.7727 28.2955H16.7841C18.2235 28.2955 19.4498 28.0634 20.4631 27.5994C21.4858 27.1354 22.2623 26.3352 22.7926 25.1989C23.3324 24.0625 23.6023 22.4811 23.6023 20.4545C23.6023 18.428 23.3277 16.8466 22.7784 15.7102C22.2386 14.5739 21.4432 13.7737 20.392 13.3097C19.3504 12.8456 18.072 12.6136 16.5568 12.6136H13.7727V28.2955ZM65.3928 20.4545C65.3928 23.6932 64.763 26.4252 63.5036 28.6506C62.2441 30.8665 60.5443 32.5473 58.4041 33.6932C56.264 34.8295 53.8776 35.3977 51.245 35.3977C48.5935 35.3977 46.1977 34.8248 44.0575 33.679C41.9268 32.5237 40.2318 30.8381 38.9723 28.6222C37.7223 26.3968 37.0973 23.6742 37.0973 20.4545C37.0973 17.2159 37.7223 14.4886 38.9723 12.2727C40.2318 10.0473 41.9268 8.36648 44.0575 7.23011C46.1977 6.08428 48.5935 5.51136 51.245 5.51136C53.8776 5.51136 56.264 6.08428 58.4041 7.23011C60.5443 8.36648 62.2441 10.0473 63.5036 12.2727C64.763 14.4886 65.3928 17.2159 65.3928 20.4545ZM57.2678 20.4545C57.2678 18.7121 57.0357 17.2443 56.5717 16.0511C56.1172 14.8485 55.4401 13.9394 54.5405 13.3239C53.6503 12.6989 52.5518 12.3864 51.245 12.3864C49.9382 12.3864 48.835 12.6989 47.9354 13.3239C47.0452 13.9394 46.3681 14.8485 45.9041 16.0511C45.4496 17.2443 45.2223 18.7121 45.2223 20.4545C45.2223 22.197 45.4496 23.6695 45.9041 24.8722C46.3681 26.0653 47.0452 26.9744 47.9354 27.5994C48.835 28.215 49.9382 28.5227 51.245 28.5227C52.5518 28.5227 53.6503 28.215 54.5405 27.5994C55.4401 26.9744 56.1172 26.0653 56.5717 24.8722C57.0357 23.6695 57.2678 22.197 57.2678 20.4545ZM96.2173 5.90909V35H89.6264L79.1151 19.7159H78.9446V35H71.0469V5.90909H77.7514L88.0923 21.1364H88.3196V5.90909H96.2173ZM101.953 35V5.90909H122.919V12.2727H109.851V17.2727H121.839V23.6364H109.851V28.6364H122.862V35H101.953Z"/>
</mask>
<path d="M5.875 35H3.875V37H5.875V35ZM5.875 5.90909V3.90909H3.875V5.90909H5.875ZM24.7102 7.65625L23.767 9.41992L23.7762 9.42476L24.7102 7.65625ZM29.767 12.6562L28.0098 13.6113L28.0148 13.6204L29.767 12.6562ZM29.7812 28.267L31.5368 29.2253L31.5385 29.2221L29.7812 28.267ZM24.7528 33.267L25.6932 35.0322L25.6992 35.029L24.7528 33.267ZM13.7727 28.2955H11.7727V30.2955H13.7727V28.2955ZM20.4631 27.5994L19.6367 25.7781L19.6303 25.781L20.4631 27.5994ZM22.7926 25.1989L20.986 24.3407L20.9802 24.3531L22.7926 25.1989ZM22.7784 15.7102L20.9718 16.5684L20.9777 16.5806L22.7784 15.7102ZM20.392 13.3097L19.5782 15.1366L19.5844 15.1393L20.392 13.3097ZM13.7727 12.6136V10.6136H11.7727V12.6136H13.7727ZM17.0682 33H5.875V37H17.0682V33ZM7.875 35V5.90909H3.875V35H7.875ZM5.875 7.90909H16.9545V3.90909H5.875V7.90909ZM16.9545 7.90909C19.687 7.90909 21.9345 8.43987 23.7671 9.41989L25.6534 5.89261C23.1299 4.54308 20.207 3.90909 16.9545 3.90909V7.90909ZM23.7762 9.42476C25.6144 10.3956 27.0139 11.7789 28.0098 13.6113L31.5243 11.7012C30.1528 9.17758 28.1811 7.22755 25.6442 5.88774L23.7762 9.42476ZM28.0148 13.6204C29.0128 15.4342 29.5568 17.6865 29.5568 20.4545H33.5568C33.5568 17.162 32.9077 14.2154 31.5193 11.6921L28.0148 13.6204ZM29.5568 20.4545C29.5568 23.2247 29.0167 25.4855 28.024 27.312L31.5385 29.2221C32.9133 26.6925 33.5568 23.745 33.5568 20.4545H29.5568ZM28.0258 27.3088C27.0273 29.1379 25.6317 30.5248 23.8065 31.5051L25.6992 35.029C28.2111 33.6798 30.1678 31.7333 31.5367 29.2253L28.0258 27.3088ZM23.8125 31.5019C21.9865 32.4747 19.7607 33 17.0682 33V37C20.2847 37 23.1821 36.37 25.6932 35.0322L23.8125 31.5019ZM13.7727 30.2955H16.7841V26.2955H13.7727V30.2955ZM16.7841 30.2955C18.4304 30.2955 19.9568 30.031 21.2958 29.4178L19.6303 25.781C18.9428 26.0959 18.0166 26.2955 16.7841 26.2955V30.2955ZM21.2894 29.4207C22.7979 28.7363 23.898 27.5595 24.605 26.0446L20.9802 24.3531C20.6266 25.111 20.1737 25.5345 19.6367 25.7781L21.2894 29.4207ZM24.5992 26.057C25.3209 24.5376 25.6023 22.6171 25.6023 20.4545H21.6023C21.6023 22.345 21.3439 23.5874 20.9861 24.3407L24.5992 26.057ZM25.6023 20.4545C25.6023 18.2889 25.3154 16.3633 24.5791 14.8399L20.9777 16.5806C21.3399 17.3298 21.6023 18.5672 21.6023 20.4545H25.6023ZM24.585 14.8521C23.8605 13.3269 22.7323 12.1566 21.1997 11.48L19.5844 15.1393C20.154 15.3908 20.6168 15.8209 20.9719 16.5683L24.585 14.8521ZM21.2059 11.4827C19.8386 10.8737 18.2648 10.6136 16.5568 10.6136V14.6136C17.8791 14.6136 18.8621 14.8176 19.5782 15.1366L21.2059 11.4827ZM16.5568 10.6136H13.7727V14.6136H16.5568V10.6136ZM11.7727 12.6136V28.2955H15.7727V12.6136H11.7727ZM63.5036 28.6506L65.2423 29.6388L65.2441 29.6357L63.5036 28.6506ZM58.4041 33.6932L59.3421 35.4596L59.3481 35.4564L58.4041 33.6932ZM44.0575 33.679L43.1042 35.4372L43.1135 35.4422L44.0575 33.679ZM38.9723 28.6222L37.2285 29.6016L37.2335 29.6104L38.9723 28.6222ZM38.9723 12.2727L37.2317 11.2876L37.2303 11.2901L38.9723 12.2727ZM44.0575 7.23011L44.9987 8.99482L45.0015 8.9933L44.0575 7.23011ZM58.4041 7.23011L57.4601 8.99331L57.4662 8.99655L58.4041 7.23011ZM63.5036 12.2727L61.763 13.2578L61.7648 13.261L63.5036 12.2727ZM56.5717 16.0511L54.7009 16.7582L54.7043 16.7671L54.7077 16.776L56.5717 16.0511ZM54.5405 13.3239L53.3912 14.9607L53.4011 14.9676L53.4111 14.9745L54.5405 13.3239ZM47.9354 13.3239L49.0729 14.9689L49.0765 14.9664L47.9354 13.3239ZM45.9041 16.0511L44.0382 15.3312L44.0351 15.3391L45.9041 16.0511ZM45.9041 24.8722L44.0333 25.5792L44.0367 25.5882L44.0401 25.5971L45.9041 24.8722ZM47.9354 27.5994L46.7861 29.2363L46.796 29.2432L46.806 29.25L47.9354 27.5994ZM54.5405 27.5994L55.678 29.2445L55.6816 29.2419L54.5405 27.5994ZM56.5717 24.8722L54.7058 24.1522L54.7028 24.1602L56.5717 24.8722ZM63.3928 20.4545C63.3928 23.4383 62.8128 25.8105 61.763 27.6655L65.2441 29.6357C66.7132 27.0399 67.3928 23.9481 67.3928 20.4545H63.3928ZM61.7648 27.6623C60.682 29.5673 59.2505 30.9714 57.4601 31.93L59.3481 35.4564C61.838 34.1233 63.8061 32.1657 65.2423 29.6388L61.7648 27.6623ZM57.4662 31.9267C55.6394 32.8967 53.5795 33.3977 51.245 33.3977V37.3977C54.1757 37.3977 56.8885 36.7624 59.342 35.4596L57.4662 31.9267ZM51.245 33.3977C48.8918 33.3977 46.8251 32.8921 45.0015 31.9158L43.1135 35.4422C45.5703 36.7575 48.2952 37.3977 51.245 37.3977V33.3977ZM45.0109 31.9208C43.2261 30.9531 41.7958 29.5424 40.7111 27.6339L37.2335 29.6104C38.6677 32.1338 40.6276 34.0943 43.1042 35.4372L45.0109 31.9208ZM40.716 27.6427C39.6725 25.7849 39.0973 23.4193 39.0973 20.4545H35.0973C35.0973 23.9292 35.7721 27.0087 37.2286 29.6016L40.716 27.6427ZM39.0973 20.4545C39.0973 17.4681 39.6736 15.1003 40.7143 13.2554L37.2303 11.2901C35.771 13.877 35.0973 16.9637 35.0973 20.4545H39.0973ZM40.7129 13.2578C41.7968 11.3425 43.2232 9.94176 44.9987 8.99482L43.1164 5.46541C40.6305 6.79119 38.6667 8.75216 37.2317 11.2876L40.7129 13.2578ZM45.0015 8.9933C46.8251 8.01697 48.8918 7.51136 51.245 7.51136V3.51136C48.2952 3.51136 45.5703 4.15159 43.1135 5.46692L45.0015 8.9933ZM51.245 7.51136C53.5767 7.51136 55.6345 8.01585 57.4601 8.9933L59.3481 5.46692C56.8935 4.1527 54.1785 3.51136 51.245 3.51136V7.51136ZM57.4662 8.99655C59.2508 9.94415 60.6803 11.3448 61.763 13.2578L65.2441 11.2876C63.8079 8.74989 61.8377 6.7888 59.342 5.46368L57.4662 8.99655ZM61.7648 13.261C62.8127 15.1047 63.3928 17.4704 63.3928 20.4545H67.3928C67.3928 16.9614 66.7134 13.8726 65.2423 11.2845L61.7648 13.261ZM59.2678 20.4545C59.2678 18.5479 59.0157 16.8175 58.4357 15.3262L54.7077 16.776C55.0558 17.6711 55.2678 18.8763 55.2678 20.4545H59.2678ZM58.4426 15.344C57.8699 13.8289 56.9646 12.5592 55.6699 11.6732L53.4111 14.9745C53.9156 15.3196 54.3645 15.8681 54.7009 16.7582L58.4426 15.344ZM55.6897 11.687C54.3998 10.7813 52.8786 10.3864 51.245 10.3864V14.3864C52.2251 14.3864 52.9008 14.6164 53.3912 14.9607L55.6897 11.687ZM51.245 10.3864C49.6107 10.3864 48.0894 10.7816 46.7943 11.6813L49.0765 14.9664C49.5806 14.6161 50.2657 14.3864 51.245 14.3864V10.3864ZM46.7979 11.6788C45.5186 12.5634 44.6185 13.827 44.0382 15.3312L47.7701 16.7711C48.1177 15.8699 48.5718 15.3154 49.0729 14.9689L46.7979 11.6788ZM44.0351 15.3391C43.4687 16.826 43.2223 18.5516 43.2223 20.4545H47.2223C47.2223 18.8726 47.4304 17.6626 47.7731 16.7631L44.0351 15.3391ZM43.2223 20.4545C43.2223 22.3582 43.4689 24.0861 44.0333 25.5792L47.775 24.1651C47.4302 23.253 47.2223 22.0357 47.2223 20.4545H43.2223ZM44.0401 25.5971C44.6213 27.0916 45.5191 28.3467 46.7861 29.2363L49.0846 25.9626C48.5713 25.6022 48.115 25.0391 47.7681 24.1473L44.0401 25.5971ZM46.806 29.25C48.0998 30.1353 49.6167 30.5227 51.245 30.5227V26.5227C50.2597 26.5227 49.5702 26.2947 49.0647 25.9488L46.806 29.25ZM51.245 30.5227C52.8725 30.5227 54.3893 30.1355 55.678 29.2444L53.403 25.9544C52.9113 26.2944 52.2312 26.5227 51.245 26.5227V30.5227ZM55.6816 29.2419C56.9641 28.3509 57.8672 27.0897 58.4407 25.5841L54.7028 24.1602C54.3672 25.041 53.9161 25.5979 53.3994 25.9569L55.6816 29.2419ZM58.4377 25.5921C59.0154 24.0946 59.2678 22.362 59.2678 20.4545H55.2678C55.2678 22.0319 55.056 23.2444 54.7058 24.1522L58.4377 25.5921ZM96.2173 5.90909H98.2173V3.90909H96.2173V5.90909ZM96.2173 35V37H98.2173V35H96.2173ZM89.6264 35L87.9785 36.1333L88.5746 37H89.6264V35ZM79.1151 19.7159L80.763 18.5826L80.1669 17.7159H79.1151V19.7159ZM78.9446 19.7159V17.7159H76.9446V19.7159H78.9446ZM78.9446 35V37H80.9446V35H78.9446ZM71.0469 35H69.0469V37H71.0469V35ZM71.0469 5.90909V3.90909H69.0469V5.90909H71.0469ZM77.7514 5.90909L79.406 4.78548L78.8108 3.90909H77.7514V5.90909ZM88.0923 21.1364L86.4378 22.26L87.033 23.1364H88.0923V21.1364ZM88.3196 21.1364V23.1364H90.3196V21.1364H88.3196ZM88.3196 5.90909V3.90909H86.3196V5.90909H88.3196ZM94.2173 5.90909V35H98.2173V5.90909H94.2173ZM96.2173 33H89.6264V37H96.2173V33ZM91.2743 33.8667L80.763 18.5826L77.4672 20.8492L87.9785 36.1333L91.2743 33.8667ZM79.1151 17.7159H78.9446V21.7159H79.1151V17.7159ZM76.9446 19.7159V35H80.9446V19.7159H76.9446ZM78.9446 33H71.0469V37H78.9446V33ZM73.0469 35V5.90909H69.0469V35H73.0469ZM71.0469 7.90909H77.7514V3.90909H71.0469V7.90909ZM76.0969 7.0327L86.4378 22.26L89.7469 20.0128L79.406 4.78548L76.0969 7.0327ZM88.0923 23.1364H88.3196V19.1364H88.0923V23.1364ZM90.3196 21.1364V5.90909H86.3196V21.1364H90.3196ZM88.3196 7.90909H96.2173V3.90909H88.3196V7.90909ZM101.953 35H99.9531V37H101.953V35ZM101.953 5.90909V3.90909H99.9531V5.90909H101.953ZM122.919 5.90909H124.919V3.90909H122.919V5.90909ZM122.919 12.2727V14.2727H124.919V12.2727H122.919ZM109.851 12.2727V10.2727H107.851V12.2727H109.851ZM109.851 17.2727H107.851V19.2727H109.851V17.2727ZM121.839 17.2727H123.839V15.2727H121.839V17.2727ZM121.839 23.6364V25.6364H123.839V23.6364H121.839ZM109.851 23.6364V21.6364H107.851V23.6364H109.851ZM109.851 28.6364H107.851V30.6364H109.851V28.6364ZM122.862 28.6364H124.862V26.6364H122.862V28.6364ZM122.862 35V37H124.862V35H122.862ZM103.953 35V5.90909H99.9531V35H103.953ZM101.953 7.90909H122.919V3.90909H101.953V7.90909ZM120.919 5.90909V12.2727H124.919V5.90909H120.919ZM122.919 10.2727H109.851V14.2727H122.919V10.2727ZM107.851 12.2727V17.2727H111.851V12.2727H107.851ZM109.851 19.2727H121.839V15.2727H109.851V19.2727ZM119.839 17.2727V23.6364H123.839V17.2727H119.839ZM121.839 21.6364H109.851V25.6364H121.839V21.6364ZM107.851 23.6364V28.6364H111.851V23.6364H107.851ZM109.851 30.6364H122.862V26.6364H109.851V30.6364ZM120.862 28.6364V35H124.862V28.6364H120.862ZM122.862 33H101.953V37H122.862V33Z" fill="white" fill-opacity="0.4" mask="url(#path-2-outside-1_218_6)"/>
</g>
</svg>
