<svg width="36" height="36" viewBox="0 0 36 36" fill="none" xmlns="http://www.w3.org/2000/svg">
<g clip-path="url(#clip0_369_11)">
<path d="M26.91 26.91C24.3459 28.8645 21.2237 29.9473 18 30C7.5 30 1.5 18 1.5 18C3.36583 14.5229 5.9537 11.4849 9.09 9.09004M14.85 6.36004C15.8825 6.11836 16.9396 5.99755 18 6.00004C28.5 6.00004 34.5 18 34.5 18C33.5895 19.7034 32.5036 21.3071 31.26 22.785M21.18 21.18C20.768 21.6222 20.2712 21.9768 19.7192 22.2227C19.1672 22.4687 18.5714 22.6009 17.9671 22.6116C17.3629 22.6222 16.7627 22.5111 16.2024 22.2848C15.6421 22.0584 15.1331 21.7216 14.7058 21.2943C14.2785 20.867 13.9416 20.358 13.7153 19.7976C13.4889 19.2373 13.3778 18.6371 13.3885 18.0329C13.3991 17.4287 13.5314 16.8328 13.7773 16.2808C14.0233 15.7288 14.3779 15.232 14.82 14.82" stroke="#6BA6FF" stroke-width="2" stroke-linecap="round" stroke-linejoin="round"/>
<path d="M1.5 1.5L34.5 34.5" stroke="#6BA6FF" stroke-width="2" stroke-linecap="round" stroke-linejoin="round"/>
</g>
<defs>
<clipPath id="clip0_369_11">
<rect width="36" height="36" fill="white"/>
</clipPath>
</defs>
</svg>
