<svg width="517" height="498" viewBox="0 0 517 498" fill="none" xmlns="http://www.w3.org/2000/svg">
<path d="M387.787 15.8144C325.67 -39.6566 267.917 66.5262 189.006 93.2538C118.024 117.296 35.8766 79.2597 4.90255 147.429C-33.8187 232.65 169.231 218.84 179.434 311.869C185.649 368.534 138.107 394.464 136.679 451.451C132.435 620.767 638.469 279.787 489.57 198.737C459.85 182.559 433.108 193.464 407.25 171.649C360.341 132.074 433.562 56.6922 387.787 15.8144Z" fill="#3F3D3D"/>
<path d="M186.807 310V237.273H230.415V245.085H195.614V269.659H227.148V277.472H195.614V310H186.807ZM239.399 310H230.166L256.871 237.273H265.962L292.666 310H283.433L261.7 248.778H261.132L239.399 310ZM242.808 281.591H280.024V289.403H242.808V281.591ZM326.997 287.273H336.656L344.752 297.926L346.883 300.767L358.957 316.818H349.298L341.343 306.165L339.355 303.466L326.997 287.273ZM361.94 273.636C361.94 281.307 360.555 287.936 357.785 293.523C355.015 299.11 351.216 303.419 346.386 306.449C341.556 309.479 336.04 310.994 329.838 310.994C323.635 310.994 318.119 309.479 313.289 306.449C308.46 303.419 304.66 299.11 301.89 293.523C299.12 287.936 297.735 281.307 297.735 273.636C297.735 265.966 299.12 259.337 301.89 253.75C304.66 248.163 308.46 243.854 313.289 240.824C318.119 237.794 323.635 236.278 329.838 236.278C336.04 236.278 341.556 237.794 346.386 240.824C351.216 243.854 355.015 248.163 357.785 253.75C360.555 259.337 361.94 265.966 361.94 273.636ZM353.417 273.636C353.417 267.339 352.364 262.024 350.257 257.692C348.173 253.359 345.344 250.08 341.77 247.855C338.218 245.63 334.241 244.517 329.838 244.517C325.434 244.517 321.445 245.63 317.87 247.855C314.319 250.08 311.49 253.359 309.383 257.692C307.3 262.024 306.258 267.339 306.258 273.636C306.258 279.934 307.3 285.249 309.383 289.581C311.49 293.913 314.319 297.192 317.87 299.418C321.445 301.643 325.434 302.756 329.838 302.756C334.241 302.756 338.218 301.643 341.77 299.418C345.344 297.192 348.173 293.913 350.257 289.581C352.364 285.249 353.417 279.934 353.417 273.636ZM414.248 267.67L406.72 269.801C406.246 268.546 405.548 267.327 404.625 266.143C403.725 264.936 402.494 263.942 400.931 263.161C399.369 262.379 397.368 261.989 394.93 261.989C391.592 261.989 388.81 262.758 386.585 264.297C384.383 265.812 383.282 267.741 383.282 270.085C383.282 272.169 384.04 273.814 385.555 275.021C387.07 276.229 389.438 277.235 392.657 278.04L400.754 280.028C405.631 281.212 409.265 283.023 411.656 285.462C414.047 287.876 415.243 290.99 415.243 294.801C415.243 297.926 414.343 300.72 412.544 303.182C410.768 305.644 408.282 307.585 405.086 309.006C401.89 310.426 398.173 311.136 393.936 311.136C388.372 311.136 383.768 309.929 380.122 307.514C376.476 305.099 374.168 301.572 373.197 296.932L381.152 294.943C381.909 297.879 383.342 300.08 385.449 301.548C387.579 303.016 390.361 303.75 393.794 303.75C397.7 303.75 400.801 302.921 403.098 301.264C405.418 299.583 406.578 297.571 406.578 295.227C406.578 293.333 405.915 291.747 404.589 290.469C403.263 289.167 401.227 288.196 398.481 287.557L389.39 285.426C384.395 284.242 380.725 282.408 378.382 279.922C376.062 277.412 374.902 274.276 374.902 270.511C374.902 267.434 375.766 264.711 377.494 262.344C379.246 259.976 381.625 258.118 384.632 256.768C387.662 255.419 391.095 254.744 394.93 254.744C400.328 254.744 404.565 255.928 407.643 258.295C410.744 260.663 412.946 263.788 414.248 267.67Z" fill="white"/>
<path d="M186.794 218C186.554 218 186.368 217.92 186.234 217.76C186.101 217.573 186.034 217.333 186.034 217.04C186.034 216.613 186.181 216.293 186.474 216.08C186.794 215.867 187.221 215.76 187.754 215.76H188.754V200.64H186.794C186.288 200.64 186.034 200.333 186.034 199.72C186.034 199.267 186.181 198.933 186.474 198.72C186.794 198.507 187.221 198.4 187.754 198.4H192.274V201.08H192.434C194.674 199.027 196.968 198 199.314 198C201.208 198 202.768 198.56 203.994 199.68C205.248 200.773 205.874 202.267 205.874 204.16V215.76L207.674 216.28C208.101 216.413 208.408 216.573 208.594 216.76C208.781 216.92 208.874 217.147 208.874 217.44C208.874 217.813 208.701 218 208.354 218H200.194C199.954 218 199.768 217.92 199.634 217.76C199.501 217.573 199.434 217.333 199.434 217.04C199.434 216.613 199.581 216.293 199.874 216.08C200.194 215.867 200.621 215.76 201.154 215.76H202.154V204.48C202.154 203.28 201.808 202.32 201.114 201.6C200.421 200.88 199.434 200.52 198.154 200.52C197.168 200.52 196.181 200.787 195.194 201.32C194.208 201.853 193.301 202.573 192.474 203.48V215.76L194.274 216.28C194.701 216.387 195.008 216.533 195.194 216.72C195.381 216.907 195.474 217.147 195.474 217.44C195.474 217.813 195.301 218 194.954 218H186.794ZM217.464 218.52C215.757 218.52 214.304 218.04 213.104 217.08C211.904 216.12 211.304 214.76 211.304 213C211.304 211.053 211.997 209.627 213.384 208.72C214.771 207.787 216.571 207.147 218.784 206.8L224.024 206V204.4C224.024 203.173 223.637 202.2 222.864 201.48C222.117 200.76 221.077 200.4 219.744 200.4C218.971 200.4 218.091 200.533 217.104 200.8C216.144 201.067 215.371 201.387 214.784 201.76L214.384 203.48C214.171 204.36 213.757 204.8 213.144 204.8C212.904 204.8 212.717 204.747 212.584 204.64C212.477 204.507 212.424 204.347 212.424 204.16V200.24C213.517 199.6 214.771 199.067 216.184 198.64C217.624 198.213 219.011 198 220.344 198C222.531 198 224.317 198.56 225.704 199.68C227.091 200.8 227.784 202.4 227.784 204.48V215.84L229.184 216.28C229.637 216.44 229.957 216.6 230.144 216.76C230.331 216.92 230.424 217.147 230.424 217.44C230.424 217.813 230.251 218 229.904 218H224.104V215.48H223.944C223.224 216.413 222.304 217.16 221.184 217.72C220.064 218.253 218.824 218.52 217.464 218.52ZM218.624 216.04C219.531 216.04 220.397 215.827 221.224 215.4C222.077 214.947 222.757 214.36 223.264 213.64C223.771 212.893 224.024 212.093 224.024 211.24V208.28L219.544 209C218.131 209.24 217.024 209.667 216.224 210.28C215.451 210.867 215.064 211.707 215.064 212.8C215.064 213.84 215.384 214.64 216.024 215.2C216.691 215.76 217.557 216.04 218.624 216.04ZM240.257 218.52C238.71 218.52 237.417 218.053 236.377 217.12C235.337 216.187 234.817 214.907 234.817 213.28V200.92H232.097C231.857 200.92 231.657 200.827 231.497 200.64C231.363 200.453 231.297 200.213 231.297 199.92C231.297 199.493 231.443 199.16 231.737 198.92C232.057 198.653 232.483 198.52 233.017 198.52H234.857L235.497 194.16H238.537V198.52H244.697C244.857 198.52 244.99 198.573 245.097 198.68C245.203 198.76 245.257 198.893 245.257 199.08C245.257 199.427 245.11 199.693 244.817 199.88C244.523 200.067 244.043 200.213 243.377 200.32L238.577 200.92H238.537V213.52C238.537 214.373 238.763 215.027 239.217 215.48C239.67 215.907 240.283 216.12 241.057 216.12C241.563 216.12 242.017 216.04 242.417 215.88C242.817 215.72 243.217 215.467 243.617 215.12C243.99 214.8 244.297 214.64 244.537 214.64C244.803 214.64 245.03 214.733 245.217 214.92C245.403 215.107 245.497 215.36 245.497 215.68C245.497 215.947 245.377 216.24 245.137 216.56C244.923 216.853 244.59 217.133 244.137 217.4C242.99 218.147 241.697 218.52 240.257 218.52ZM254.3 218.52C252.593 218.52 251.14 218.04 249.94 217.08C248.74 216.12 248.14 214.76 248.14 213C248.14 211.053 248.833 209.627 250.22 208.72C251.607 207.787 253.407 207.147 255.62 206.8L260.86 206V204.4C260.86 203.173 260.473 202.2 259.7 201.48C258.953 200.76 257.913 200.4 256.58 200.4C255.807 200.4 254.927 200.533 253.94 200.8C252.98 201.067 252.207 201.387 251.62 201.76L251.22 203.48C251.007 204.36 250.593 204.8 249.98 204.8C249.74 204.8 249.553 204.747 249.42 204.64C249.313 204.507 249.26 204.347 249.26 204.16V200.24C250.353 199.6 251.607 199.067 253.02 198.64C254.46 198.213 255.847 198 257.18 198C259.367 198 261.153 198.56 262.54 199.68C263.927 200.8 264.62 202.4 264.62 204.48V215.84L266.02 216.28C266.473 216.44 266.793 216.6 266.98 216.76C267.167 216.92 267.26 217.147 267.26 217.44C267.26 217.813 267.087 218 266.74 218H260.94V215.48H260.78C260.06 216.413 259.14 217.16 258.02 217.72C256.9 218.253 255.66 218.52 254.3 218.52ZM255.46 216.04C256.367 216.04 257.233 215.827 258.06 215.4C258.913 214.947 259.593 214.36 260.1 213.64C260.607 212.893 260.86 212.093 260.86 211.24V208.28L256.38 209C254.967 209.24 253.86 209.667 253.06 210.28C252.287 210.867 251.9 211.707 251.9 212.8C251.9 213.84 252.22 214.64 252.86 215.2C253.527 215.76 254.393 216.04 255.46 216.04ZM270.544 218C270.304 218 270.118 217.92 269.984 217.76C269.851 217.573 269.784 217.333 269.784 217.04C269.784 216.613 269.931 216.293 270.224 216.08C270.544 215.867 270.971 215.76 271.504 215.76H272.504V200.64H270.544C270.038 200.64 269.784 200.333 269.784 199.72C269.784 199.267 269.931 198.933 270.224 198.72C270.544 198.507 270.971 198.4 271.504 198.4H276.024V202.4H276.184C277.144 201.173 278.238 200.133 279.464 199.28C280.718 198.427 281.878 198 282.944 198C283.584 198 284.078 198.187 284.424 198.56C284.771 198.907 284.944 199.347 284.944 199.88C284.944 200.573 284.744 201.147 284.344 201.6C281.384 201.6 278.678 202.707 276.224 204.92V215.76L278.024 216.28C278.451 216.413 278.758 216.573 278.944 216.76C279.131 216.92 279.224 217.147 279.224 217.44C279.224 217.813 279.051 218 278.704 218H270.544ZM292.738 218.52C291.031 218.52 289.578 218.04 288.378 217.08C287.178 216.12 286.578 214.76 286.578 213C286.578 211.053 287.271 209.627 288.658 208.72C290.044 207.787 291.844 207.147 294.058 206.8L299.298 206V204.4C299.298 203.173 298.911 202.2 298.138 201.48C297.391 200.76 296.351 200.4 295.018 200.4C294.244 200.4 293.364 200.533 292.378 200.8C291.418 201.067 290.644 201.387 290.058 201.76L289.658 203.48C289.444 204.36 289.031 204.8 288.418 204.8C288.178 204.8 287.991 204.747 287.858 204.64C287.751 204.507 287.698 204.347 287.698 204.16V200.24C288.791 199.6 290.044 199.067 291.458 198.64C292.898 198.213 294.284 198 295.618 198C297.804 198 299.591 198.56 300.978 199.68C302.364 200.8 303.058 202.4 303.058 204.48V215.84L304.458 216.28C304.911 216.44 305.231 216.6 305.418 216.76C305.604 216.92 305.698 217.147 305.698 217.44C305.698 217.813 305.524 218 305.178 218H299.378V215.48H299.218C298.498 216.413 297.578 217.16 296.458 217.72C295.338 218.253 294.098 218.52 292.738 218.52ZM293.898 216.04C294.804 216.04 295.671 215.827 296.498 215.4C297.351 214.947 298.031 214.36 298.538 213.64C299.044 212.893 299.298 212.093 299.298 211.24V208.28L294.818 209C293.404 209.24 292.298 209.667 291.498 210.28C290.724 210.867 290.338 211.707 290.338 212.8C290.338 213.84 290.658 214.64 291.298 215.2C291.964 215.76 292.831 216.04 293.898 216.04ZM314.462 195.36C313.715 195.36 313.089 195.12 312.582 194.64C312.102 194.16 311.862 193.533 311.862 192.76C311.862 191.987 312.102 191.373 312.582 190.92C313.089 190.44 313.715 190.2 314.462 190.2C315.182 190.2 315.782 190.44 316.262 190.92C316.769 191.373 317.022 191.987 317.022 192.76C317.022 193.533 316.769 194.16 316.262 194.64C315.782 195.12 315.182 195.36 314.462 195.36ZM308.902 227.32C308.289 227.32 307.769 227.093 307.342 226.64C306.942 226.213 306.729 225.533 306.702 224.6C308.889 223.827 310.435 222.88 311.342 221.76C312.249 220.667 312.702 219.08 312.702 217V200.64H310.742C310.235 200.64 309.982 200.333 309.982 199.72C309.982 198.84 310.555 198.4 311.702 198.4H316.422V217.24C316.422 221.8 314.689 224.933 311.222 226.64C310.715 226.88 310.289 227.053 309.942 227.16C309.622 227.267 309.275 227.32 308.902 227.32ZM338.363 218.52C336.656 218.52 335.203 218.04 334.003 217.08C332.803 216.12 332.203 214.76 332.203 213C332.203 211.053 332.896 209.627 334.283 208.72C335.669 207.787 337.469 207.147 339.683 206.8L344.923 206V204.4C344.923 203.173 344.536 202.2 343.763 201.48C343.016 200.76 341.976 200.4 340.643 200.4C339.869 200.4 338.989 200.533 338.003 200.8C337.043 201.067 336.269 201.387 335.683 201.76L335.283 203.48C335.069 204.36 334.656 204.8 334.043 204.8C333.803 204.8 333.616 204.747 333.483 204.64C333.376 204.507 333.323 204.347 333.323 204.16V200.24C334.416 199.6 335.669 199.067 337.083 198.64C338.523 198.213 339.909 198 341.243 198C343.429 198 345.216 198.56 346.603 199.68C347.989 200.8 348.683 202.4 348.683 204.48V215.84L350.083 216.28C350.536 216.44 350.856 216.6 351.043 216.76C351.229 216.92 351.323 217.147 351.323 217.44C351.323 217.813 351.149 218 350.803 218H345.003V215.48H344.843C344.123 216.413 343.203 217.16 342.083 217.72C340.963 218.253 339.723 218.52 338.363 218.52ZM339.523 216.04C340.429 216.04 341.296 215.827 342.123 215.4C342.976 214.947 343.656 214.36 344.163 213.64C344.669 212.893 344.923 212.093 344.923 211.24V208.28L340.443 209C339.029 209.24 337.923 209.667 337.123 210.28C336.349 210.867 335.963 211.707 335.963 212.8C335.963 213.84 336.283 214.64 336.923 215.2C337.589 215.76 338.456 216.04 339.523 216.04ZM358.167 195.36C357.42 195.36 356.794 195.12 356.287 194.64C355.807 194.16 355.567 193.533 355.567 192.76C355.567 191.987 355.807 191.373 356.287 190.92C356.794 190.44 357.42 190.2 358.167 190.2C358.887 190.2 359.487 190.44 359.967 190.92C360.474 191.373 360.727 191.987 360.727 192.76C360.727 193.533 360.474 194.16 359.967 194.64C359.487 195.12 358.887 195.36 358.167 195.36ZM354.407 218C354.167 218 353.98 217.92 353.847 217.76C353.714 217.573 353.647 217.333 353.647 217.04C353.647 216.613 353.794 216.293 354.087 216.08C354.407 215.867 354.834 215.76 355.367 215.76H356.367V200.64H354.407C353.9 200.64 353.647 200.333 353.647 199.72C353.647 199.267 353.794 198.933 354.087 198.72C354.407 198.507 354.834 198.4 355.367 198.4H360.087V215.76L361.887 216.28C362.314 216.413 362.62 216.573 362.807 216.76C362.994 216.92 363.087 217.147 363.087 217.44C363.087 217.813 362.914 218 362.567 218H354.407Z" fill="white"/>
</svg>
