<svg width="131" height="93" viewBox="0 0 131 93" fill="none" xmlns="http://www.w3.org/2000/svg">
<g filter="url(#filter0_di_348_8)">
<path d="M38.9439 68.696C35.2318 68.696 31.9257 68.058 29.0256 66.782C26.142 65.4893 23.8634 63.7161 22.1896 61.4624C20.5324 59.192 19.679 56.5736 19.6293 53.6072H30.4673C30.5336 54.8501 30.9396 55.9439 31.6854 56.8885C32.4477 57.8165 33.4586 58.5374 34.718 59.0511C35.9775 59.5649 37.3944 59.8217 38.9688 59.8217C40.6094 59.8217 42.0594 59.5317 43.3189 58.9517C44.5784 58.3717 45.5644 57.5679 46.277 56.5405C46.9896 55.513 47.3459 54.3281 47.3459 52.9858C47.3459 51.6269 46.9647 50.4254 46.2024 49.3814C45.4567 48.3208 44.3795 47.4922 42.9709 46.8956C41.5788 46.299 39.9216 46.0007 37.9993 46.0007H33.2514V38.0959H37.9993C39.6233 38.0959 41.0568 37.8142 42.2997 37.2507C43.5592 36.6873 44.5369 35.9084 45.233 34.9141C45.929 33.9032 46.277 32.7266 46.277 31.3842C46.277 30.1082 45.9704 28.9896 45.3572 28.0284C44.7607 27.0507 43.9155 26.2884 42.8217 25.7415C41.7446 25.1946 40.4851 24.9212 39.0433 24.9212C37.585 24.9212 36.2509 25.1863 35.0412 25.7166C33.8314 26.2303 32.862 26.9678 32.1328 27.929C31.4036 28.8901 31.0142 30.017 30.9645 31.3097H20.6484C20.6982 28.3764 21.535 25.7912 23.1591 23.554C24.7831 21.3168 26.9706 19.5684 29.7216 18.3089C32.4891 17.0329 35.6129 16.3949 39.093 16.3949C42.6063 16.3949 45.6804 17.0329 48.3153 18.3089C50.9503 19.585 52.9969 21.3085 54.4553 23.4794C55.9302 25.6338 56.6593 28.0533 56.6428 30.7379C56.6593 33.5883 55.7727 35.9664 53.983 37.8722C52.2098 39.7779 49.898 40.9877 47.0476 41.5014V41.8991C50.7929 42.3797 53.6432 43.6806 55.5987 45.8018C57.5708 47.9065 58.5485 50.5414 58.532 53.7067C58.5485 56.6068 57.7116 59.1837 56.0213 61.4375C54.3475 63.6913 52.0357 65.4645 49.0859 66.7571C46.1361 68.0497 42.7554 68.696 38.9439 68.696ZM84.6142 68H66.5673V17.0909H84.7633C89.8841 17.0909 94.2922 18.1101 97.9877 20.1484C101.683 22.1702 104.525 25.0786 106.514 28.8736C108.519 32.6686 109.522 37.2093 109.522 42.4957C109.522 47.7988 108.519 52.3561 106.514 56.1676C104.525 59.9792 101.667 62.9041 97.938 64.9425C94.2259 66.9808 89.7846 68 84.6142 68ZM77.3308 58.7777H84.1667C87.3485 58.7777 90.0249 58.2143 92.1958 57.0874C94.3833 55.9439 96.024 54.179 97.1177 51.7926C98.228 49.3897 98.7832 46.2907 98.7832 42.4957C98.7832 38.7339 98.228 35.6598 97.1177 33.2734C96.024 30.8871 94.3916 29.1304 92.2207 28.0035C90.0498 26.8767 87.3734 26.3132 84.1916 26.3132H77.3308V58.7777Z" fill="#8FB5FF"/>
</g>
<defs>
<filter id="filter0_di_348_8" x="0.62915" y="0.394531" width="129.893" height="92.3008" filterUnits="userSpaceOnUse" color-interpolation-filters="sRGB">
<feFlood flood-opacity="0" result="BackgroundImageFix"/>
<feColorMatrix in="SourceAlpha" type="matrix" values="0 0 0 0 0 0 0 0 0 0 0 0 0 0 0 0 0 0 127 0" result="hardAlpha"/>
<feOffset dx="1" dy="4"/>
<feGaussianBlur stdDeviation="10"/>
<feComposite in2="hardAlpha" operator="out"/>
<feColorMatrix type="matrix" values="0 0 0 0 0.0941176 0 0 0 0 0.0980392 0 0 0 0 0.101961 0 0 0 1 0"/>
<feBlend mode="normal" in2="BackgroundImageFix" result="effect1_dropShadow_348_8"/>
<feBlend mode="normal" in="SourceGraphic" in2="effect1_dropShadow_348_8" result="shape"/>
<feColorMatrix in="SourceAlpha" type="matrix" values="0 0 0 0 0 0 0 0 0 0 0 0 0 0 0 0 0 0 127 0" result="hardAlpha"/>
<feOffset dy="4"/>
<feGaussianBlur stdDeviation="2"/>
<feComposite in2="hardAlpha" operator="arithmetic" k2="-1" k3="1"/>
<feColorMatrix type="matrix" values="0 0 0 0 0.0941176 0 0 0 0 0.0980392 0 0 0 0 0.101961 0 0 0 1 0"/>
<feBlend mode="normal" in2="shape" result="effect2_innerShadow_348_8"/>
</filter>
</defs>
</svg>
