<svg width="1010" height="483" viewBox="0 0 1010 483" fill="none" xmlns="http://www.w3.org/2000/svg">
<mask id="mask0_355_46" style="mask-type:alpha" maskUnits="userSpaceOnUse" x="0" y="0" width="1010" height="483">
<rect width="1010" height="483" fill="#FF9595"/>
</mask>
<g mask="url(#mask0_355_46)">
<path d="M247.84 25.3359V251.508H325.184C319.52 287.055 316.59 305.219 316.395 306H247.84V434.32H187.781V306H22.2539C16.9805 303.461 14.3438 297.699 14.3438 288.715L229.09 18.5977C237.488 18.5977 243.738 20.8438 247.84 25.3359ZM188.953 112.055L78.5039 251.508H188.953V112.055ZM356.355 166.84C356.355 140.082 362.801 115.375 375.691 92.7188C388.777 69.8672 406.551 51.8008 429.012 38.5195C451.668 25.2383 476.375 18.5977 503.133 18.5977C543.953 18.5977 578.816 33.1484 607.723 62.25C636.824 91.1562 651.375 126.02 651.375 166.84C651.375 207.465 636.824 242.23 607.723 271.137C578.816 300.043 543.953 314.496 503.133 314.496C483.211 314.496 464.168 310.59 446.004 302.777C427.84 294.965 412.215 284.516 399.129 271.43C386.043 258.148 375.594 242.426 367.781 224.262C360.164 205.902 356.355 186.762 356.355 166.84ZM395.906 167.426C395.906 196.918 406.355 222.211 427.254 243.305C448.152 264.398 473.25 274.945 502.547 274.945C532.82 274.945 558.602 264.398 579.891 243.305C601.18 222.211 611.824 196.918 611.824 167.426C611.824 137.152 601.18 111.371 579.891 90.082C558.602 68.793 532.82 58.1484 502.547 58.1484C473.25 58.1484 448.152 68.793 427.254 90.082C406.355 111.371 395.906 137.152 395.906 167.426ZM926.004 25.3359V251.508H1003.35C997.684 287.055 994.754 305.219 994.559 306H926.004V434.32H865.945V306H700.418C695.145 303.461 692.508 297.699 692.508 288.715L907.254 18.5977C915.652 18.5977 921.902 20.8438 926.004 25.3359ZM867.117 112.055L756.668 251.508H867.117V112.055Z" fill="white"/>
<rect x="530" y="277.117" width="43.6494" height="229" rx="21.8247" transform="rotate(-25.977 530 277.117)" fill="white"/>
</g>
</svg>
