<svg width="271" height="84" viewBox="0 0 271 84" fill="none" xmlns="http://www.w3.org/2000/svg">
<path d="M93.7944 55C93.5544 55 93.3677 54.92 93.2344 54.76C93.101 54.5733 93.0344 54.3333 93.0344 54.04C93.0344 53.6133 93.181 53.2933 93.4744 53.08C93.7944 52.8667 94.221 52.76 94.7544 52.76H95.7544V37.64H93.7944C93.2877 37.64 93.0344 37.3333 93.0344 36.72C93.0344 36.2667 93.181 35.9333 93.4744 35.72C93.7944 35.5067 94.221 35.4 94.7544 35.4H99.2744V38.08H99.4344C101.674 36.0267 103.968 35 106.314 35C108.208 35 109.768 35.56 110.994 36.68C112.248 37.7733 112.874 39.2667 112.874 41.16V52.76L114.674 53.28C115.101 53.4133 115.408 53.5733 115.594 53.76C115.781 53.92 115.874 54.1467 115.874 54.44C115.874 54.8133 115.701 55 115.354 55H107.194C106.954 55 106.768 54.92 106.634 54.76C106.501 54.5733 106.434 54.3333 106.434 54.04C106.434 53.6133 106.581 53.2933 106.874 53.08C107.194 52.8667 107.621 52.76 108.154 52.76H109.154V41.48C109.154 40.28 108.808 39.32 108.114 38.6C107.421 37.88 106.434 37.52 105.154 37.52C104.168 37.52 103.181 37.7867 102.194 38.32C101.208 38.8533 100.301 39.5733 99.4744 40.48V52.76L101.274 53.28C101.701 53.3867 102.008 53.5333 102.194 53.72C102.381 53.9067 102.474 54.1467 102.474 54.44C102.474 54.8133 102.301 55 101.954 55H93.7944ZM124.464 55.52C122.757 55.52 121.304 55.04 120.104 54.08C118.904 53.12 118.304 51.76 118.304 50C118.304 48.0533 118.997 46.6267 120.384 45.72C121.771 44.7867 123.571 44.1467 125.784 43.8L131.024 43V41.4C131.024 40.1733 130.637 39.2 129.864 38.48C129.117 37.76 128.077 37.4 126.744 37.4C125.971 37.4 125.091 37.5333 124.104 37.8C123.144 38.0667 122.371 38.3867 121.784 38.76L121.384 40.48C121.171 41.36 120.757 41.8 120.144 41.8C119.904 41.8 119.717 41.7467 119.584 41.64C119.477 41.5067 119.424 41.3467 119.424 41.16V37.24C120.517 36.6 121.771 36.0667 123.184 35.64C124.624 35.2133 126.011 35 127.344 35C129.531 35 131.317 35.56 132.704 36.68C134.091 37.8 134.784 39.4 134.784 41.48V52.84L136.184 53.28C136.637 53.44 136.957 53.6 137.144 53.76C137.331 53.92 137.424 54.1467 137.424 54.44C137.424 54.8133 137.251 55 136.904 55H131.104V52.48H130.944C130.224 53.4133 129.304 54.16 128.184 54.72C127.064 55.2533 125.824 55.52 124.464 55.52ZM125.624 53.04C126.531 53.04 127.397 52.8267 128.224 52.4C129.077 51.9467 129.757 51.36 130.264 50.64C130.771 49.8933 131.024 49.0933 131.024 48.24V45.28L126.544 46C125.131 46.24 124.024 46.6667 123.224 47.28C122.451 47.8667 122.064 48.7067 122.064 49.8C122.064 50.84 122.384 51.64 123.024 52.2C123.691 52.76 124.557 53.04 125.624 53.04ZM147.257 55.52C145.71 55.52 144.417 55.0533 143.377 54.12C142.337 53.1867 141.817 51.9067 141.817 50.28V37.92H139.097C138.857 37.92 138.657 37.8267 138.497 37.64C138.363 37.4533 138.297 37.2133 138.297 36.92C138.297 36.4933 138.443 36.16 138.737 35.92C139.057 35.6533 139.483 35.52 140.017 35.52H141.857L142.497 31.16H145.537V35.52H151.697C151.857 35.52 151.99 35.5733 152.097 35.68C152.203 35.76 152.257 35.8933 152.257 36.08C152.257 36.4267 152.11 36.6933 151.817 36.88C151.523 37.0667 151.043 37.2133 150.377 37.32L145.577 37.92H145.537V50.52C145.537 51.3733 145.763 52.0267 146.217 52.48C146.67 52.9067 147.283 53.12 148.057 53.12C148.563 53.12 149.017 53.04 149.417 52.88C149.817 52.72 150.217 52.4667 150.617 52.12C150.99 51.8 151.297 51.64 151.537 51.64C151.803 51.64 152.03 51.7333 152.217 51.92C152.403 52.1067 152.497 52.36 152.497 52.68C152.497 52.9467 152.377 53.24 152.137 53.56C151.923 53.8533 151.59 54.1333 151.137 54.4C149.99 55.1467 148.697 55.52 147.257 55.52ZM161.3 55.52C159.593 55.52 158.14 55.04 156.94 54.08C155.74 53.12 155.14 51.76 155.14 50C155.14 48.0533 155.833 46.6267 157.22 45.72C158.607 44.7867 160.407 44.1467 162.62 43.8L167.86 43V41.4C167.86 40.1733 167.473 39.2 166.7 38.48C165.953 37.76 164.913 37.4 163.58 37.4C162.807 37.4 161.927 37.5333 160.94 37.8C159.98 38.0667 159.207 38.3867 158.62 38.76L158.22 40.48C158.007 41.36 157.593 41.8 156.98 41.8C156.74 41.8 156.553 41.7467 156.42 41.64C156.313 41.5067 156.26 41.3467 156.26 41.16V37.24C157.353 36.6 158.607 36.0667 160.02 35.64C161.46 35.2133 162.847 35 164.18 35C166.367 35 168.153 35.56 169.54 36.68C170.927 37.8 171.62 39.4 171.62 41.48V52.84L173.02 53.28C173.473 53.44 173.793 53.6 173.98 53.76C174.167 53.92 174.26 54.1467 174.26 54.44C174.26 54.8133 174.087 55 173.74 55H167.94V52.48H167.78C167.06 53.4133 166.14 54.16 165.02 54.72C163.9 55.2533 162.66 55.52 161.3 55.52ZM162.46 53.04C163.367 53.04 164.233 52.8267 165.06 52.4C165.913 51.9467 166.593 51.36 167.1 50.64C167.607 49.8933 167.86 49.0933 167.86 48.24V45.28L163.38 46C161.967 46.24 160.86 46.6667 160.06 47.28C159.287 47.8667 158.9 48.7067 158.9 49.8C158.9 50.84 159.22 51.64 159.86 52.2C160.527 52.76 161.393 53.04 162.46 53.04ZM177.544 55C177.304 55 177.118 54.92 176.984 54.76C176.851 54.5733 176.784 54.3333 176.784 54.04C176.784 53.6133 176.931 53.2933 177.224 53.08C177.544 52.8667 177.971 52.76 178.504 52.76H179.504V37.64H177.544C177.038 37.64 176.784 37.3333 176.784 36.72C176.784 36.2667 176.931 35.9333 177.224 35.72C177.544 35.5067 177.971 35.4 178.504 35.4H183.024V39.4H183.184C184.144 38.1733 185.238 37.1333 186.464 36.28C187.718 35.4267 188.878 35 189.944 35C190.584 35 191.078 35.1867 191.424 35.56C191.771 35.9067 191.944 36.3467 191.944 36.88C191.944 37.5733 191.744 38.1467 191.344 38.6C188.384 38.6 185.678 39.7067 183.224 41.92V52.76L185.024 53.28C185.451 53.4133 185.758 53.5733 185.944 53.76C186.131 53.92 186.224 54.1467 186.224 54.44C186.224 54.8133 186.051 55 185.704 55H177.544ZM199.738 55.52C198.031 55.52 196.578 55.04 195.378 54.08C194.178 53.12 193.578 51.76 193.578 50C193.578 48.0533 194.271 46.6267 195.658 45.72C197.044 44.7867 198.844 44.1467 201.058 43.8L206.298 43V41.4C206.298 40.1733 205.911 39.2 205.138 38.48C204.391 37.76 203.351 37.4 202.018 37.4C201.244 37.4 200.364 37.5333 199.378 37.8C198.418 38.0667 197.644 38.3867 197.058 38.76L196.658 40.48C196.444 41.36 196.031 41.8 195.418 41.8C195.178 41.8 194.991 41.7467 194.858 41.64C194.751 41.5067 194.698 41.3467 194.698 41.16V37.24C195.791 36.6 197.044 36.0667 198.458 35.64C199.898 35.2133 201.284 35 202.618 35C204.804 35 206.591 35.56 207.978 36.68C209.364 37.8 210.058 39.4 210.058 41.48V52.84L211.458 53.28C211.911 53.44 212.231 53.6 212.418 53.76C212.604 53.92 212.698 54.1467 212.698 54.44C212.698 54.8133 212.524 55 212.178 55H206.378V52.48H206.218C205.498 53.4133 204.578 54.16 203.458 54.72C202.338 55.2533 201.098 55.52 199.738 55.52ZM200.898 53.04C201.804 53.04 202.671 52.8267 203.498 52.4C204.351 51.9467 205.031 51.36 205.538 50.64C206.044 49.8933 206.298 49.0933 206.298 48.24V45.28L201.818 46C200.404 46.24 199.298 46.6667 198.498 47.28C197.724 47.8667 197.338 48.7067 197.338 49.8C197.338 50.84 197.658 51.64 198.298 52.2C198.964 52.76 199.831 53.04 200.898 53.04ZM221.462 32.36C220.715 32.36 220.089 32.12 219.582 31.64C219.102 31.16 218.862 30.5333 218.862 29.76C218.862 28.9867 219.102 28.3733 219.582 27.92C220.089 27.44 220.715 27.2 221.462 27.2C222.182 27.2 222.782 27.44 223.262 27.92C223.769 28.3733 224.022 28.9867 224.022 29.76C224.022 30.5333 223.769 31.16 223.262 31.64C222.782 32.12 222.182 32.36 221.462 32.36ZM215.902 64.32C215.289 64.32 214.769 64.0933 214.342 63.64C213.942 63.2133 213.729 62.5333 213.702 61.6C215.889 60.8267 217.435 59.88 218.342 58.76C219.249 57.6667 219.702 56.08 219.702 54V37.64H217.742C217.235 37.64 216.982 37.3333 216.982 36.72C216.982 35.84 217.555 35.4 218.702 35.4H223.422V54.24C223.422 58.8 221.689 61.9333 218.222 63.64C217.715 63.88 217.289 64.0533 216.942 64.16C216.622 64.2667 216.275 64.32 215.902 64.32ZM245.363 55.52C243.656 55.52 242.203 55.04 241.003 54.08C239.803 53.12 239.203 51.76 239.203 50C239.203 48.0533 239.896 46.6267 241.283 45.72C242.669 44.7867 244.469 44.1467 246.683 43.8L251.923 43V41.4C251.923 40.1733 251.536 39.2 250.763 38.48C250.016 37.76 248.976 37.4 247.643 37.4C246.869 37.4 245.989 37.5333 245.003 37.8C244.043 38.0667 243.269 38.3867 242.683 38.76L242.283 40.48C242.069 41.36 241.656 41.8 241.043 41.8C240.803 41.8 240.616 41.7467 240.483 41.64C240.376 41.5067 240.323 41.3467 240.323 41.16V37.24C241.416 36.6 242.669 36.0667 244.083 35.64C245.523 35.2133 246.909 35 248.243 35C250.429 35 252.216 35.56 253.603 36.68C254.989 37.8 255.683 39.4 255.683 41.48V52.84L257.083 53.28C257.536 53.44 257.856 53.6 258.043 53.76C258.229 53.92 258.323 54.1467 258.323 54.44C258.323 54.8133 258.149 55 257.803 55H252.003V52.48H251.843C251.123 53.4133 250.203 54.16 249.083 54.72C247.963 55.2533 246.723 55.52 245.363 55.52ZM246.523 53.04C247.429 53.04 248.296 52.8267 249.123 52.4C249.976 51.9467 250.656 51.36 251.163 50.64C251.669 49.8933 251.923 49.0933 251.923 48.24V45.28L247.443 46C246.029 46.24 244.923 46.6667 244.123 47.28C243.349 47.8667 242.963 48.7067 242.963 49.8C242.963 50.84 243.283 51.64 243.923 52.2C244.589 52.76 245.456 53.04 246.523 53.04ZM265.167 32.36C264.42 32.36 263.794 32.12 263.287 31.64C262.807 31.16 262.567 30.5333 262.567 29.76C262.567 28.9867 262.807 28.3733 263.287 27.92C263.794 27.44 264.42 27.2 265.167 27.2C265.887 27.2 266.487 27.44 266.967 27.92C267.474 28.3733 267.727 28.9867 267.727 29.76C267.727 30.5333 267.474 31.16 266.967 31.64C266.487 32.12 265.887 32.36 265.167 32.36ZM261.407 55C261.167 55 260.98 54.92 260.847 54.76C260.714 54.5733 260.647 54.3333 260.647 54.04C260.647 53.6133 260.794 53.2933 261.087 53.08C261.407 52.8667 261.834 52.76 262.367 52.76H263.367V37.64H261.407C260.9 37.64 260.647 37.3333 260.647 36.72C260.647 36.2667 260.794 35.9333 261.087 35.72C261.407 35.5067 261.834 35.4 262.367 35.4H267.087V52.76L268.887 53.28C269.314 53.4133 269.62 53.5733 269.807 53.76C269.994 53.92 270.087 54.1467 270.087 54.44C270.087 54.8133 269.914 55 269.567 55H261.407Z" fill="white"/>
<path d="M34 26.8368L40.3241 39.3885L46.5849 26.8368L40.3241 0L34 26.8368Z" fill="white"/>
<path d="M46.585 56.5499L40.2609 43.9982L34.0001 56.5499L40.2609 83.3867L46.585 56.5499Z" fill="white"/>
<path d="M50.274 29.3474L42.3394 41.1107L56.9197 39.4028L77.719 20.053L50.274 29.3474Z" fill="white"/>
<path d="M23.8013 44.8177L38.3654 43.0183L30.6313 54.8079L3.43216 64.4186L23.8013 44.8177Z" fill="white"/>
</svg>
