<svg width="446" height="277" viewBox="0 0 446 277" fill="none" xmlns="http://www.w3.org/2000/svg">
<mask id="mask0_547_7" style="mask-type:alpha" maskUnits="userSpaceOnUse" x="0" y="0" width="446" height="277">
<rect width="446" height="277" fill="#D9D9D9"/>
</mask>
<g mask="url(#mask0_547_7)">
<path d="M311.5 244C289.5 244 271.167 236.5 256.5 221.5C242.167 206.167 235 184.333 235 156C235 130 240 107 250 87C260 67 272.5 50 287.5 36C302.5 22 317.667 11.1666 333 3.49996L359.5 33.5C351.167 36.8333 341.667 43.1666 331 52.5C320.667 61.5 311.5 72 303.5 84C295.833 95.6666 291.667 107.5 291 119.5C294 115.5 299.167 112.167 306.5 109.5C313.833 106.833 321.5 105.5 329.5 105.5C344.5 105.5 357.833 111 369.5 122C381.5 132.667 387.5 147.833 387.5 167.5C387.5 190.833 380.167 209.5 365.5 223.5C351.167 237.167 333.167 244 311.5 244ZM112.5 244C90.5 244 72.1667 236.5 57.5 221.5C43.1667 206.167 36 184.333 36 156C36 130 41 107 51 87C61 67 73.5 50 88.5 36C103.5 22 118.667 11.1666 134 3.49996L160.5 33.5C152.167 36.8333 142.667 43.1666 132 52.5C121.667 61.5 112.5 72 104.5 84C96.8333 95.6666 92.6667 107.5 92 119.5C95 115.5 100.167 112.167 107.5 109.5C114.833 106.833 122.5 105.5 130.5 105.5C145.5 105.5 158.833 111 170.5 122C182.5 132.667 188.5 147.833 188.5 167.5C188.5 190.833 181.167 209.5 166.5 223.5C152.167 237.167 134.167 244 112.5 244Z" fill="white" fill-opacity="0.4"/>
</g>
</svg>
