<svg width="36" height="36" viewBox="0 0 36 36" fill="none" xmlns="http://www.w3.org/2000/svg">
<path d="M27 12C29.4853 12 31.5 9.98528 31.5 7.5C31.5 5.01472 29.4853 3 27 3C24.5147 3 22.5 5.01472 22.5 7.5C22.5 9.98528 24.5147 12 27 12Z" stroke="white" stroke-width="2" stroke-linecap="round" stroke-linejoin="round"/>
<path d="M9 22.5C11.4853 22.5 13.5 20.4853 13.5 18C13.5 15.5147 11.4853 13.5 9 13.5C6.51472 13.5 4.5 15.5147 4.5 18C4.5 20.4853 6.51472 22.5 9 22.5Z" stroke="white" stroke-width="2" stroke-linecap="round" stroke-linejoin="round"/>
<path d="M27 33C29.4853 33 31.5 30.9853 31.5 28.5C31.5 26.0147 29.4853 24 27 24C24.5147 24 22.5 26.0147 22.5 28.5C22.5 30.9853 24.5147 33 27 33Z" stroke="white" stroke-width="2" stroke-linecap="round" stroke-linejoin="round"/>
<path d="M12.8848 20.2656L23.1298 26.2356" stroke="white" stroke-width="2" stroke-linecap="round" stroke-linejoin="round"/>
<path d="M23.1148 9.76562L12.8848 15.7356" stroke="white" stroke-width="2" stroke-linecap="round" stroke-linejoin="round"/>
</svg>
